%TF.GenerationSoftware,KiCad,Pcbnew,8.0.8*%
%TF.CreationDate,2025-03-31T20:29:26+08:00*%
%TF.ProjectId,1,312e6b69-6361-4645-9f70-636258585858,rev?*%
%TF.SameCoordinates,Original*%
%TF.FileFunction,Copper,L2,Bot*%
%TF.FilePolarity,Positive*%
%FSLAX46Y46*%
G04 Gerber Fmt 4.6, Leading zero omitted, Abs format (unit mm)*
G04 Created by KiCad (PCBNEW 8.0.8) date 2025-03-31 20:29:26*
%MOMM*%
%LPD*%
G01*
G04 APERTURE LIST*
%TA.AperFunction,ComponentPad*%
%ADD10R,1.700000X1.700000*%
%TD*%
%TA.AperFunction,ComponentPad*%
%ADD11O,1.700000X1.700000*%
%TD*%
%TA.AperFunction,ComponentPad*%
%ADD12O,1.800000X1.150000*%
%TD*%
%TA.AperFunction,ComponentPad*%
%ADD13O,2.000000X1.450000*%
%TD*%
%TA.AperFunction,ViaPad*%
%ADD14C,0.600000*%
%TD*%
%TA.AperFunction,Conductor*%
%ADD15C,0.500000*%
%TD*%
G04 APERTURE END LIST*
D10*
%TO.P,J4,1,Pin_1*%
%TO.N,+3.3V*%
X102700000Y-82300000D03*
D11*
%TO.P,J4,2,Pin_2*%
%TO.N,/I2C2_SDA*%
X105240000Y-82300000D03*
%TO.P,J4,3,Pin_3*%
%TO.N,/I2C2_SCL*%
X107780000Y-82300000D03*
%TO.P,J4,4,Pin_4*%
%TO.N,GND*%
X110320000Y-82300000D03*
%TD*%
D10*
%TO.P,J3,1,Pin_1*%
%TO.N,+3.3V*%
X109490000Y-47900000D03*
D11*
%TO.P,J3,2,Pin_2*%
%TO.N,/USART1_TX*%
X106950000Y-47900000D03*
%TO.P,J3,3,Pin_3*%
%TO.N,/USART1_RX*%
X104410000Y-47900000D03*
%TO.P,J3,4,Pin_4*%
%TO.N,GND*%
X101870000Y-47900000D03*
%TD*%
D12*
%TO.P,J1,6,Shield*%
%TO.N,unconnected-(J1-Shield-Pad6)_3*%
X133500000Y-65775000D03*
D13*
%TO.N,unconnected-(J1-Shield-Pad6)_1*%
X129700000Y-65625000D03*
%TO.N,unconnected-(J1-Shield-Pad6)_2*%
X129700000Y-58175000D03*
D12*
%TO.N,unconnected-(J1-Shield-Pad6)*%
X133500000Y-58025000D03*
%TD*%
D10*
%TO.P,J2,1,Pin_1*%
%TO.N,+3.3V*%
X124920000Y-48100000D03*
D11*
%TO.P,J2,2,Pin_2*%
%TO.N,/SWDIO*%
X122380000Y-48100000D03*
%TO.P,J2,3,Pin_3*%
%TO.N,/SWCLK*%
X119840000Y-48100000D03*
%TO.P,J2,4,Pin_4*%
%TO.N,GND*%
X117300000Y-48100000D03*
%TD*%
D14*
%TO.N,+3.3V*%
X105900000Y-79650000D03*
X104590000Y-79650000D03*
X109100000Y-76100000D03*
X107750000Y-76100000D03*
%TO.N,GND*%
X124650000Y-70750000D03*
X95400000Y-53600000D03*
X131800000Y-68300000D03*
X102600000Y-60900000D03*
X128400000Y-71400000D03*
X124200000Y-67050000D03*
X103650000Y-63950000D03*
X113150000Y-70500000D03*
X123750000Y-70750000D03*
X127600000Y-60550000D03*
X109900000Y-69250000D03*
X103550000Y-59600000D03*
X103612500Y-66987500D03*
X108600000Y-60650000D03*
X99400000Y-59750000D03*
X118700000Y-61300000D03*
X124200000Y-66050000D03*
X103650000Y-70450000D03*
X98050000Y-64950000D03*
%TO.N,/HSE_OUT*%
X102450000Y-62700000D03*
%TD*%
D15*
%TO.N,+3.3V*%
X104590000Y-79650000D02*
X105900000Y-79650000D01*
X109100000Y-76100000D02*
X107750000Y-76100000D01*
%TD*%
%TA.AperFunction,Conductor*%
%TO.N,GND*%
G36*
X132471430Y-45300969D02*
G01*
X132734541Y-45312506D01*
X132749719Y-45314113D01*
X133014184Y-45358739D01*
X133029068Y-45362205D01*
X133286040Y-45439032D01*
X133300377Y-45444302D01*
X133545927Y-45552155D01*
X133559516Y-45559152D01*
X133789946Y-45696405D01*
X133802571Y-45705021D01*
X134014362Y-45869583D01*
X134025817Y-45879675D01*
X134059068Y-45912826D01*
X134215748Y-46069039D01*
X134225887Y-46080478D01*
X134391075Y-46291769D01*
X134399729Y-46304368D01*
X134530059Y-46521694D01*
X134537662Y-46534371D01*
X134544700Y-46547937D01*
X134586358Y-46642015D01*
X134653295Y-46793181D01*
X134658610Y-46807513D01*
X134736200Y-47064236D01*
X134739712Y-47079113D01*
X134781757Y-47323824D01*
X134783548Y-47344644D01*
X134798072Y-57496496D01*
X134778483Y-57563563D01*
X134725745Y-57609394D01*
X134656601Y-57619436D01*
X134593003Y-57590502D01*
X134570970Y-57565564D01*
X134505045Y-57466901D01*
X134505042Y-57466897D01*
X134383102Y-57344957D01*
X134383098Y-57344954D01*
X134239711Y-57249145D01*
X134239698Y-57249138D01*
X134080378Y-57183146D01*
X134080366Y-57183143D01*
X133911232Y-57149500D01*
X133911229Y-57149500D01*
X133088771Y-57149500D01*
X133088768Y-57149500D01*
X132919633Y-57183143D01*
X132919621Y-57183146D01*
X132760301Y-57249138D01*
X132760288Y-57249145D01*
X132616901Y-57344954D01*
X132616897Y-57344957D01*
X132494957Y-57466897D01*
X132494954Y-57466901D01*
X132399145Y-57610288D01*
X132399138Y-57610301D01*
X132333146Y-57769621D01*
X132333143Y-57769633D01*
X132299500Y-57938766D01*
X132299500Y-58111233D01*
X132333143Y-58280366D01*
X132333146Y-58280378D01*
X132399138Y-58439698D01*
X132399145Y-58439711D01*
X132494954Y-58583098D01*
X132494957Y-58583102D01*
X132616897Y-58705042D01*
X132616901Y-58705045D01*
X132760288Y-58800854D01*
X132760301Y-58800861D01*
X132919621Y-58866853D01*
X132919626Y-58866855D01*
X133088766Y-58900499D01*
X133088769Y-58900500D01*
X133088771Y-58900500D01*
X133911231Y-58900500D01*
X133911232Y-58900499D01*
X134080374Y-58866855D01*
X134239705Y-58800858D01*
X134383099Y-58705045D01*
X134505045Y-58583099D01*
X134572479Y-58482176D01*
X134626091Y-58437372D01*
X134695416Y-58428665D01*
X134758443Y-58458819D01*
X134795163Y-58518262D01*
X134799581Y-58550891D01*
X134809183Y-65263125D01*
X134789594Y-65330192D01*
X134736856Y-65376023D01*
X134667712Y-65386065D01*
X134604114Y-65357131D01*
X134582081Y-65332193D01*
X134505045Y-65216901D01*
X134505042Y-65216897D01*
X134383102Y-65094957D01*
X134383098Y-65094954D01*
X134239711Y-64999145D01*
X134239698Y-64999138D01*
X134080378Y-64933146D01*
X134080366Y-64933143D01*
X133911232Y-64899500D01*
X133911229Y-64899500D01*
X133088771Y-64899500D01*
X133088768Y-64899500D01*
X132919633Y-64933143D01*
X132919621Y-64933146D01*
X132760301Y-64999138D01*
X132760288Y-64999145D01*
X132616901Y-65094954D01*
X132616897Y-65094957D01*
X132494957Y-65216897D01*
X132494954Y-65216901D01*
X132399145Y-65360288D01*
X132399138Y-65360301D01*
X132333146Y-65519621D01*
X132333143Y-65519633D01*
X132299500Y-65688766D01*
X132299500Y-65861233D01*
X132333143Y-66030366D01*
X132333146Y-66030378D01*
X132399138Y-66189698D01*
X132399145Y-66189711D01*
X132494954Y-66333098D01*
X132494957Y-66333102D01*
X132616897Y-66455042D01*
X132616901Y-66455045D01*
X132760288Y-66550854D01*
X132760301Y-66550861D01*
X132905708Y-66611090D01*
X132919626Y-66616855D01*
X133088766Y-66650499D01*
X133088769Y-66650500D01*
X133088771Y-66650500D01*
X133911231Y-66650500D01*
X133911232Y-66650499D01*
X134080374Y-66616855D01*
X134239705Y-66550858D01*
X134383099Y-66455045D01*
X134505045Y-66333099D01*
X134583543Y-66215617D01*
X134637153Y-66170814D01*
X134706478Y-66162107D01*
X134769506Y-66192261D01*
X134806226Y-66251704D01*
X134810644Y-66284333D01*
X134833377Y-82173916D01*
X134832587Y-82188067D01*
X134832384Y-82189848D01*
X134833469Y-82250583D01*
X134833489Y-82252657D01*
X134833491Y-82254435D01*
X134833372Y-82260005D01*
X134821478Y-82531324D01*
X134819868Y-82546525D01*
X134775244Y-82810976D01*
X134771777Y-82825863D01*
X134694952Y-83082828D01*
X134689679Y-83097175D01*
X134581826Y-83342726D01*
X134574828Y-83356316D01*
X134437582Y-83586733D01*
X134428966Y-83599358D01*
X134264408Y-83811147D01*
X134254309Y-83822609D01*
X134220693Y-83856327D01*
X134064945Y-84012540D01*
X134053506Y-84022678D01*
X133842215Y-84187865D01*
X133829616Y-84196519D01*
X133599611Y-84334452D01*
X133586042Y-84341491D01*
X133340805Y-84450082D01*
X133326479Y-84455395D01*
X133223665Y-84486469D01*
X133069746Y-84532987D01*
X133054870Y-84536498D01*
X132807977Y-84578917D01*
X132787134Y-84580708D01*
X92860159Y-84630184D01*
X92846029Y-84629394D01*
X92844138Y-84629179D01*
X92844136Y-84629179D01*
X92844133Y-84629179D01*
X92783476Y-84630262D01*
X92781392Y-84630282D01*
X92779487Y-84630284D01*
X92773925Y-84630165D01*
X92502664Y-84618270D01*
X92487463Y-84616660D01*
X92223012Y-84572035D01*
X92208125Y-84568568D01*
X91951162Y-84491742D01*
X91936815Y-84486469D01*
X91691262Y-84378614D01*
X91677673Y-84371616D01*
X91447255Y-84234368D01*
X91434630Y-84225751D01*
X91222859Y-84061204D01*
X91211389Y-84051100D01*
X91021454Y-83861729D01*
X91011316Y-83850290D01*
X90846136Y-83639007D01*
X90837481Y-83626407D01*
X90782519Y-83534757D01*
X90699546Y-83396397D01*
X90692508Y-83382829D01*
X90665905Y-83322750D01*
X90621317Y-83222052D01*
X90583923Y-83137601D01*
X90578607Y-83123269D01*
X90565048Y-83078406D01*
X90501014Y-82866527D01*
X90497505Y-82851659D01*
X90493784Y-82830002D01*
X90460335Y-82635313D01*
X90455430Y-82606764D01*
X90453639Y-82585944D01*
X90453128Y-82228427D01*
X91436688Y-82228427D01*
X91436688Y-82433131D01*
X91440318Y-82456048D01*
X91468710Y-82635313D01*
X91531969Y-82830002D01*
X91624903Y-83012392D01*
X91745216Y-83177992D01*
X91889974Y-83322750D01*
X92011884Y-83411321D01*
X92055578Y-83443066D01*
X92171268Y-83502013D01*
X92237964Y-83535997D01*
X92237966Y-83535997D01*
X92237969Y-83535999D01*
X92328062Y-83565272D01*
X92432653Y-83599256D01*
X92533745Y-83615267D01*
X92634836Y-83631279D01*
X92634837Y-83631279D01*
X92839539Y-83631279D01*
X92839540Y-83631279D01*
X93041722Y-83599256D01*
X93236407Y-83535999D01*
X93418798Y-83443066D01*
X93547253Y-83349739D01*
X93584401Y-83322750D01*
X93584403Y-83322747D01*
X93584407Y-83322745D01*
X93729154Y-83177998D01*
X93729156Y-83177994D01*
X93729159Y-83177992D01*
X93798298Y-83082828D01*
X93849475Y-83012389D01*
X93942408Y-82829998D01*
X94005665Y-82635313D01*
X94037688Y-82433131D01*
X94037688Y-82228427D01*
X94031296Y-82188067D01*
X94005665Y-82026244D01*
X93958994Y-81882607D01*
X93942408Y-81831560D01*
X93942406Y-81831557D01*
X93942406Y-81831555D01*
X93908691Y-81765386D01*
X93849475Y-81649169D01*
X93830041Y-81622420D01*
X93729159Y-81483565D01*
X93650725Y-81405131D01*
X101549500Y-81405131D01*
X101549500Y-83194856D01*
X101549502Y-83194882D01*
X101552413Y-83219987D01*
X101552415Y-83219991D01*
X101597793Y-83322764D01*
X101597794Y-83322765D01*
X101677235Y-83402206D01*
X101780009Y-83447585D01*
X101805135Y-83450500D01*
X103594864Y-83450499D01*
X103594879Y-83450497D01*
X103594882Y-83450497D01*
X103619987Y-83447586D01*
X103619988Y-83447585D01*
X103619991Y-83447585D01*
X103722765Y-83402206D01*
X103802206Y-83322765D01*
X103847585Y-83219991D01*
X103850500Y-83194865D01*
X103850499Y-82456046D01*
X103870183Y-82389009D01*
X103922987Y-82343254D01*
X103992146Y-82333310D01*
X104055702Y-82362335D01*
X104093476Y-82421113D01*
X104097970Y-82444606D01*
X104102454Y-82492993D01*
X104104244Y-82512310D01*
X104157815Y-82700591D01*
X104162596Y-82717392D01*
X104162596Y-82717394D01*
X104257632Y-82908253D01*
X104336273Y-83012389D01*
X104386128Y-83078407D01*
X104543698Y-83222052D01*
X104724981Y-83334298D01*
X104923802Y-83411321D01*
X105133390Y-83450500D01*
X105133392Y-83450500D01*
X105346608Y-83450500D01*
X105346610Y-83450500D01*
X105556198Y-83411321D01*
X105755019Y-83334298D01*
X105936302Y-83222052D01*
X106093872Y-83078407D01*
X106222366Y-82908255D01*
X106278255Y-82796014D01*
X106317403Y-82717394D01*
X106317403Y-82717393D01*
X106317405Y-82717389D01*
X106375756Y-82512310D01*
X106386529Y-82396047D01*
X106412315Y-82331111D01*
X106454622Y-82300804D01*
X106563130Y-82300804D01*
X106599503Y-82321668D01*
X106631693Y-82383681D01*
X106633470Y-82396047D01*
X106644244Y-82512310D01*
X106697815Y-82700591D01*
X106702596Y-82717392D01*
X106702596Y-82717394D01*
X106797632Y-82908253D01*
X106876273Y-83012389D01*
X106926128Y-83078407D01*
X107083698Y-83222052D01*
X107264981Y-83334298D01*
X107463802Y-83411321D01*
X107673390Y-83450500D01*
X107673392Y-83450500D01*
X107886608Y-83450500D01*
X107886610Y-83450500D01*
X108096198Y-83411321D01*
X108295019Y-83334298D01*
X108476302Y-83222052D01*
X108633872Y-83078407D01*
X108762366Y-82908255D01*
X108829325Y-82773781D01*
X108876825Y-82722548D01*
X108944488Y-82705126D01*
X109010828Y-82727051D01*
X109052705Y-82776651D01*
X109146399Y-82977578D01*
X109281894Y-83171082D01*
X109448917Y-83338105D01*
X109642421Y-83473600D01*
X109856507Y-83573429D01*
X109856516Y-83573433D01*
X110070000Y-83630634D01*
X110070000Y-82733012D01*
X110127007Y-82765925D01*
X110254174Y-82800000D01*
X110385826Y-82800000D01*
X110512993Y-82765925D01*
X110570000Y-82733012D01*
X110570000Y-83630633D01*
X110783483Y-83573433D01*
X110783492Y-83573429D01*
X110997578Y-83473600D01*
X111191082Y-83338105D01*
X111358105Y-83171082D01*
X111493600Y-82977578D01*
X111593429Y-82763492D01*
X111593432Y-82763486D01*
X111650636Y-82550000D01*
X110753012Y-82550000D01*
X110785925Y-82492993D01*
X110820000Y-82365826D01*
X110820000Y-82234174D01*
X110809354Y-82194443D01*
X131233485Y-82194443D01*
X131233485Y-82399146D01*
X131265507Y-82601329D01*
X131328766Y-82796018D01*
X131421699Y-82978407D01*
X131542013Y-83144008D01*
X131686771Y-83288766D01*
X131825879Y-83389832D01*
X131852375Y-83409082D01*
X131968592Y-83468298D01*
X132034761Y-83502013D01*
X132034763Y-83502013D01*
X132034766Y-83502015D01*
X132135536Y-83534757D01*
X132229450Y-83565272D01*
X132330542Y-83581283D01*
X132431633Y-83597295D01*
X132431634Y-83597295D01*
X132636336Y-83597295D01*
X132636337Y-83597295D01*
X132838519Y-83565272D01*
X133033204Y-83502015D01*
X133215595Y-83409082D01*
X133334429Y-83322745D01*
X133381198Y-83288766D01*
X133381200Y-83288763D01*
X133381204Y-83288761D01*
X133525951Y-83144014D01*
X133525953Y-83144010D01*
X133525956Y-83144008D01*
X133646271Y-82978407D01*
X133739203Y-82796018D01*
X133739203Y-82796017D01*
X133739205Y-82796014D01*
X133802462Y-82601329D01*
X133834485Y-82399147D01*
X133834485Y-82194443D01*
X133807845Y-82026245D01*
X133802462Y-81992260D01*
X133770840Y-81894939D01*
X133739205Y-81797576D01*
X133739203Y-81797573D01*
X133739203Y-81797571D01*
X133685281Y-81691745D01*
X133646272Y-81615185D01*
X133638541Y-81604544D01*
X133525956Y-81449581D01*
X133381198Y-81304823D01*
X133215598Y-81184510D01*
X133215597Y-81184509D01*
X133215595Y-81184508D01*
X133146888Y-81149500D01*
X133033208Y-81091576D01*
X132838519Y-81028317D01*
X132663980Y-81000673D01*
X132636337Y-80996295D01*
X132431633Y-80996295D01*
X132407314Y-81000146D01*
X132229450Y-81028317D01*
X132034761Y-81091576D01*
X131852371Y-81184510D01*
X131686771Y-81304823D01*
X131542013Y-81449581D01*
X131421700Y-81615181D01*
X131328766Y-81797571D01*
X131265507Y-81992260D01*
X131233485Y-82194443D01*
X110809354Y-82194443D01*
X110785925Y-82107007D01*
X110753012Y-82050000D01*
X111650636Y-82050000D01*
X111650635Y-82049999D01*
X111593432Y-81836513D01*
X111593429Y-81836507D01*
X111493600Y-81622422D01*
X111493599Y-81622420D01*
X111358113Y-81428926D01*
X111358108Y-81428920D01*
X111191082Y-81261894D01*
X110997578Y-81126399D01*
X110783492Y-81026570D01*
X110783486Y-81026567D01*
X110570000Y-80969364D01*
X110570000Y-81866988D01*
X110512993Y-81834075D01*
X110385826Y-81800000D01*
X110254174Y-81800000D01*
X110127007Y-81834075D01*
X110070000Y-81866988D01*
X110070000Y-80969364D01*
X110069999Y-80969364D01*
X109856513Y-81026567D01*
X109856507Y-81026570D01*
X109642422Y-81126399D01*
X109642420Y-81126400D01*
X109448926Y-81261886D01*
X109448920Y-81261891D01*
X109281891Y-81428920D01*
X109281886Y-81428926D01*
X109146400Y-81622420D01*
X109146399Y-81622422D01*
X109052705Y-81823348D01*
X109006532Y-81875787D01*
X108939339Y-81894939D01*
X108872457Y-81874723D01*
X108829324Y-81826216D01*
X108762366Y-81691745D01*
X108633872Y-81521593D01*
X108476302Y-81377948D01*
X108295019Y-81265702D01*
X108295017Y-81265701D01*
X108173155Y-81218492D01*
X108096198Y-81188679D01*
X107886610Y-81149500D01*
X107673390Y-81149500D01*
X107463802Y-81188679D01*
X107463799Y-81188679D01*
X107463799Y-81188680D01*
X107264982Y-81265701D01*
X107264980Y-81265702D01*
X107083699Y-81377947D01*
X106926127Y-81521593D01*
X106797632Y-81691746D01*
X106702596Y-81882605D01*
X106702596Y-81882607D01*
X106644244Y-82087689D01*
X106633471Y-82203951D01*
X106607685Y-82268888D01*
X106563130Y-82300804D01*
X106454622Y-82300804D01*
X106456869Y-82299194D01*
X106420497Y-82278331D01*
X106388307Y-82216318D01*
X106386529Y-82203951D01*
X106383175Y-82167759D01*
X106375756Y-82087690D01*
X106317405Y-81882611D01*
X106317403Y-81882606D01*
X106317403Y-81882605D01*
X106222367Y-81691746D01*
X106093872Y-81521593D01*
X105936302Y-81377948D01*
X105755019Y-81265702D01*
X105755017Y-81265701D01*
X105633155Y-81218492D01*
X105556198Y-81188679D01*
X105346610Y-81149500D01*
X105133390Y-81149500D01*
X104923802Y-81188679D01*
X104923799Y-81188679D01*
X104923799Y-81188680D01*
X104724982Y-81265701D01*
X104724980Y-81265702D01*
X104543699Y-81377947D01*
X104386127Y-81521593D01*
X104257632Y-81691746D01*
X104162596Y-81882605D01*
X104162596Y-81882607D01*
X104104244Y-82087689D01*
X104097970Y-82155394D01*
X104072183Y-82220331D01*
X104015383Y-82261018D01*
X103945602Y-82264538D01*
X103884995Y-82229772D01*
X103852806Y-82167759D01*
X103850499Y-82143952D01*
X103850499Y-81405143D01*
X103850499Y-81405136D01*
X103850497Y-81405117D01*
X103847586Y-81380012D01*
X103847585Y-81380010D01*
X103847585Y-81380009D01*
X103802206Y-81277235D01*
X103722765Y-81197794D01*
X103702124Y-81188680D01*
X103619992Y-81152415D01*
X103594865Y-81149500D01*
X101805143Y-81149500D01*
X101805117Y-81149502D01*
X101780012Y-81152413D01*
X101780008Y-81152415D01*
X101677235Y-81197793D01*
X101597794Y-81277234D01*
X101552415Y-81380006D01*
X101552415Y-81380008D01*
X101549500Y-81405131D01*
X93650725Y-81405131D01*
X93584401Y-81338807D01*
X93418801Y-81218494D01*
X93418800Y-81218493D01*
X93418798Y-81218492D01*
X93352101Y-81184508D01*
X93236411Y-81125560D01*
X93041722Y-81062301D01*
X92867183Y-81034657D01*
X92839540Y-81030279D01*
X92634836Y-81030279D01*
X92610517Y-81034130D01*
X92432653Y-81062301D01*
X92237964Y-81125560D01*
X92055574Y-81218494D01*
X91889974Y-81338807D01*
X91745216Y-81483565D01*
X91624903Y-81649165D01*
X91531969Y-81831555D01*
X91468710Y-82026244D01*
X91440565Y-82203951D01*
X91436688Y-82228427D01*
X90453128Y-82228427D01*
X90449439Y-79649998D01*
X103984318Y-79649998D01*
X103984318Y-79650001D01*
X104004955Y-79806760D01*
X104004956Y-79806762D01*
X104065464Y-79952841D01*
X104161718Y-80078282D01*
X104287159Y-80174536D01*
X104433238Y-80235044D01*
X104511619Y-80245363D01*
X104589999Y-80255682D01*
X104590000Y-80255682D01*
X104590001Y-80255682D01*
X104642254Y-80248802D01*
X104746762Y-80235044D01*
X104807370Y-80209938D01*
X104854823Y-80200500D01*
X105635177Y-80200500D01*
X105682629Y-80209938D01*
X105743238Y-80235044D01*
X105821619Y-80245363D01*
X105899999Y-80255682D01*
X105900000Y-80255682D01*
X105900001Y-80255682D01*
X105952254Y-80248802D01*
X106056762Y-80235044D01*
X106202841Y-80174536D01*
X106328282Y-80078282D01*
X106424536Y-79952841D01*
X106485044Y-79806762D01*
X106505682Y-79650000D01*
X106485044Y-79493238D01*
X106424536Y-79347159D01*
X106328282Y-79221718D01*
X106202841Y-79125464D01*
X106140158Y-79099500D01*
X106056762Y-79064956D01*
X106056760Y-79064955D01*
X105900001Y-79044318D01*
X105899999Y-79044318D01*
X105743239Y-79064955D01*
X105743237Y-79064956D01*
X105682630Y-79090061D01*
X105635177Y-79099500D01*
X104854823Y-79099500D01*
X104807370Y-79090061D01*
X104746762Y-79064956D01*
X104746760Y-79064955D01*
X104590001Y-79044318D01*
X104589999Y-79044318D01*
X104433239Y-79064955D01*
X104433237Y-79064956D01*
X104287160Y-79125463D01*
X104161718Y-79221718D01*
X104065463Y-79347160D01*
X104004956Y-79493237D01*
X104004955Y-79493239D01*
X103984318Y-79649998D01*
X90449439Y-79649998D01*
X90444360Y-76099998D01*
X107144318Y-76099998D01*
X107144318Y-76100001D01*
X107164955Y-76256760D01*
X107164956Y-76256762D01*
X107225464Y-76402841D01*
X107321718Y-76528282D01*
X107447159Y-76624536D01*
X107593238Y-76685044D01*
X107671619Y-76695363D01*
X107749999Y-76705682D01*
X107750000Y-76705682D01*
X107750001Y-76705682D01*
X107802254Y-76698802D01*
X107906762Y-76685044D01*
X107967370Y-76659938D01*
X108014823Y-76650500D01*
X108835177Y-76650500D01*
X108882629Y-76659938D01*
X108943238Y-76685044D01*
X109021619Y-76695363D01*
X109099999Y-76705682D01*
X109100000Y-76705682D01*
X109100001Y-76705682D01*
X109152254Y-76698802D01*
X109256762Y-76685044D01*
X109402841Y-76624536D01*
X109528282Y-76528282D01*
X109624536Y-76402841D01*
X109685044Y-76256762D01*
X109705682Y-76100000D01*
X109685044Y-75943238D01*
X109624536Y-75797159D01*
X109528282Y-75671718D01*
X109402841Y-75575464D01*
X109340158Y-75549500D01*
X109256762Y-75514956D01*
X109256760Y-75514955D01*
X109100001Y-75494318D01*
X109099999Y-75494318D01*
X108943239Y-75514955D01*
X108943237Y-75514956D01*
X108882630Y-75540061D01*
X108835177Y-75549500D01*
X108014823Y-75549500D01*
X107967370Y-75540061D01*
X107906762Y-75514956D01*
X107906760Y-75514955D01*
X107750001Y-75494318D01*
X107749999Y-75494318D01*
X107593239Y-75514955D01*
X107593237Y-75514956D01*
X107447160Y-75575463D01*
X107321718Y-75671718D01*
X107225463Y-75797160D01*
X107164956Y-75943237D01*
X107164955Y-75943239D01*
X107144318Y-76099998D01*
X90444360Y-76099998D01*
X90429230Y-65523992D01*
X128399500Y-65523992D01*
X128399500Y-65726007D01*
X128438907Y-65924119D01*
X128438909Y-65924127D01*
X128516212Y-66110752D01*
X128516217Y-66110762D01*
X128628441Y-66278718D01*
X128771281Y-66421558D01*
X128939237Y-66533782D01*
X128939241Y-66533784D01*
X128939244Y-66533786D01*
X129125873Y-66611091D01*
X129323992Y-66650499D01*
X129323996Y-66650500D01*
X129323997Y-66650500D01*
X130076004Y-66650500D01*
X130076005Y-66650499D01*
X130274127Y-66611091D01*
X130460756Y-66533786D01*
X130628718Y-66421558D01*
X130771558Y-66278718D01*
X130883786Y-66110756D01*
X130961091Y-65924127D01*
X131000500Y-65726003D01*
X131000500Y-65523997D01*
X130961091Y-65325873D01*
X130919932Y-65226507D01*
X130912463Y-65157037D01*
X130943738Y-65094558D01*
X130994060Y-65064700D01*
X130993207Y-65062452D01*
X131000222Y-65059790D01*
X131000225Y-65059790D01*
X131150852Y-64980734D01*
X131278183Y-64867929D01*
X131374818Y-64727930D01*
X131435140Y-64568872D01*
X131455645Y-64400000D01*
X131435140Y-64231128D01*
X131374818Y-64072070D01*
X131278183Y-63932071D01*
X131150852Y-63819266D01*
X131150849Y-63819263D01*
X131000226Y-63740210D01*
X130835056Y-63699500D01*
X130664944Y-63699500D01*
X130499773Y-63740210D01*
X130349150Y-63819263D01*
X130221816Y-63932072D01*
X130125182Y-64072068D01*
X130064860Y-64231125D01*
X130064859Y-64231130D01*
X130044355Y-64399999D01*
X130051708Y-64460553D01*
X130040248Y-64529476D01*
X129993344Y-64581263D01*
X129928612Y-64599500D01*
X129323992Y-64599500D01*
X129125880Y-64638907D01*
X129125872Y-64638909D01*
X128939247Y-64716212D01*
X128939237Y-64716217D01*
X128771281Y-64828441D01*
X128628441Y-64971281D01*
X128516217Y-65139237D01*
X128516212Y-65139247D01*
X128438909Y-65325872D01*
X128438907Y-65325880D01*
X128399500Y-65523992D01*
X90429230Y-65523992D01*
X90425190Y-62699998D01*
X101844318Y-62699998D01*
X101844318Y-62700001D01*
X101864955Y-62856760D01*
X101864956Y-62856762D01*
X101925464Y-63002841D01*
X102021718Y-63128282D01*
X102147159Y-63224536D01*
X102293238Y-63285044D01*
X102371619Y-63295363D01*
X102449999Y-63305682D01*
X102450000Y-63305682D01*
X102450001Y-63305682D01*
X102502254Y-63298802D01*
X102606762Y-63285044D01*
X102752841Y-63224536D01*
X102878282Y-63128282D01*
X102974536Y-63002841D01*
X103035044Y-62856762D01*
X103055682Y-62700000D01*
X103035044Y-62543238D01*
X102974536Y-62397159D01*
X102878282Y-62271718D01*
X102752841Y-62175464D01*
X102606762Y-62114956D01*
X102606760Y-62114955D01*
X102450001Y-62094318D01*
X102449999Y-62094318D01*
X102293239Y-62114955D01*
X102293237Y-62114956D01*
X102147160Y-62175463D01*
X102021718Y-62271718D01*
X101925463Y-62397160D01*
X101864956Y-62543237D01*
X101864955Y-62543239D01*
X101844318Y-62699998D01*
X90425190Y-62699998D01*
X90418636Y-58118995D01*
X91249499Y-58118995D01*
X91276418Y-58254322D01*
X91276421Y-58254332D01*
X91329221Y-58381804D01*
X91329228Y-58381817D01*
X91405885Y-58496541D01*
X91405888Y-58496545D01*
X91503454Y-58594111D01*
X91503458Y-58594114D01*
X91618182Y-58670771D01*
X91618195Y-58670778D01*
X91745667Y-58723578D01*
X91745672Y-58723580D01*
X91745676Y-58723580D01*
X91745677Y-58723581D01*
X91881004Y-58750500D01*
X91881007Y-58750500D01*
X92018995Y-58750500D01*
X92110041Y-58732389D01*
X92154328Y-58723580D01*
X92281811Y-58670775D01*
X92396542Y-58594114D01*
X92494114Y-58496542D01*
X92570775Y-58381811D01*
X92623580Y-58254328D01*
X92650500Y-58118993D01*
X92650500Y-58073992D01*
X128399500Y-58073992D01*
X128399500Y-58276007D01*
X128438907Y-58474119D01*
X128438909Y-58474127D01*
X128516212Y-58660752D01*
X128516217Y-58660762D01*
X128628441Y-58828718D01*
X128771281Y-58971558D01*
X128939237Y-59083782D01*
X128939241Y-59083784D01*
X128939244Y-59083786D01*
X129125873Y-59161091D01*
X129323484Y-59200398D01*
X129323992Y-59200499D01*
X129323996Y-59200500D01*
X129928612Y-59200500D01*
X129995651Y-59220185D01*
X130041406Y-59272989D01*
X130051708Y-59339447D01*
X130044355Y-59400000D01*
X130064859Y-59568869D01*
X130064860Y-59568874D01*
X130125182Y-59727931D01*
X130187475Y-59818177D01*
X130221817Y-59867929D01*
X130327505Y-59961560D01*
X130349150Y-59980736D01*
X130499773Y-60059789D01*
X130499775Y-60059790D01*
X130664944Y-60100500D01*
X130835056Y-60100500D01*
X131000225Y-60059790D01*
X131079692Y-60018081D01*
X131150849Y-59980736D01*
X131150850Y-59980734D01*
X131150852Y-59980734D01*
X131278183Y-59867929D01*
X131374818Y-59727930D01*
X131435140Y-59568872D01*
X131455645Y-59400000D01*
X131435140Y-59231128D01*
X131423524Y-59200500D01*
X131408578Y-59161090D01*
X131374818Y-59072070D01*
X131278183Y-58932071D01*
X131150852Y-58819266D01*
X131150849Y-58819263D01*
X131000225Y-58740209D01*
X130993210Y-58737549D01*
X130994131Y-58735119D01*
X130944438Y-58706186D01*
X130912649Y-58643967D01*
X130919544Y-58574439D01*
X130919932Y-58573492D01*
X130929294Y-58550891D01*
X130961091Y-58474127D01*
X131000500Y-58276003D01*
X131000500Y-58073997D01*
X130961091Y-57875873D01*
X130883786Y-57689244D01*
X130883784Y-57689241D01*
X130883782Y-57689237D01*
X130771558Y-57521281D01*
X130628718Y-57378441D01*
X130460762Y-57266217D01*
X130460752Y-57266212D01*
X130274127Y-57188909D01*
X130274119Y-57188907D01*
X130076007Y-57149500D01*
X130076003Y-57149500D01*
X129323997Y-57149500D01*
X129323992Y-57149500D01*
X129125880Y-57188907D01*
X129125872Y-57188909D01*
X128939247Y-57266212D01*
X128939237Y-57266217D01*
X128771281Y-57378441D01*
X128628441Y-57521281D01*
X128516217Y-57689237D01*
X128516212Y-57689247D01*
X128438909Y-57875872D01*
X128438907Y-57875880D01*
X128399500Y-58073992D01*
X92650500Y-58073992D01*
X92650500Y-57981007D01*
X92650500Y-57981004D01*
X92623581Y-57845677D01*
X92623580Y-57845676D01*
X92623580Y-57845672D01*
X92592079Y-57769621D01*
X92570778Y-57718195D01*
X92570771Y-57718182D01*
X92494114Y-57603458D01*
X92494111Y-57603454D01*
X92396545Y-57505888D01*
X92396541Y-57505885D01*
X92281817Y-57429228D01*
X92281804Y-57429221D01*
X92154332Y-57376421D01*
X92154322Y-57376418D01*
X92018995Y-57349500D01*
X92018993Y-57349500D01*
X91881007Y-57349500D01*
X91881005Y-57349500D01*
X91745677Y-57376418D01*
X91745667Y-57376421D01*
X91618195Y-57429221D01*
X91618182Y-57429228D01*
X91503458Y-57505885D01*
X91503454Y-57505888D01*
X91405888Y-57603454D01*
X91405885Y-57603458D01*
X91329228Y-57718182D01*
X91329221Y-57718195D01*
X91276421Y-57845667D01*
X91276418Y-57845677D01*
X91249500Y-57981004D01*
X91249500Y-57981007D01*
X91249500Y-58118993D01*
X91249500Y-58118995D01*
X91249499Y-58118995D01*
X90418636Y-58118995D01*
X90414344Y-55118995D01*
X91249499Y-55118995D01*
X91276418Y-55254322D01*
X91276421Y-55254332D01*
X91329221Y-55381804D01*
X91329228Y-55381817D01*
X91405885Y-55496541D01*
X91405888Y-55496545D01*
X91503454Y-55594111D01*
X91503458Y-55594114D01*
X91618182Y-55670771D01*
X91618195Y-55670778D01*
X91745667Y-55723578D01*
X91745672Y-55723580D01*
X91745676Y-55723580D01*
X91745677Y-55723581D01*
X91881004Y-55750500D01*
X91881007Y-55750500D01*
X92018995Y-55750500D01*
X92110041Y-55732389D01*
X92154328Y-55723580D01*
X92281811Y-55670775D01*
X92396542Y-55594114D01*
X92494114Y-55496542D01*
X92570775Y-55381811D01*
X92623580Y-55254328D01*
X92650500Y-55118993D01*
X92650500Y-54981007D01*
X92650500Y-54981004D01*
X92623581Y-54845677D01*
X92623580Y-54845676D01*
X92623580Y-54845672D01*
X92623578Y-54845667D01*
X92570778Y-54718195D01*
X92570771Y-54718182D01*
X92494114Y-54603458D01*
X92494111Y-54603454D01*
X92396545Y-54505888D01*
X92396541Y-54505885D01*
X92281817Y-54429228D01*
X92281804Y-54429221D01*
X92154332Y-54376421D01*
X92154322Y-54376418D01*
X92018995Y-54349500D01*
X92018993Y-54349500D01*
X91881007Y-54349500D01*
X91881005Y-54349500D01*
X91745677Y-54376418D01*
X91745667Y-54376421D01*
X91618195Y-54429221D01*
X91618182Y-54429228D01*
X91503458Y-54505885D01*
X91503454Y-54505888D01*
X91405888Y-54603454D01*
X91405885Y-54603458D01*
X91329228Y-54718182D01*
X91329221Y-54718195D01*
X91276421Y-54845667D01*
X91276418Y-54845677D01*
X91249500Y-54981004D01*
X91249500Y-54981007D01*
X91249500Y-55118993D01*
X91249500Y-55118995D01*
X91249499Y-55118995D01*
X90414344Y-55118995D01*
X90403811Y-47756869D01*
X90404604Y-47742688D01*
X90404802Y-47740936D01*
X90404804Y-47740931D01*
X90403717Y-47680125D01*
X90403698Y-47678178D01*
X90403696Y-47676324D01*
X90403815Y-47670754D01*
X90405317Y-47636507D01*
X90409916Y-47531629D01*
X91402704Y-47531629D01*
X91402704Y-47736332D01*
X91434726Y-47938515D01*
X91497985Y-48133204D01*
X91548446Y-48232238D01*
X91589245Y-48312310D01*
X91590919Y-48315594D01*
X91711232Y-48481194D01*
X91855990Y-48625952D01*
X92010953Y-48738537D01*
X92021594Y-48746268D01*
X92137290Y-48805218D01*
X92203980Y-48839199D01*
X92203982Y-48839199D01*
X92203985Y-48839201D01*
X92294087Y-48868477D01*
X92398669Y-48902458D01*
X92499761Y-48918469D01*
X92600852Y-48934481D01*
X92600853Y-48934481D01*
X92805555Y-48934481D01*
X92805556Y-48934481D01*
X93007738Y-48902458D01*
X93202423Y-48839201D01*
X93384814Y-48746268D01*
X93478219Y-48678406D01*
X93550417Y-48625952D01*
X93550419Y-48625949D01*
X93550423Y-48625947D01*
X93695170Y-48481200D01*
X93695172Y-48481196D01*
X93695175Y-48481194D01*
X93754165Y-48400000D01*
X93815491Y-48315591D01*
X93908424Y-48133200D01*
X93971681Y-47938515D01*
X94003704Y-47736333D01*
X94003704Y-47649999D01*
X100539364Y-47649999D01*
X100539364Y-47650000D01*
X101436988Y-47650000D01*
X101404075Y-47707007D01*
X101370000Y-47834174D01*
X101370000Y-47965826D01*
X101404075Y-48092993D01*
X101436988Y-48150000D01*
X100539364Y-48150000D01*
X100596567Y-48363486D01*
X100596570Y-48363492D01*
X100696399Y-48577578D01*
X100831894Y-48771082D01*
X100998917Y-48938105D01*
X101192421Y-49073600D01*
X101406507Y-49173429D01*
X101406516Y-49173433D01*
X101620000Y-49230634D01*
X101620000Y-48333012D01*
X101677007Y-48365925D01*
X101804174Y-48400000D01*
X101935826Y-48400000D01*
X102062993Y-48365925D01*
X102120000Y-48333012D01*
X102120000Y-49230633D01*
X102333483Y-49173433D01*
X102333492Y-49173429D01*
X102547578Y-49073600D01*
X102741082Y-48938105D01*
X102908105Y-48771082D01*
X103043600Y-48577578D01*
X103137294Y-48376651D01*
X103183466Y-48324212D01*
X103250660Y-48305060D01*
X103317541Y-48325276D01*
X103360676Y-48373785D01*
X103427632Y-48508253D01*
X103516515Y-48625952D01*
X103556128Y-48678407D01*
X103713698Y-48822052D01*
X103894981Y-48934298D01*
X104093802Y-49011321D01*
X104303390Y-49050500D01*
X104303392Y-49050500D01*
X104516608Y-49050500D01*
X104516610Y-49050500D01*
X104726198Y-49011321D01*
X104925019Y-48934298D01*
X105106302Y-48822052D01*
X105263872Y-48678407D01*
X105392366Y-48508255D01*
X105446270Y-48400000D01*
X105487403Y-48317394D01*
X105487403Y-48317393D01*
X105487405Y-48317389D01*
X105545756Y-48112310D01*
X105556529Y-47996047D01*
X105582315Y-47931111D01*
X105624622Y-47900804D01*
X105733130Y-47900804D01*
X105769503Y-47921668D01*
X105801693Y-47983681D01*
X105803470Y-47996047D01*
X105814244Y-48112310D01*
X105872083Y-48315591D01*
X105872596Y-48317392D01*
X105872596Y-48317394D01*
X105967632Y-48508253D01*
X106056515Y-48625952D01*
X106096128Y-48678407D01*
X106253698Y-48822052D01*
X106434981Y-48934298D01*
X106633802Y-49011321D01*
X106843390Y-49050500D01*
X106843392Y-49050500D01*
X107056608Y-49050500D01*
X107056610Y-49050500D01*
X107266198Y-49011321D01*
X107465019Y-48934298D01*
X107646302Y-48822052D01*
X107803872Y-48678407D01*
X107932366Y-48508255D01*
X107986270Y-48400000D01*
X108027403Y-48317394D01*
X108027403Y-48317393D01*
X108027405Y-48317389D01*
X108085756Y-48112310D01*
X108092029Y-48044605D01*
X108117814Y-47979669D01*
X108174614Y-47938981D01*
X108244395Y-47935461D01*
X108305002Y-47970225D01*
X108337193Y-48032238D01*
X108339500Y-48056047D01*
X108339500Y-48794856D01*
X108339502Y-48794882D01*
X108342413Y-48819987D01*
X108342415Y-48819991D01*
X108387793Y-48922764D01*
X108387794Y-48922765D01*
X108467235Y-49002206D01*
X108570009Y-49047585D01*
X108595135Y-49050500D01*
X110384864Y-49050499D01*
X110384879Y-49050497D01*
X110384882Y-49050497D01*
X110409987Y-49047586D01*
X110409988Y-49047585D01*
X110409991Y-49047585D01*
X110512765Y-49002206D01*
X110592206Y-48922765D01*
X110637585Y-48819991D01*
X110640500Y-48794865D01*
X110640499Y-47849999D01*
X115969364Y-47849999D01*
X115969364Y-47850000D01*
X116866988Y-47850000D01*
X116834075Y-47907007D01*
X116800000Y-48034174D01*
X116800000Y-48165826D01*
X116834075Y-48292993D01*
X116866988Y-48350000D01*
X115969364Y-48350000D01*
X116026567Y-48563486D01*
X116026570Y-48563492D01*
X116126399Y-48777578D01*
X116261894Y-48971082D01*
X116428917Y-49138105D01*
X116622421Y-49273600D01*
X116836507Y-49373429D01*
X116836516Y-49373433D01*
X117050000Y-49430634D01*
X117050000Y-48533012D01*
X117107007Y-48565925D01*
X117234174Y-48600000D01*
X117365826Y-48600000D01*
X117492993Y-48565925D01*
X117550000Y-48533012D01*
X117550000Y-49430633D01*
X117763483Y-49373433D01*
X117763492Y-49373429D01*
X117977578Y-49273600D01*
X118171082Y-49138105D01*
X118338105Y-48971082D01*
X118473600Y-48777578D01*
X118567294Y-48576651D01*
X118613466Y-48524212D01*
X118680660Y-48505060D01*
X118747541Y-48525276D01*
X118790676Y-48573785D01*
X118857632Y-48708253D01*
X118978629Y-48868477D01*
X118986128Y-48878407D01*
X119143698Y-49022052D01*
X119324981Y-49134298D01*
X119523802Y-49211321D01*
X119733390Y-49250500D01*
X119733392Y-49250500D01*
X119946608Y-49250500D01*
X119946610Y-49250500D01*
X120156198Y-49211321D01*
X120355019Y-49134298D01*
X120536302Y-49022052D01*
X120693872Y-48878407D01*
X120822366Y-48708255D01*
X120880268Y-48591971D01*
X120917403Y-48517394D01*
X120917403Y-48517393D01*
X120917405Y-48517389D01*
X120975756Y-48312310D01*
X120986529Y-48196047D01*
X121012315Y-48131111D01*
X121054622Y-48100804D01*
X121163130Y-48100804D01*
X121199503Y-48121668D01*
X121231693Y-48183681D01*
X121233470Y-48196047D01*
X121244244Y-48312310D01*
X121297675Y-48500099D01*
X121302596Y-48517392D01*
X121302596Y-48517394D01*
X121397632Y-48708253D01*
X121518629Y-48868477D01*
X121526128Y-48878407D01*
X121683698Y-49022052D01*
X121864981Y-49134298D01*
X122063802Y-49211321D01*
X122273390Y-49250500D01*
X122273392Y-49250500D01*
X122486608Y-49250500D01*
X122486610Y-49250500D01*
X122696198Y-49211321D01*
X122895019Y-49134298D01*
X123076302Y-49022052D01*
X123233872Y-48878407D01*
X123362366Y-48708255D01*
X123420268Y-48591971D01*
X123457403Y-48517394D01*
X123457403Y-48517393D01*
X123457405Y-48517389D01*
X123515756Y-48312310D01*
X123522029Y-48244605D01*
X123547814Y-48179669D01*
X123604614Y-48138981D01*
X123674395Y-48135461D01*
X123735002Y-48170225D01*
X123767193Y-48232238D01*
X123769500Y-48256047D01*
X123769500Y-48994856D01*
X123769502Y-48994882D01*
X123772413Y-49019987D01*
X123772415Y-49019991D01*
X123817793Y-49122764D01*
X123817794Y-49122765D01*
X123897235Y-49202206D01*
X124000009Y-49247585D01*
X124025135Y-49250500D01*
X125814864Y-49250499D01*
X125814879Y-49250497D01*
X125814882Y-49250497D01*
X125839987Y-49247586D01*
X125839988Y-49247585D01*
X125839991Y-49247585D01*
X125942765Y-49202206D01*
X126022206Y-49122765D01*
X126067585Y-49019991D01*
X126070500Y-48994865D01*
X126070499Y-47497648D01*
X131199500Y-47497648D01*
X131199500Y-47702351D01*
X131231522Y-47904534D01*
X131294781Y-48099223D01*
X131387715Y-48281613D01*
X131508028Y-48447213D01*
X131652786Y-48591971D01*
X131807749Y-48704556D01*
X131818390Y-48712287D01*
X131933782Y-48771082D01*
X132000776Y-48805218D01*
X132000778Y-48805218D01*
X132000781Y-48805220D01*
X132046248Y-48819993D01*
X132195465Y-48868477D01*
X132296557Y-48884488D01*
X132397648Y-48900500D01*
X132397649Y-48900500D01*
X132602351Y-48900500D01*
X132602352Y-48900500D01*
X132804534Y-48868477D01*
X132999219Y-48805220D01*
X133181610Y-48712287D01*
X133300448Y-48625947D01*
X133347213Y-48591971D01*
X133347215Y-48591968D01*
X133347219Y-48591966D01*
X133491966Y-48447219D01*
X133491968Y-48447215D01*
X133491971Y-48447213D01*
X133581335Y-48324212D01*
X133612287Y-48281610D01*
X133705220Y-48099219D01*
X133768477Y-47904534D01*
X133800500Y-47702352D01*
X133800500Y-47497648D01*
X133772615Y-47321593D01*
X133768477Y-47295465D01*
X133705218Y-47100776D01*
X133656484Y-47005131D01*
X133612287Y-46918390D01*
X133604556Y-46907749D01*
X133491971Y-46752786D01*
X133347213Y-46608028D01*
X133181613Y-46487715D01*
X133181612Y-46487714D01*
X133181610Y-46487713D01*
X133124653Y-46458691D01*
X132999223Y-46394781D01*
X132804534Y-46331522D01*
X132629995Y-46303878D01*
X132602352Y-46299500D01*
X132397648Y-46299500D01*
X132373329Y-46303351D01*
X132195465Y-46331522D01*
X132000776Y-46394781D01*
X131818386Y-46487715D01*
X131652786Y-46608028D01*
X131508028Y-46752786D01*
X131387715Y-46918386D01*
X131294781Y-47100776D01*
X131231522Y-47295465D01*
X131199500Y-47497648D01*
X126070499Y-47497648D01*
X126070499Y-47205136D01*
X126070382Y-47204126D01*
X126067586Y-47180012D01*
X126067585Y-47180010D01*
X126067585Y-47180009D01*
X126022206Y-47077235D01*
X125942765Y-46997794D01*
X125922124Y-46988680D01*
X125839992Y-46952415D01*
X125814865Y-46949500D01*
X124025143Y-46949500D01*
X124025117Y-46949502D01*
X124000012Y-46952413D01*
X124000008Y-46952415D01*
X123897235Y-46997793D01*
X123817794Y-47077234D01*
X123772415Y-47180006D01*
X123772415Y-47180008D01*
X123769500Y-47205131D01*
X123769500Y-47943951D01*
X123749815Y-48010990D01*
X123697011Y-48056745D01*
X123627853Y-48066689D01*
X123564297Y-48037664D01*
X123526523Y-47978886D01*
X123522029Y-47955391D01*
X123520465Y-47938515D01*
X123515756Y-47887690D01*
X123457405Y-47682611D01*
X123457403Y-47682606D01*
X123457403Y-47682605D01*
X123362367Y-47491746D01*
X123233872Y-47321593D01*
X123205211Y-47295465D01*
X123076302Y-47177948D01*
X122895019Y-47065702D01*
X122895017Y-47065701D01*
X122738697Y-47005143D01*
X122696198Y-46988679D01*
X122486610Y-46949500D01*
X122273390Y-46949500D01*
X122063802Y-46988679D01*
X122063799Y-46988679D01*
X122063799Y-46988680D01*
X121864982Y-47065701D01*
X121864980Y-47065702D01*
X121683699Y-47177947D01*
X121526127Y-47321593D01*
X121397632Y-47491746D01*
X121302596Y-47682605D01*
X121302596Y-47682607D01*
X121244244Y-47887689D01*
X121233471Y-48003951D01*
X121207685Y-48068888D01*
X121163130Y-48100804D01*
X121054622Y-48100804D01*
X121056869Y-48099194D01*
X121020497Y-48078331D01*
X120988307Y-48016318D01*
X120986529Y-48003951D01*
X120980969Y-47943951D01*
X120975756Y-47887690D01*
X120917405Y-47682611D01*
X120917403Y-47682606D01*
X120917403Y-47682605D01*
X120822367Y-47491746D01*
X120693872Y-47321593D01*
X120665211Y-47295465D01*
X120536302Y-47177948D01*
X120355019Y-47065702D01*
X120355017Y-47065701D01*
X120198697Y-47005143D01*
X120156198Y-46988679D01*
X119946610Y-46949500D01*
X119733390Y-46949500D01*
X119523802Y-46988679D01*
X119523799Y-46988679D01*
X119523799Y-46988680D01*
X119324982Y-47065701D01*
X119324980Y-47065702D01*
X119143699Y-47177947D01*
X118986127Y-47321593D01*
X118857634Y-47491744D01*
X118790676Y-47626215D01*
X118743173Y-47677452D01*
X118675510Y-47694873D01*
X118609170Y-47672947D01*
X118567294Y-47623348D01*
X118473600Y-47422422D01*
X118473599Y-47422420D01*
X118338113Y-47228926D01*
X118338108Y-47228920D01*
X118171082Y-47061894D01*
X117977578Y-46926399D01*
X117763492Y-46826570D01*
X117763486Y-46826567D01*
X117550000Y-46769364D01*
X117550000Y-47666988D01*
X117492993Y-47634075D01*
X117365826Y-47600000D01*
X117234174Y-47600000D01*
X117107007Y-47634075D01*
X117050000Y-47666988D01*
X117050000Y-46769364D01*
X117049999Y-46769364D01*
X116836513Y-46826567D01*
X116836507Y-46826570D01*
X116622422Y-46926399D01*
X116622420Y-46926400D01*
X116428926Y-47061886D01*
X116428920Y-47061891D01*
X116261891Y-47228920D01*
X116261886Y-47228926D01*
X116126400Y-47422420D01*
X116126399Y-47422422D01*
X116026570Y-47636507D01*
X116026567Y-47636513D01*
X115969364Y-47849999D01*
X110640499Y-47849999D01*
X110640499Y-47005136D01*
X110639648Y-46997794D01*
X110637586Y-46980012D01*
X110637585Y-46980010D01*
X110637585Y-46980009D01*
X110592206Y-46877235D01*
X110512765Y-46797794D01*
X110492124Y-46788680D01*
X110409992Y-46752415D01*
X110384865Y-46749500D01*
X108595143Y-46749500D01*
X108595117Y-46749502D01*
X108570012Y-46752413D01*
X108570008Y-46752415D01*
X108467235Y-46797793D01*
X108387794Y-46877234D01*
X108342415Y-46980006D01*
X108342415Y-46980008D01*
X108339500Y-47005131D01*
X108339500Y-47743951D01*
X108319815Y-47810990D01*
X108267011Y-47856745D01*
X108197853Y-47866689D01*
X108134297Y-47837664D01*
X108096523Y-47778886D01*
X108092029Y-47755391D01*
X108085756Y-47687689D01*
X108070501Y-47634075D01*
X108027405Y-47482611D01*
X108027403Y-47482606D01*
X108027403Y-47482605D01*
X107932367Y-47291746D01*
X107803872Y-47121593D01*
X107748995Y-47071566D01*
X107646302Y-46977948D01*
X107465019Y-46865702D01*
X107465017Y-46865701D01*
X107363999Y-46826567D01*
X107266198Y-46788679D01*
X107056610Y-46749500D01*
X106843390Y-46749500D01*
X106633802Y-46788679D01*
X106633799Y-46788679D01*
X106633799Y-46788680D01*
X106434982Y-46865701D01*
X106434980Y-46865702D01*
X106253699Y-46977947D01*
X106096127Y-47121593D01*
X105967632Y-47291746D01*
X105872596Y-47482605D01*
X105872596Y-47482607D01*
X105814244Y-47687689D01*
X105803471Y-47803951D01*
X105777685Y-47868888D01*
X105733130Y-47900804D01*
X105624622Y-47900804D01*
X105626869Y-47899194D01*
X105590497Y-47878331D01*
X105558307Y-47816318D01*
X105556529Y-47803951D01*
X105550689Y-47740931D01*
X105545756Y-47687690D01*
X105487405Y-47482611D01*
X105487403Y-47482606D01*
X105487403Y-47482605D01*
X105392367Y-47291746D01*
X105263872Y-47121593D01*
X105208995Y-47071566D01*
X105106302Y-46977948D01*
X104925019Y-46865702D01*
X104925017Y-46865701D01*
X104823999Y-46826567D01*
X104726198Y-46788679D01*
X104516610Y-46749500D01*
X104303390Y-46749500D01*
X104093802Y-46788679D01*
X104093799Y-46788679D01*
X104093799Y-46788680D01*
X103894982Y-46865701D01*
X103894980Y-46865702D01*
X103713699Y-46977947D01*
X103556127Y-47121593D01*
X103427634Y-47291744D01*
X103360676Y-47426215D01*
X103313173Y-47477452D01*
X103245510Y-47494873D01*
X103179170Y-47472947D01*
X103137294Y-47423348D01*
X103043600Y-47222422D01*
X103043599Y-47222420D01*
X102908113Y-47028926D01*
X102908108Y-47028920D01*
X102741082Y-46861894D01*
X102547578Y-46726399D01*
X102333492Y-46626570D01*
X102333486Y-46626567D01*
X102120000Y-46569364D01*
X102120000Y-47466988D01*
X102062993Y-47434075D01*
X101935826Y-47400000D01*
X101804174Y-47400000D01*
X101677007Y-47434075D01*
X101620000Y-47466988D01*
X101620000Y-46569364D01*
X101619999Y-46569364D01*
X101406513Y-46626567D01*
X101406507Y-46626570D01*
X101192422Y-46726399D01*
X101192420Y-46726400D01*
X100998926Y-46861886D01*
X100998920Y-46861891D01*
X100831891Y-47028920D01*
X100831886Y-47028926D01*
X100696400Y-47222420D01*
X100696399Y-47222422D01*
X100596570Y-47436507D01*
X100596567Y-47436513D01*
X100539364Y-47649999D01*
X94003704Y-47649999D01*
X94003704Y-47531629D01*
X93982770Y-47399457D01*
X93971681Y-47329446D01*
X93931290Y-47205136D01*
X93908424Y-47134762D01*
X93908422Y-47134759D01*
X93908422Y-47134757D01*
X93871292Y-47061886D01*
X93815491Y-46952371D01*
X93796622Y-46926400D01*
X93695175Y-46786767D01*
X93550417Y-46642009D01*
X93384817Y-46521696D01*
X93384816Y-46521695D01*
X93384814Y-46521694D01*
X93318123Y-46487713D01*
X93202427Y-46428762D01*
X93007738Y-46365503D01*
X92830747Y-46337471D01*
X92805556Y-46333481D01*
X92600852Y-46333481D01*
X92576533Y-46337332D01*
X92398669Y-46365503D01*
X92203980Y-46428762D01*
X92021590Y-46521696D01*
X91855990Y-46642009D01*
X91711232Y-46786767D01*
X91590919Y-46952367D01*
X91497985Y-47134757D01*
X91434726Y-47329446D01*
X91402704Y-47531629D01*
X90409916Y-47531629D01*
X90415713Y-47399446D01*
X90417320Y-47384267D01*
X90461950Y-47119794D01*
X90465411Y-47104931D01*
X90542243Y-46847946D01*
X90547513Y-46833610D01*
X90655375Y-46588043D01*
X90662362Y-46574476D01*
X90799623Y-46344034D01*
X90808218Y-46331440D01*
X90972796Y-46119630D01*
X90982881Y-46108183D01*
X91172258Y-45918240D01*
X91183678Y-45908118D01*
X91394995Y-45742912D01*
X91407562Y-45734280D01*
X91637595Y-45596330D01*
X91651140Y-45589303D01*
X91896403Y-45480702D01*
X91910703Y-45475398D01*
X92167452Y-45397801D01*
X92182309Y-45394294D01*
X92427135Y-45352228D01*
X92447954Y-45350440D01*
X132380255Y-45300957D01*
X132392010Y-45301616D01*
X132393051Y-45301597D01*
X132393054Y-45301598D01*
X132431555Y-45300910D01*
X132433434Y-45300891D01*
X132465887Y-45300851D01*
X132471430Y-45300969D01*
G37*
%TD.AperFunction*%
%TD*%
M02*
