%TF.GenerationSoftware,KiCad,Pcbnew,8.0.8*%
%TF.CreationDate,2025-03-31T20:29:26+08:00*%
%TF.ProjectId,1,312e6b69-6361-4645-9f70-636258585858,rev?*%
%TF.SameCoordinates,Original*%
%TF.FileFunction,Legend,Top*%
%TF.FilePolarity,Positive*%
%FSLAX46Y46*%
G04 Gerber Fmt 4.6, Leading zero omitted, Abs format (unit mm)*
G04 Created by KiCad (PCBNEW 8.0.8) date 2025-03-31 20:29:26*
%MOMM*%
%LPD*%
G01*
G04 APERTURE LIST*
%ADD10C,0.100000*%
%ADD11C,0.150000*%
%ADD12C,0.120000*%
G04 APERTURE END LIST*
D10*
X132353884Y-55522419D02*
X132353884Y-56331942D01*
X132353884Y-56331942D02*
X132401503Y-56427180D01*
X132401503Y-56427180D02*
X132449122Y-56474800D01*
X132449122Y-56474800D02*
X132544360Y-56522419D01*
X132544360Y-56522419D02*
X132734836Y-56522419D01*
X132734836Y-56522419D02*
X132830074Y-56474800D01*
X132830074Y-56474800D02*
X132877693Y-56427180D01*
X132877693Y-56427180D02*
X132925312Y-56331942D01*
X132925312Y-56331942D02*
X132925312Y-55522419D01*
X133353884Y-56474800D02*
X133496741Y-56522419D01*
X133496741Y-56522419D02*
X133734836Y-56522419D01*
X133734836Y-56522419D02*
X133830074Y-56474800D01*
X133830074Y-56474800D02*
X133877693Y-56427180D01*
X133877693Y-56427180D02*
X133925312Y-56331942D01*
X133925312Y-56331942D02*
X133925312Y-56236704D01*
X133925312Y-56236704D02*
X133877693Y-56141466D01*
X133877693Y-56141466D02*
X133830074Y-56093847D01*
X133830074Y-56093847D02*
X133734836Y-56046228D01*
X133734836Y-56046228D02*
X133544360Y-55998609D01*
X133544360Y-55998609D02*
X133449122Y-55950990D01*
X133449122Y-55950990D02*
X133401503Y-55903371D01*
X133401503Y-55903371D02*
X133353884Y-55808133D01*
X133353884Y-55808133D02*
X133353884Y-55712895D01*
X133353884Y-55712895D02*
X133401503Y-55617657D01*
X133401503Y-55617657D02*
X133449122Y-55570038D01*
X133449122Y-55570038D02*
X133544360Y-55522419D01*
X133544360Y-55522419D02*
X133782455Y-55522419D01*
X133782455Y-55522419D02*
X133925312Y-55570038D01*
X134687217Y-55998609D02*
X134830074Y-56046228D01*
X134830074Y-56046228D02*
X134877693Y-56093847D01*
X134877693Y-56093847D02*
X134925312Y-56189085D01*
X134925312Y-56189085D02*
X134925312Y-56331942D01*
X134925312Y-56331942D02*
X134877693Y-56427180D01*
X134877693Y-56427180D02*
X134830074Y-56474800D01*
X134830074Y-56474800D02*
X134734836Y-56522419D01*
X134734836Y-56522419D02*
X134353884Y-56522419D01*
X134353884Y-56522419D02*
X134353884Y-55522419D01*
X134353884Y-55522419D02*
X134687217Y-55522419D01*
X134687217Y-55522419D02*
X134782455Y-55570038D01*
X134782455Y-55570038D02*
X134830074Y-55617657D01*
X134830074Y-55617657D02*
X134877693Y-55712895D01*
X134877693Y-55712895D02*
X134877693Y-55808133D01*
X134877693Y-55808133D02*
X134830074Y-55903371D01*
X134830074Y-55903371D02*
X134782455Y-55950990D01*
X134782455Y-55950990D02*
X134687217Y-55998609D01*
X134687217Y-55998609D02*
X134353884Y-55998609D01*
X116206265Y-50924800D02*
X116349122Y-50972419D01*
X116349122Y-50972419D02*
X116587217Y-50972419D01*
X116587217Y-50972419D02*
X116682455Y-50924800D01*
X116682455Y-50924800D02*
X116730074Y-50877180D01*
X116730074Y-50877180D02*
X116777693Y-50781942D01*
X116777693Y-50781942D02*
X116777693Y-50686704D01*
X116777693Y-50686704D02*
X116730074Y-50591466D01*
X116730074Y-50591466D02*
X116682455Y-50543847D01*
X116682455Y-50543847D02*
X116587217Y-50496228D01*
X116587217Y-50496228D02*
X116396741Y-50448609D01*
X116396741Y-50448609D02*
X116301503Y-50400990D01*
X116301503Y-50400990D02*
X116253884Y-50353371D01*
X116253884Y-50353371D02*
X116206265Y-50258133D01*
X116206265Y-50258133D02*
X116206265Y-50162895D01*
X116206265Y-50162895D02*
X116253884Y-50067657D01*
X116253884Y-50067657D02*
X116301503Y-50020038D01*
X116301503Y-50020038D02*
X116396741Y-49972419D01*
X116396741Y-49972419D02*
X116634836Y-49972419D01*
X116634836Y-49972419D02*
X116777693Y-50020038D01*
X117111027Y-49972419D02*
X117349122Y-50972419D01*
X117349122Y-50972419D02*
X117539598Y-50258133D01*
X117539598Y-50258133D02*
X117730074Y-50972419D01*
X117730074Y-50972419D02*
X117968170Y-49972419D01*
X118349122Y-50972419D02*
X118349122Y-49972419D01*
X118349122Y-49972419D02*
X118587217Y-49972419D01*
X118587217Y-49972419D02*
X118730074Y-50020038D01*
X118730074Y-50020038D02*
X118825312Y-50115276D01*
X118825312Y-50115276D02*
X118872931Y-50210514D01*
X118872931Y-50210514D02*
X118920550Y-50400990D01*
X118920550Y-50400990D02*
X118920550Y-50543847D01*
X118920550Y-50543847D02*
X118872931Y-50734323D01*
X118872931Y-50734323D02*
X118825312Y-50829561D01*
X118825312Y-50829561D02*
X118730074Y-50924800D01*
X118730074Y-50924800D02*
X118587217Y-50972419D01*
X118587217Y-50972419D02*
X118349122Y-50972419D01*
X112853884Y-82872419D02*
X112853884Y-81872419D01*
X113282455Y-81967657D02*
X113330074Y-81920038D01*
X113330074Y-81920038D02*
X113425312Y-81872419D01*
X113425312Y-81872419D02*
X113663407Y-81872419D01*
X113663407Y-81872419D02*
X113758645Y-81920038D01*
X113758645Y-81920038D02*
X113806264Y-81967657D01*
X113806264Y-81967657D02*
X113853883Y-82062895D01*
X113853883Y-82062895D02*
X113853883Y-82158133D01*
X113853883Y-82158133D02*
X113806264Y-82300990D01*
X113806264Y-82300990D02*
X113234836Y-82872419D01*
X113234836Y-82872419D02*
X113853883Y-82872419D01*
X114853883Y-82777180D02*
X114806264Y-82824800D01*
X114806264Y-82824800D02*
X114663407Y-82872419D01*
X114663407Y-82872419D02*
X114568169Y-82872419D01*
X114568169Y-82872419D02*
X114425312Y-82824800D01*
X114425312Y-82824800D02*
X114330074Y-82729561D01*
X114330074Y-82729561D02*
X114282455Y-82634323D01*
X114282455Y-82634323D02*
X114234836Y-82443847D01*
X114234836Y-82443847D02*
X114234836Y-82300990D01*
X114234836Y-82300990D02*
X114282455Y-82110514D01*
X114282455Y-82110514D02*
X114330074Y-82015276D01*
X114330074Y-82015276D02*
X114425312Y-81920038D01*
X114425312Y-81920038D02*
X114568169Y-81872419D01*
X114568169Y-81872419D02*
X114663407Y-81872419D01*
X114663407Y-81872419D02*
X114806264Y-81920038D01*
X114806264Y-81920038D02*
X114853883Y-81967657D01*
X100203884Y-49922419D02*
X100203884Y-50731942D01*
X100203884Y-50731942D02*
X100251503Y-50827180D01*
X100251503Y-50827180D02*
X100299122Y-50874800D01*
X100299122Y-50874800D02*
X100394360Y-50922419D01*
X100394360Y-50922419D02*
X100584836Y-50922419D01*
X100584836Y-50922419D02*
X100680074Y-50874800D01*
X100680074Y-50874800D02*
X100727693Y-50827180D01*
X100727693Y-50827180D02*
X100775312Y-50731942D01*
X100775312Y-50731942D02*
X100775312Y-49922419D01*
X101203884Y-50636704D02*
X101680074Y-50636704D01*
X101108646Y-50922419D02*
X101441979Y-49922419D01*
X101441979Y-49922419D02*
X101775312Y-50922419D01*
X102680074Y-50922419D02*
X102346741Y-50446228D01*
X102108646Y-50922419D02*
X102108646Y-49922419D01*
X102108646Y-49922419D02*
X102489598Y-49922419D01*
X102489598Y-49922419D02*
X102584836Y-49970038D01*
X102584836Y-49970038D02*
X102632455Y-50017657D01*
X102632455Y-50017657D02*
X102680074Y-50112895D01*
X102680074Y-50112895D02*
X102680074Y-50255752D01*
X102680074Y-50255752D02*
X102632455Y-50350990D01*
X102632455Y-50350990D02*
X102584836Y-50398609D01*
X102584836Y-50398609D02*
X102489598Y-50446228D01*
X102489598Y-50446228D02*
X102108646Y-50446228D01*
X102965789Y-49922419D02*
X103537217Y-49922419D01*
X103251503Y-50922419D02*
X103251503Y-49922419D01*
X90987217Y-61798609D02*
X91130074Y-61846228D01*
X91130074Y-61846228D02*
X91177693Y-61893847D01*
X91177693Y-61893847D02*
X91225312Y-61989085D01*
X91225312Y-61989085D02*
X91225312Y-62131942D01*
X91225312Y-62131942D02*
X91177693Y-62227180D01*
X91177693Y-62227180D02*
X91130074Y-62274800D01*
X91130074Y-62274800D02*
X91034836Y-62322419D01*
X91034836Y-62322419D02*
X90653884Y-62322419D01*
X90653884Y-62322419D02*
X90653884Y-61322419D01*
X90653884Y-61322419D02*
X90987217Y-61322419D01*
X90987217Y-61322419D02*
X91082455Y-61370038D01*
X91082455Y-61370038D02*
X91130074Y-61417657D01*
X91130074Y-61417657D02*
X91177693Y-61512895D01*
X91177693Y-61512895D02*
X91177693Y-61608133D01*
X91177693Y-61608133D02*
X91130074Y-61703371D01*
X91130074Y-61703371D02*
X91082455Y-61750990D01*
X91082455Y-61750990D02*
X90987217Y-61798609D01*
X90987217Y-61798609D02*
X90653884Y-61798609D01*
X91844360Y-61322419D02*
X92034836Y-61322419D01*
X92034836Y-61322419D02*
X92130074Y-61370038D01*
X92130074Y-61370038D02*
X92225312Y-61465276D01*
X92225312Y-61465276D02*
X92272931Y-61655752D01*
X92272931Y-61655752D02*
X92272931Y-61989085D01*
X92272931Y-61989085D02*
X92225312Y-62179561D01*
X92225312Y-62179561D02*
X92130074Y-62274800D01*
X92130074Y-62274800D02*
X92034836Y-62322419D01*
X92034836Y-62322419D02*
X91844360Y-62322419D01*
X91844360Y-62322419D02*
X91749122Y-62274800D01*
X91749122Y-62274800D02*
X91653884Y-62179561D01*
X91653884Y-62179561D02*
X91606265Y-61989085D01*
X91606265Y-61989085D02*
X91606265Y-61655752D01*
X91606265Y-61655752D02*
X91653884Y-61465276D01*
X91653884Y-61465276D02*
X91749122Y-61370038D01*
X91749122Y-61370038D02*
X91844360Y-61322419D01*
X92891979Y-61322419D02*
X93082455Y-61322419D01*
X93082455Y-61322419D02*
X93177693Y-61370038D01*
X93177693Y-61370038D02*
X93272931Y-61465276D01*
X93272931Y-61465276D02*
X93320550Y-61655752D01*
X93320550Y-61655752D02*
X93320550Y-61989085D01*
X93320550Y-61989085D02*
X93272931Y-62179561D01*
X93272931Y-62179561D02*
X93177693Y-62274800D01*
X93177693Y-62274800D02*
X93082455Y-62322419D01*
X93082455Y-62322419D02*
X92891979Y-62322419D01*
X92891979Y-62322419D02*
X92796741Y-62274800D01*
X92796741Y-62274800D02*
X92701503Y-62179561D01*
X92701503Y-62179561D02*
X92653884Y-61989085D01*
X92653884Y-61989085D02*
X92653884Y-61655752D01*
X92653884Y-61655752D02*
X92701503Y-61465276D01*
X92701503Y-61465276D02*
X92796741Y-61370038D01*
X92796741Y-61370038D02*
X92891979Y-61322419D01*
X93606265Y-61322419D02*
X94177693Y-61322419D01*
X93891979Y-62322419D02*
X93891979Y-61322419D01*
D11*
X96278628Y-62776190D02*
X96754819Y-62776190D01*
X95754819Y-63109523D02*
X96278628Y-62776190D01*
X96278628Y-62776190D02*
X95754819Y-62442857D01*
X96754819Y-61585714D02*
X96754819Y-62157142D01*
X96754819Y-61871428D02*
X95754819Y-61871428D01*
X95754819Y-61871428D02*
X95897676Y-61966666D01*
X95897676Y-61966666D02*
X95992914Y-62061904D01*
X95992914Y-62061904D02*
X96040533Y-62157142D01*
X108220833Y-54579580D02*
X108173214Y-54627200D01*
X108173214Y-54627200D02*
X108030357Y-54674819D01*
X108030357Y-54674819D02*
X107935119Y-54674819D01*
X107935119Y-54674819D02*
X107792262Y-54627200D01*
X107792262Y-54627200D02*
X107697024Y-54531961D01*
X107697024Y-54531961D02*
X107649405Y-54436723D01*
X107649405Y-54436723D02*
X107601786Y-54246247D01*
X107601786Y-54246247D02*
X107601786Y-54103390D01*
X107601786Y-54103390D02*
X107649405Y-53912914D01*
X107649405Y-53912914D02*
X107697024Y-53817676D01*
X107697024Y-53817676D02*
X107792262Y-53722438D01*
X107792262Y-53722438D02*
X107935119Y-53674819D01*
X107935119Y-53674819D02*
X108030357Y-53674819D01*
X108030357Y-53674819D02*
X108173214Y-53722438D01*
X108173214Y-53722438D02*
X108220833Y-53770057D01*
X109125595Y-53674819D02*
X108649405Y-53674819D01*
X108649405Y-53674819D02*
X108601786Y-54151009D01*
X108601786Y-54151009D02*
X108649405Y-54103390D01*
X108649405Y-54103390D02*
X108744643Y-54055771D01*
X108744643Y-54055771D02*
X108982738Y-54055771D01*
X108982738Y-54055771D02*
X109077976Y-54103390D01*
X109077976Y-54103390D02*
X109125595Y-54151009D01*
X109125595Y-54151009D02*
X109173214Y-54246247D01*
X109173214Y-54246247D02*
X109173214Y-54484342D01*
X109173214Y-54484342D02*
X109125595Y-54579580D01*
X109125595Y-54579580D02*
X109077976Y-54627200D01*
X109077976Y-54627200D02*
X108982738Y-54674819D01*
X108982738Y-54674819D02*
X108744643Y-54674819D01*
X108744643Y-54674819D02*
X108649405Y-54627200D01*
X108649405Y-54627200D02*
X108601786Y-54579580D01*
X99824819Y-82633333D02*
X100539104Y-82633333D01*
X100539104Y-82633333D02*
X100681961Y-82680952D01*
X100681961Y-82680952D02*
X100777200Y-82776190D01*
X100777200Y-82776190D02*
X100824819Y-82919047D01*
X100824819Y-82919047D02*
X100824819Y-83014285D01*
X100158152Y-81728571D02*
X100824819Y-81728571D01*
X99777200Y-81966666D02*
X100491485Y-82204761D01*
X100491485Y-82204761D02*
X100491485Y-81585714D01*
X110100595Y-56904819D02*
X110100595Y-57714342D01*
X110100595Y-57714342D02*
X110148214Y-57809580D01*
X110148214Y-57809580D02*
X110195833Y-57857200D01*
X110195833Y-57857200D02*
X110291071Y-57904819D01*
X110291071Y-57904819D02*
X110481547Y-57904819D01*
X110481547Y-57904819D02*
X110576785Y-57857200D01*
X110576785Y-57857200D02*
X110624404Y-57809580D01*
X110624404Y-57809580D02*
X110672023Y-57714342D01*
X110672023Y-57714342D02*
X110672023Y-56904819D01*
X111672023Y-57904819D02*
X111100595Y-57904819D01*
X111386309Y-57904819D02*
X111386309Y-56904819D01*
X111386309Y-56904819D02*
X111291071Y-57047676D01*
X111291071Y-57047676D02*
X111195833Y-57142914D01*
X111195833Y-57142914D02*
X111100595Y-57190533D01*
X117707142Y-67009580D02*
X117659523Y-67057200D01*
X117659523Y-67057200D02*
X117516666Y-67104819D01*
X117516666Y-67104819D02*
X117421428Y-67104819D01*
X117421428Y-67104819D02*
X117278571Y-67057200D01*
X117278571Y-67057200D02*
X117183333Y-66961961D01*
X117183333Y-66961961D02*
X117135714Y-66866723D01*
X117135714Y-66866723D02*
X117088095Y-66676247D01*
X117088095Y-66676247D02*
X117088095Y-66533390D01*
X117088095Y-66533390D02*
X117135714Y-66342914D01*
X117135714Y-66342914D02*
X117183333Y-66247676D01*
X117183333Y-66247676D02*
X117278571Y-66152438D01*
X117278571Y-66152438D02*
X117421428Y-66104819D01*
X117421428Y-66104819D02*
X117516666Y-66104819D01*
X117516666Y-66104819D02*
X117659523Y-66152438D01*
X117659523Y-66152438D02*
X117707142Y-66200057D01*
X118659523Y-67104819D02*
X118088095Y-67104819D01*
X118373809Y-67104819D02*
X118373809Y-66104819D01*
X118373809Y-66104819D02*
X118278571Y-66247676D01*
X118278571Y-66247676D02*
X118183333Y-66342914D01*
X118183333Y-66342914D02*
X118088095Y-66390533D01*
X119040476Y-66200057D02*
X119088095Y-66152438D01*
X119088095Y-66152438D02*
X119183333Y-66104819D01*
X119183333Y-66104819D02*
X119421428Y-66104819D01*
X119421428Y-66104819D02*
X119516666Y-66152438D01*
X119516666Y-66152438D02*
X119564285Y-66200057D01*
X119564285Y-66200057D02*
X119611904Y-66295295D01*
X119611904Y-66295295D02*
X119611904Y-66390533D01*
X119611904Y-66390533D02*
X119564285Y-66533390D01*
X119564285Y-66533390D02*
X118992857Y-67104819D01*
X118992857Y-67104819D02*
X119611904Y-67104819D01*
X126407142Y-70259580D02*
X126359523Y-70307200D01*
X126359523Y-70307200D02*
X126216666Y-70354819D01*
X126216666Y-70354819D02*
X126121428Y-70354819D01*
X126121428Y-70354819D02*
X125978571Y-70307200D01*
X125978571Y-70307200D02*
X125883333Y-70211961D01*
X125883333Y-70211961D02*
X125835714Y-70116723D01*
X125835714Y-70116723D02*
X125788095Y-69926247D01*
X125788095Y-69926247D02*
X125788095Y-69783390D01*
X125788095Y-69783390D02*
X125835714Y-69592914D01*
X125835714Y-69592914D02*
X125883333Y-69497676D01*
X125883333Y-69497676D02*
X125978571Y-69402438D01*
X125978571Y-69402438D02*
X126121428Y-69354819D01*
X126121428Y-69354819D02*
X126216666Y-69354819D01*
X126216666Y-69354819D02*
X126359523Y-69402438D01*
X126359523Y-69402438D02*
X126407142Y-69450057D01*
X127359523Y-70354819D02*
X126788095Y-70354819D01*
X127073809Y-70354819D02*
X127073809Y-69354819D01*
X127073809Y-69354819D02*
X126978571Y-69497676D01*
X126978571Y-69497676D02*
X126883333Y-69592914D01*
X126883333Y-69592914D02*
X126788095Y-69640533D01*
X127692857Y-69354819D02*
X128311904Y-69354819D01*
X128311904Y-69354819D02*
X127978571Y-69735771D01*
X127978571Y-69735771D02*
X128121428Y-69735771D01*
X128121428Y-69735771D02*
X128216666Y-69783390D01*
X128216666Y-69783390D02*
X128264285Y-69831009D01*
X128264285Y-69831009D02*
X128311904Y-69926247D01*
X128311904Y-69926247D02*
X128311904Y-70164342D01*
X128311904Y-70164342D02*
X128264285Y-70259580D01*
X128264285Y-70259580D02*
X128216666Y-70307200D01*
X128216666Y-70307200D02*
X128121428Y-70354819D01*
X128121428Y-70354819D02*
X127835714Y-70354819D01*
X127835714Y-70354819D02*
X127740476Y-70307200D01*
X127740476Y-70307200D02*
X127692857Y-70259580D01*
X117483333Y-59559580D02*
X117435714Y-59607200D01*
X117435714Y-59607200D02*
X117292857Y-59654819D01*
X117292857Y-59654819D02*
X117197619Y-59654819D01*
X117197619Y-59654819D02*
X117054762Y-59607200D01*
X117054762Y-59607200D02*
X116959524Y-59511961D01*
X116959524Y-59511961D02*
X116911905Y-59416723D01*
X116911905Y-59416723D02*
X116864286Y-59226247D01*
X116864286Y-59226247D02*
X116864286Y-59083390D01*
X116864286Y-59083390D02*
X116911905Y-58892914D01*
X116911905Y-58892914D02*
X116959524Y-58797676D01*
X116959524Y-58797676D02*
X117054762Y-58702438D01*
X117054762Y-58702438D02*
X117197619Y-58654819D01*
X117197619Y-58654819D02*
X117292857Y-58654819D01*
X117292857Y-58654819D02*
X117435714Y-58702438D01*
X117435714Y-58702438D02*
X117483333Y-58750057D01*
X117864286Y-58750057D02*
X117911905Y-58702438D01*
X117911905Y-58702438D02*
X118007143Y-58654819D01*
X118007143Y-58654819D02*
X118245238Y-58654819D01*
X118245238Y-58654819D02*
X118340476Y-58702438D01*
X118340476Y-58702438D02*
X118388095Y-58750057D01*
X118388095Y-58750057D02*
X118435714Y-58845295D01*
X118435714Y-58845295D02*
X118435714Y-58940533D01*
X118435714Y-58940533D02*
X118388095Y-59083390D01*
X118388095Y-59083390D02*
X117816667Y-59654819D01*
X117816667Y-59654819D02*
X118435714Y-59654819D01*
X121333333Y-60144819D02*
X121000000Y-59668628D01*
X120761905Y-60144819D02*
X120761905Y-59144819D01*
X120761905Y-59144819D02*
X121142857Y-59144819D01*
X121142857Y-59144819D02*
X121238095Y-59192438D01*
X121238095Y-59192438D02*
X121285714Y-59240057D01*
X121285714Y-59240057D02*
X121333333Y-59335295D01*
X121333333Y-59335295D02*
X121333333Y-59478152D01*
X121333333Y-59478152D02*
X121285714Y-59573390D01*
X121285714Y-59573390D02*
X121238095Y-59621009D01*
X121238095Y-59621009D02*
X121142857Y-59668628D01*
X121142857Y-59668628D02*
X120761905Y-59668628D01*
X121714286Y-59240057D02*
X121761905Y-59192438D01*
X121761905Y-59192438D02*
X121857143Y-59144819D01*
X121857143Y-59144819D02*
X122095238Y-59144819D01*
X122095238Y-59144819D02*
X122190476Y-59192438D01*
X122190476Y-59192438D02*
X122238095Y-59240057D01*
X122238095Y-59240057D02*
X122285714Y-59335295D01*
X122285714Y-59335295D02*
X122285714Y-59430533D01*
X122285714Y-59430533D02*
X122238095Y-59573390D01*
X122238095Y-59573390D02*
X121666667Y-60144819D01*
X121666667Y-60144819D02*
X122285714Y-60144819D01*
X102733333Y-78854819D02*
X102400000Y-78378628D01*
X102161905Y-78854819D02*
X102161905Y-77854819D01*
X102161905Y-77854819D02*
X102542857Y-77854819D01*
X102542857Y-77854819D02*
X102638095Y-77902438D01*
X102638095Y-77902438D02*
X102685714Y-77950057D01*
X102685714Y-77950057D02*
X102733333Y-78045295D01*
X102733333Y-78045295D02*
X102733333Y-78188152D01*
X102733333Y-78188152D02*
X102685714Y-78283390D01*
X102685714Y-78283390D02*
X102638095Y-78331009D01*
X102638095Y-78331009D02*
X102542857Y-78378628D01*
X102542857Y-78378628D02*
X102161905Y-78378628D01*
X103590476Y-78188152D02*
X103590476Y-78854819D01*
X103352381Y-77807200D02*
X103114286Y-78521485D01*
X103114286Y-78521485D02*
X103733333Y-78521485D01*
X103833333Y-58779580D02*
X103785714Y-58827200D01*
X103785714Y-58827200D02*
X103642857Y-58874819D01*
X103642857Y-58874819D02*
X103547619Y-58874819D01*
X103547619Y-58874819D02*
X103404762Y-58827200D01*
X103404762Y-58827200D02*
X103309524Y-58731961D01*
X103309524Y-58731961D02*
X103261905Y-58636723D01*
X103261905Y-58636723D02*
X103214286Y-58446247D01*
X103214286Y-58446247D02*
X103214286Y-58303390D01*
X103214286Y-58303390D02*
X103261905Y-58112914D01*
X103261905Y-58112914D02*
X103309524Y-58017676D01*
X103309524Y-58017676D02*
X103404762Y-57922438D01*
X103404762Y-57922438D02*
X103547619Y-57874819D01*
X103547619Y-57874819D02*
X103642857Y-57874819D01*
X103642857Y-57874819D02*
X103785714Y-57922438D01*
X103785714Y-57922438D02*
X103833333Y-57970057D01*
X104690476Y-58208152D02*
X104690476Y-58874819D01*
X104452381Y-57827200D02*
X104214286Y-58541485D01*
X104214286Y-58541485D02*
X104833333Y-58541485D01*
X111966666Y-47604819D02*
X111966666Y-48319104D01*
X111966666Y-48319104D02*
X111919047Y-48461961D01*
X111919047Y-48461961D02*
X111823809Y-48557200D01*
X111823809Y-48557200D02*
X111680952Y-48604819D01*
X111680952Y-48604819D02*
X111585714Y-48604819D01*
X112347619Y-47604819D02*
X112966666Y-47604819D01*
X112966666Y-47604819D02*
X112633333Y-47985771D01*
X112633333Y-47985771D02*
X112776190Y-47985771D01*
X112776190Y-47985771D02*
X112871428Y-48033390D01*
X112871428Y-48033390D02*
X112919047Y-48081009D01*
X112919047Y-48081009D02*
X112966666Y-48176247D01*
X112966666Y-48176247D02*
X112966666Y-48414342D01*
X112966666Y-48414342D02*
X112919047Y-48509580D01*
X112919047Y-48509580D02*
X112871428Y-48557200D01*
X112871428Y-48557200D02*
X112776190Y-48604819D01*
X112776190Y-48604819D02*
X112490476Y-48604819D01*
X112490476Y-48604819D02*
X112395238Y-48557200D01*
X112395238Y-48557200D02*
X112347619Y-48509580D01*
X133383333Y-69954819D02*
X133050000Y-69478628D01*
X132811905Y-69954819D02*
X132811905Y-68954819D01*
X132811905Y-68954819D02*
X133192857Y-68954819D01*
X133192857Y-68954819D02*
X133288095Y-69002438D01*
X133288095Y-69002438D02*
X133335714Y-69050057D01*
X133335714Y-69050057D02*
X133383333Y-69145295D01*
X133383333Y-69145295D02*
X133383333Y-69288152D01*
X133383333Y-69288152D02*
X133335714Y-69383390D01*
X133335714Y-69383390D02*
X133288095Y-69431009D01*
X133288095Y-69431009D02*
X133192857Y-69478628D01*
X133192857Y-69478628D02*
X132811905Y-69478628D01*
X133716667Y-68954819D02*
X134335714Y-68954819D01*
X134335714Y-68954819D02*
X134002381Y-69335771D01*
X134002381Y-69335771D02*
X134145238Y-69335771D01*
X134145238Y-69335771D02*
X134240476Y-69383390D01*
X134240476Y-69383390D02*
X134288095Y-69431009D01*
X134288095Y-69431009D02*
X134335714Y-69526247D01*
X134335714Y-69526247D02*
X134335714Y-69764342D01*
X134335714Y-69764342D02*
X134288095Y-69859580D01*
X134288095Y-69859580D02*
X134240476Y-69907200D01*
X134240476Y-69907200D02*
X134145238Y-69954819D01*
X134145238Y-69954819D02*
X133859524Y-69954819D01*
X133859524Y-69954819D02*
X133764286Y-69907200D01*
X133764286Y-69907200D02*
X133716667Y-69859580D01*
X105166666Y-70781009D02*
X104833333Y-70781009D01*
X104833333Y-71304819D02*
X104833333Y-70304819D01*
X104833333Y-70304819D02*
X105309523Y-70304819D01*
X106023809Y-70781009D02*
X106166666Y-70828628D01*
X106166666Y-70828628D02*
X106214285Y-70876247D01*
X106214285Y-70876247D02*
X106261904Y-70971485D01*
X106261904Y-70971485D02*
X106261904Y-71114342D01*
X106261904Y-71114342D02*
X106214285Y-71209580D01*
X106214285Y-71209580D02*
X106166666Y-71257200D01*
X106166666Y-71257200D02*
X106071428Y-71304819D01*
X106071428Y-71304819D02*
X105690476Y-71304819D01*
X105690476Y-71304819D02*
X105690476Y-70304819D01*
X105690476Y-70304819D02*
X106023809Y-70304819D01*
X106023809Y-70304819D02*
X106119047Y-70352438D01*
X106119047Y-70352438D02*
X106166666Y-70400057D01*
X106166666Y-70400057D02*
X106214285Y-70495295D01*
X106214285Y-70495295D02*
X106214285Y-70590533D01*
X106214285Y-70590533D02*
X106166666Y-70685771D01*
X106166666Y-70685771D02*
X106119047Y-70733390D01*
X106119047Y-70733390D02*
X106023809Y-70781009D01*
X106023809Y-70781009D02*
X105690476Y-70781009D01*
X107214285Y-71304819D02*
X106642857Y-71304819D01*
X106928571Y-71304819D02*
X106928571Y-70304819D01*
X106928571Y-70304819D02*
X106833333Y-70447676D01*
X106833333Y-70447676D02*
X106738095Y-70542914D01*
X106738095Y-70542914D02*
X106642857Y-70590533D01*
X127504819Y-62233333D02*
X128219104Y-62233333D01*
X128219104Y-62233333D02*
X128361961Y-62280952D01*
X128361961Y-62280952D02*
X128457200Y-62376190D01*
X128457200Y-62376190D02*
X128504819Y-62519047D01*
X128504819Y-62519047D02*
X128504819Y-62614285D01*
X128504819Y-61233333D02*
X128504819Y-61804761D01*
X128504819Y-61519047D02*
X127504819Y-61519047D01*
X127504819Y-61519047D02*
X127647676Y-61614285D01*
X127647676Y-61614285D02*
X127742914Y-61709523D01*
X127742914Y-61709523D02*
X127790533Y-61804761D01*
X104333333Y-66479580D02*
X104285714Y-66527200D01*
X104285714Y-66527200D02*
X104142857Y-66574819D01*
X104142857Y-66574819D02*
X104047619Y-66574819D01*
X104047619Y-66574819D02*
X103904762Y-66527200D01*
X103904762Y-66527200D02*
X103809524Y-66431961D01*
X103809524Y-66431961D02*
X103761905Y-66336723D01*
X103761905Y-66336723D02*
X103714286Y-66146247D01*
X103714286Y-66146247D02*
X103714286Y-66003390D01*
X103714286Y-66003390D02*
X103761905Y-65812914D01*
X103761905Y-65812914D02*
X103809524Y-65717676D01*
X103809524Y-65717676D02*
X103904762Y-65622438D01*
X103904762Y-65622438D02*
X104047619Y-65574819D01*
X104047619Y-65574819D02*
X104142857Y-65574819D01*
X104142857Y-65574819D02*
X104285714Y-65622438D01*
X104285714Y-65622438D02*
X104333333Y-65670057D01*
X105190476Y-65574819D02*
X105000000Y-65574819D01*
X105000000Y-65574819D02*
X104904762Y-65622438D01*
X104904762Y-65622438D02*
X104857143Y-65670057D01*
X104857143Y-65670057D02*
X104761905Y-65812914D01*
X104761905Y-65812914D02*
X104714286Y-66003390D01*
X104714286Y-66003390D02*
X104714286Y-66384342D01*
X104714286Y-66384342D02*
X104761905Y-66479580D01*
X104761905Y-66479580D02*
X104809524Y-66527200D01*
X104809524Y-66527200D02*
X104904762Y-66574819D01*
X104904762Y-66574819D02*
X105095238Y-66574819D01*
X105095238Y-66574819D02*
X105190476Y-66527200D01*
X105190476Y-66527200D02*
X105238095Y-66479580D01*
X105238095Y-66479580D02*
X105285714Y-66384342D01*
X105285714Y-66384342D02*
X105285714Y-66146247D01*
X105285714Y-66146247D02*
X105238095Y-66051009D01*
X105238095Y-66051009D02*
X105190476Y-66003390D01*
X105190476Y-66003390D02*
X105095238Y-65955771D01*
X105095238Y-65955771D02*
X104904762Y-65955771D01*
X104904762Y-65955771D02*
X104809524Y-66003390D01*
X104809524Y-66003390D02*
X104761905Y-66051009D01*
X104761905Y-66051009D02*
X104714286Y-66146247D01*
X90921667Y-51757200D02*
X91064524Y-51804819D01*
X91064524Y-51804819D02*
X91302619Y-51804819D01*
X91302619Y-51804819D02*
X91397857Y-51757200D01*
X91397857Y-51757200D02*
X91445476Y-51709580D01*
X91445476Y-51709580D02*
X91493095Y-51614342D01*
X91493095Y-51614342D02*
X91493095Y-51519104D01*
X91493095Y-51519104D02*
X91445476Y-51423866D01*
X91445476Y-51423866D02*
X91397857Y-51376247D01*
X91397857Y-51376247D02*
X91302619Y-51328628D01*
X91302619Y-51328628D02*
X91112143Y-51281009D01*
X91112143Y-51281009D02*
X91016905Y-51233390D01*
X91016905Y-51233390D02*
X90969286Y-51185771D01*
X90969286Y-51185771D02*
X90921667Y-51090533D01*
X90921667Y-51090533D02*
X90921667Y-50995295D01*
X90921667Y-50995295D02*
X90969286Y-50900057D01*
X90969286Y-50900057D02*
X91016905Y-50852438D01*
X91016905Y-50852438D02*
X91112143Y-50804819D01*
X91112143Y-50804819D02*
X91350238Y-50804819D01*
X91350238Y-50804819D02*
X91493095Y-50852438D01*
X91826429Y-50804819D02*
X92064524Y-51804819D01*
X92064524Y-51804819D02*
X92255000Y-51090533D01*
X92255000Y-51090533D02*
X92445476Y-51804819D01*
X92445476Y-51804819D02*
X92683572Y-50804819D01*
X93588333Y-51804819D02*
X93016905Y-51804819D01*
X93302619Y-51804819D02*
X93302619Y-50804819D01*
X93302619Y-50804819D02*
X93207381Y-50947676D01*
X93207381Y-50947676D02*
X93112143Y-51042914D01*
X93112143Y-51042914D02*
X93016905Y-51090533D01*
X101833333Y-68309580D02*
X101785714Y-68357200D01*
X101785714Y-68357200D02*
X101642857Y-68404819D01*
X101642857Y-68404819D02*
X101547619Y-68404819D01*
X101547619Y-68404819D02*
X101404762Y-68357200D01*
X101404762Y-68357200D02*
X101309524Y-68261961D01*
X101309524Y-68261961D02*
X101261905Y-68166723D01*
X101261905Y-68166723D02*
X101214286Y-67976247D01*
X101214286Y-67976247D02*
X101214286Y-67833390D01*
X101214286Y-67833390D02*
X101261905Y-67642914D01*
X101261905Y-67642914D02*
X101309524Y-67547676D01*
X101309524Y-67547676D02*
X101404762Y-67452438D01*
X101404762Y-67452438D02*
X101547619Y-67404819D01*
X101547619Y-67404819D02*
X101642857Y-67404819D01*
X101642857Y-67404819D02*
X101785714Y-67452438D01*
X101785714Y-67452438D02*
X101833333Y-67500057D01*
X102166667Y-67404819D02*
X102833333Y-67404819D01*
X102833333Y-67404819D02*
X102404762Y-68404819D01*
X108183333Y-70809580D02*
X108135714Y-70857200D01*
X108135714Y-70857200D02*
X107992857Y-70904819D01*
X107992857Y-70904819D02*
X107897619Y-70904819D01*
X107897619Y-70904819D02*
X107754762Y-70857200D01*
X107754762Y-70857200D02*
X107659524Y-70761961D01*
X107659524Y-70761961D02*
X107611905Y-70666723D01*
X107611905Y-70666723D02*
X107564286Y-70476247D01*
X107564286Y-70476247D02*
X107564286Y-70333390D01*
X107564286Y-70333390D02*
X107611905Y-70142914D01*
X107611905Y-70142914D02*
X107659524Y-70047676D01*
X107659524Y-70047676D02*
X107754762Y-69952438D01*
X107754762Y-69952438D02*
X107897619Y-69904819D01*
X107897619Y-69904819D02*
X107992857Y-69904819D01*
X107992857Y-69904819D02*
X108135714Y-69952438D01*
X108135714Y-69952438D02*
X108183333Y-70000057D01*
X108659524Y-70904819D02*
X108850000Y-70904819D01*
X108850000Y-70904819D02*
X108945238Y-70857200D01*
X108945238Y-70857200D02*
X108992857Y-70809580D01*
X108992857Y-70809580D02*
X109088095Y-70666723D01*
X109088095Y-70666723D02*
X109135714Y-70476247D01*
X109135714Y-70476247D02*
X109135714Y-70095295D01*
X109135714Y-70095295D02*
X109088095Y-70000057D01*
X109088095Y-70000057D02*
X109040476Y-69952438D01*
X109040476Y-69952438D02*
X108945238Y-69904819D01*
X108945238Y-69904819D02*
X108754762Y-69904819D01*
X108754762Y-69904819D02*
X108659524Y-69952438D01*
X108659524Y-69952438D02*
X108611905Y-70000057D01*
X108611905Y-70000057D02*
X108564286Y-70095295D01*
X108564286Y-70095295D02*
X108564286Y-70333390D01*
X108564286Y-70333390D02*
X108611905Y-70428628D01*
X108611905Y-70428628D02*
X108659524Y-70476247D01*
X108659524Y-70476247D02*
X108754762Y-70523866D01*
X108754762Y-70523866D02*
X108945238Y-70523866D01*
X108945238Y-70523866D02*
X109040476Y-70476247D01*
X109040476Y-70476247D02*
X109088095Y-70428628D01*
X109088095Y-70428628D02*
X109135714Y-70333390D01*
X106133333Y-57509580D02*
X106085714Y-57557200D01*
X106085714Y-57557200D02*
X105942857Y-57604819D01*
X105942857Y-57604819D02*
X105847619Y-57604819D01*
X105847619Y-57604819D02*
X105704762Y-57557200D01*
X105704762Y-57557200D02*
X105609524Y-57461961D01*
X105609524Y-57461961D02*
X105561905Y-57366723D01*
X105561905Y-57366723D02*
X105514286Y-57176247D01*
X105514286Y-57176247D02*
X105514286Y-57033390D01*
X105514286Y-57033390D02*
X105561905Y-56842914D01*
X105561905Y-56842914D02*
X105609524Y-56747676D01*
X105609524Y-56747676D02*
X105704762Y-56652438D01*
X105704762Y-56652438D02*
X105847619Y-56604819D01*
X105847619Y-56604819D02*
X105942857Y-56604819D01*
X105942857Y-56604819D02*
X106085714Y-56652438D01*
X106085714Y-56652438D02*
X106133333Y-56700057D01*
X107085714Y-57604819D02*
X106514286Y-57604819D01*
X106800000Y-57604819D02*
X106800000Y-56604819D01*
X106800000Y-56604819D02*
X106704762Y-56747676D01*
X106704762Y-56747676D02*
X106609524Y-56842914D01*
X106609524Y-56842914D02*
X106514286Y-56890533D01*
X132711905Y-72804819D02*
X132711905Y-71804819D01*
X132711905Y-71804819D02*
X132950000Y-71804819D01*
X132950000Y-71804819D02*
X133092857Y-71852438D01*
X133092857Y-71852438D02*
X133188095Y-71947676D01*
X133188095Y-71947676D02*
X133235714Y-72042914D01*
X133235714Y-72042914D02*
X133283333Y-72233390D01*
X133283333Y-72233390D02*
X133283333Y-72376247D01*
X133283333Y-72376247D02*
X133235714Y-72566723D01*
X133235714Y-72566723D02*
X133188095Y-72661961D01*
X133188095Y-72661961D02*
X133092857Y-72757200D01*
X133092857Y-72757200D02*
X132950000Y-72804819D01*
X132950000Y-72804819D02*
X132711905Y-72804819D01*
X134235714Y-72804819D02*
X133664286Y-72804819D01*
X133950000Y-72804819D02*
X133950000Y-71804819D01*
X133950000Y-71804819D02*
X133854762Y-71947676D01*
X133854762Y-71947676D02*
X133759524Y-72042914D01*
X133759524Y-72042914D02*
X133664286Y-72090533D01*
X101833333Y-69859580D02*
X101785714Y-69907200D01*
X101785714Y-69907200D02*
X101642857Y-69954819D01*
X101642857Y-69954819D02*
X101547619Y-69954819D01*
X101547619Y-69954819D02*
X101404762Y-69907200D01*
X101404762Y-69907200D02*
X101309524Y-69811961D01*
X101309524Y-69811961D02*
X101261905Y-69716723D01*
X101261905Y-69716723D02*
X101214286Y-69526247D01*
X101214286Y-69526247D02*
X101214286Y-69383390D01*
X101214286Y-69383390D02*
X101261905Y-69192914D01*
X101261905Y-69192914D02*
X101309524Y-69097676D01*
X101309524Y-69097676D02*
X101404762Y-69002438D01*
X101404762Y-69002438D02*
X101547619Y-68954819D01*
X101547619Y-68954819D02*
X101642857Y-68954819D01*
X101642857Y-68954819D02*
X101785714Y-69002438D01*
X101785714Y-69002438D02*
X101833333Y-69050057D01*
X102404762Y-69383390D02*
X102309524Y-69335771D01*
X102309524Y-69335771D02*
X102261905Y-69288152D01*
X102261905Y-69288152D02*
X102214286Y-69192914D01*
X102214286Y-69192914D02*
X102214286Y-69145295D01*
X102214286Y-69145295D02*
X102261905Y-69050057D01*
X102261905Y-69050057D02*
X102309524Y-69002438D01*
X102309524Y-69002438D02*
X102404762Y-68954819D01*
X102404762Y-68954819D02*
X102595238Y-68954819D01*
X102595238Y-68954819D02*
X102690476Y-69002438D01*
X102690476Y-69002438D02*
X102738095Y-69050057D01*
X102738095Y-69050057D02*
X102785714Y-69145295D01*
X102785714Y-69145295D02*
X102785714Y-69192914D01*
X102785714Y-69192914D02*
X102738095Y-69288152D01*
X102738095Y-69288152D02*
X102690476Y-69335771D01*
X102690476Y-69335771D02*
X102595238Y-69383390D01*
X102595238Y-69383390D02*
X102404762Y-69383390D01*
X102404762Y-69383390D02*
X102309524Y-69431009D01*
X102309524Y-69431009D02*
X102261905Y-69478628D01*
X102261905Y-69478628D02*
X102214286Y-69573866D01*
X102214286Y-69573866D02*
X102214286Y-69764342D01*
X102214286Y-69764342D02*
X102261905Y-69859580D01*
X102261905Y-69859580D02*
X102309524Y-69907200D01*
X102309524Y-69907200D02*
X102404762Y-69954819D01*
X102404762Y-69954819D02*
X102595238Y-69954819D01*
X102595238Y-69954819D02*
X102690476Y-69907200D01*
X102690476Y-69907200D02*
X102738095Y-69859580D01*
X102738095Y-69859580D02*
X102785714Y-69764342D01*
X102785714Y-69764342D02*
X102785714Y-69573866D01*
X102785714Y-69573866D02*
X102738095Y-69478628D01*
X102738095Y-69478628D02*
X102690476Y-69431009D01*
X102690476Y-69431009D02*
X102595238Y-69383390D01*
X100707142Y-59799580D02*
X100659523Y-59847200D01*
X100659523Y-59847200D02*
X100516666Y-59894819D01*
X100516666Y-59894819D02*
X100421428Y-59894819D01*
X100421428Y-59894819D02*
X100278571Y-59847200D01*
X100278571Y-59847200D02*
X100183333Y-59751961D01*
X100183333Y-59751961D02*
X100135714Y-59656723D01*
X100135714Y-59656723D02*
X100088095Y-59466247D01*
X100088095Y-59466247D02*
X100088095Y-59323390D01*
X100088095Y-59323390D02*
X100135714Y-59132914D01*
X100135714Y-59132914D02*
X100183333Y-59037676D01*
X100183333Y-59037676D02*
X100278571Y-58942438D01*
X100278571Y-58942438D02*
X100421428Y-58894819D01*
X100421428Y-58894819D02*
X100516666Y-58894819D01*
X100516666Y-58894819D02*
X100659523Y-58942438D01*
X100659523Y-58942438D02*
X100707142Y-58990057D01*
X101659523Y-59894819D02*
X101088095Y-59894819D01*
X101373809Y-59894819D02*
X101373809Y-58894819D01*
X101373809Y-58894819D02*
X101278571Y-59037676D01*
X101278571Y-59037676D02*
X101183333Y-59132914D01*
X101183333Y-59132914D02*
X101088095Y-59180533D01*
X102278571Y-58894819D02*
X102373809Y-58894819D01*
X102373809Y-58894819D02*
X102469047Y-58942438D01*
X102469047Y-58942438D02*
X102516666Y-58990057D01*
X102516666Y-58990057D02*
X102564285Y-59085295D01*
X102564285Y-59085295D02*
X102611904Y-59275771D01*
X102611904Y-59275771D02*
X102611904Y-59513866D01*
X102611904Y-59513866D02*
X102564285Y-59704342D01*
X102564285Y-59704342D02*
X102516666Y-59799580D01*
X102516666Y-59799580D02*
X102469047Y-59847200D01*
X102469047Y-59847200D02*
X102373809Y-59894819D01*
X102373809Y-59894819D02*
X102278571Y-59894819D01*
X102278571Y-59894819D02*
X102183333Y-59847200D01*
X102183333Y-59847200D02*
X102135714Y-59799580D01*
X102135714Y-59799580D02*
X102088095Y-59704342D01*
X102088095Y-59704342D02*
X102040476Y-59513866D01*
X102040476Y-59513866D02*
X102040476Y-59275771D01*
X102040476Y-59275771D02*
X102088095Y-59085295D01*
X102088095Y-59085295D02*
X102135714Y-58990057D01*
X102135714Y-58990057D02*
X102183333Y-58942438D01*
X102183333Y-58942438D02*
X102278571Y-58894819D01*
X127666666Y-47704819D02*
X127666666Y-48419104D01*
X127666666Y-48419104D02*
X127619047Y-48561961D01*
X127619047Y-48561961D02*
X127523809Y-48657200D01*
X127523809Y-48657200D02*
X127380952Y-48704819D01*
X127380952Y-48704819D02*
X127285714Y-48704819D01*
X128095238Y-47800057D02*
X128142857Y-47752438D01*
X128142857Y-47752438D02*
X128238095Y-47704819D01*
X128238095Y-47704819D02*
X128476190Y-47704819D01*
X128476190Y-47704819D02*
X128571428Y-47752438D01*
X128571428Y-47752438D02*
X128619047Y-47800057D01*
X128619047Y-47800057D02*
X128666666Y-47895295D01*
X128666666Y-47895295D02*
X128666666Y-47990533D01*
X128666666Y-47990533D02*
X128619047Y-48133390D01*
X128619047Y-48133390D02*
X128047619Y-48704819D01*
X128047619Y-48704819D02*
X128666666Y-48704819D01*
X121238095Y-77054819D02*
X121238095Y-77864342D01*
X121238095Y-77864342D02*
X121285714Y-77959580D01*
X121285714Y-77959580D02*
X121333333Y-78007200D01*
X121333333Y-78007200D02*
X121428571Y-78054819D01*
X121428571Y-78054819D02*
X121619047Y-78054819D01*
X121619047Y-78054819D02*
X121714285Y-78007200D01*
X121714285Y-78007200D02*
X121761904Y-77959580D01*
X121761904Y-77959580D02*
X121809523Y-77864342D01*
X121809523Y-77864342D02*
X121809523Y-77054819D01*
X122238095Y-77150057D02*
X122285714Y-77102438D01*
X122285714Y-77102438D02*
X122380952Y-77054819D01*
X122380952Y-77054819D02*
X122619047Y-77054819D01*
X122619047Y-77054819D02*
X122714285Y-77102438D01*
X122714285Y-77102438D02*
X122761904Y-77150057D01*
X122761904Y-77150057D02*
X122809523Y-77245295D01*
X122809523Y-77245295D02*
X122809523Y-77340533D01*
X122809523Y-77340533D02*
X122761904Y-77483390D01*
X122761904Y-77483390D02*
X122190476Y-78054819D01*
X122190476Y-78054819D02*
X122809523Y-78054819D01*
X96083333Y-55514819D02*
X95750000Y-55038628D01*
X95511905Y-55514819D02*
X95511905Y-54514819D01*
X95511905Y-54514819D02*
X95892857Y-54514819D01*
X95892857Y-54514819D02*
X95988095Y-54562438D01*
X95988095Y-54562438D02*
X96035714Y-54610057D01*
X96035714Y-54610057D02*
X96083333Y-54705295D01*
X96083333Y-54705295D02*
X96083333Y-54848152D01*
X96083333Y-54848152D02*
X96035714Y-54943390D01*
X96035714Y-54943390D02*
X95988095Y-54991009D01*
X95988095Y-54991009D02*
X95892857Y-55038628D01*
X95892857Y-55038628D02*
X95511905Y-55038628D01*
X97035714Y-55514819D02*
X96464286Y-55514819D01*
X96750000Y-55514819D02*
X96750000Y-54514819D01*
X96750000Y-54514819D02*
X96654762Y-54657676D01*
X96654762Y-54657676D02*
X96559524Y-54752914D01*
X96559524Y-54752914D02*
X96464286Y-54800533D01*
X115383333Y-69809580D02*
X115335714Y-69857200D01*
X115335714Y-69857200D02*
X115192857Y-69904819D01*
X115192857Y-69904819D02*
X115097619Y-69904819D01*
X115097619Y-69904819D02*
X114954762Y-69857200D01*
X114954762Y-69857200D02*
X114859524Y-69761961D01*
X114859524Y-69761961D02*
X114811905Y-69666723D01*
X114811905Y-69666723D02*
X114764286Y-69476247D01*
X114764286Y-69476247D02*
X114764286Y-69333390D01*
X114764286Y-69333390D02*
X114811905Y-69142914D01*
X114811905Y-69142914D02*
X114859524Y-69047676D01*
X114859524Y-69047676D02*
X114954762Y-68952438D01*
X114954762Y-68952438D02*
X115097619Y-68904819D01*
X115097619Y-68904819D02*
X115192857Y-68904819D01*
X115192857Y-68904819D02*
X115335714Y-68952438D01*
X115335714Y-68952438D02*
X115383333Y-69000057D01*
X115716667Y-68904819D02*
X116335714Y-68904819D01*
X116335714Y-68904819D02*
X116002381Y-69285771D01*
X116002381Y-69285771D02*
X116145238Y-69285771D01*
X116145238Y-69285771D02*
X116240476Y-69333390D01*
X116240476Y-69333390D02*
X116288095Y-69381009D01*
X116288095Y-69381009D02*
X116335714Y-69476247D01*
X116335714Y-69476247D02*
X116335714Y-69714342D01*
X116335714Y-69714342D02*
X116288095Y-69809580D01*
X116288095Y-69809580D02*
X116240476Y-69857200D01*
X116240476Y-69857200D02*
X116145238Y-69904819D01*
X116145238Y-69904819D02*
X115859524Y-69904819D01*
X115859524Y-69904819D02*
X115764286Y-69857200D01*
X115764286Y-69857200D02*
X115716667Y-69809580D01*
X109883333Y-78804819D02*
X109550000Y-78328628D01*
X109311905Y-78804819D02*
X109311905Y-77804819D01*
X109311905Y-77804819D02*
X109692857Y-77804819D01*
X109692857Y-77804819D02*
X109788095Y-77852438D01*
X109788095Y-77852438D02*
X109835714Y-77900057D01*
X109835714Y-77900057D02*
X109883333Y-77995295D01*
X109883333Y-77995295D02*
X109883333Y-78138152D01*
X109883333Y-78138152D02*
X109835714Y-78233390D01*
X109835714Y-78233390D02*
X109788095Y-78281009D01*
X109788095Y-78281009D02*
X109692857Y-78328628D01*
X109692857Y-78328628D02*
X109311905Y-78328628D01*
X110788095Y-77804819D02*
X110311905Y-77804819D01*
X110311905Y-77804819D02*
X110264286Y-78281009D01*
X110264286Y-78281009D02*
X110311905Y-78233390D01*
X110311905Y-78233390D02*
X110407143Y-78185771D01*
X110407143Y-78185771D02*
X110645238Y-78185771D01*
X110645238Y-78185771D02*
X110740476Y-78233390D01*
X110740476Y-78233390D02*
X110788095Y-78281009D01*
X110788095Y-78281009D02*
X110835714Y-78376247D01*
X110835714Y-78376247D02*
X110835714Y-78614342D01*
X110835714Y-78614342D02*
X110788095Y-78709580D01*
X110788095Y-78709580D02*
X110740476Y-78757200D01*
X110740476Y-78757200D02*
X110645238Y-78804819D01*
X110645238Y-78804819D02*
X110407143Y-78804819D01*
X110407143Y-78804819D02*
X110311905Y-78757200D01*
X110311905Y-78757200D02*
X110264286Y-78709580D01*
X103739580Y-64092857D02*
X103787200Y-64140476D01*
X103787200Y-64140476D02*
X103834819Y-64283333D01*
X103834819Y-64283333D02*
X103834819Y-64378571D01*
X103834819Y-64378571D02*
X103787200Y-64521428D01*
X103787200Y-64521428D02*
X103691961Y-64616666D01*
X103691961Y-64616666D02*
X103596723Y-64664285D01*
X103596723Y-64664285D02*
X103406247Y-64711904D01*
X103406247Y-64711904D02*
X103263390Y-64711904D01*
X103263390Y-64711904D02*
X103072914Y-64664285D01*
X103072914Y-64664285D02*
X102977676Y-64616666D01*
X102977676Y-64616666D02*
X102882438Y-64521428D01*
X102882438Y-64521428D02*
X102834819Y-64378571D01*
X102834819Y-64378571D02*
X102834819Y-64283333D01*
X102834819Y-64283333D02*
X102882438Y-64140476D01*
X102882438Y-64140476D02*
X102930057Y-64092857D01*
X103834819Y-63140476D02*
X103834819Y-63711904D01*
X103834819Y-63426190D02*
X102834819Y-63426190D01*
X102834819Y-63426190D02*
X102977676Y-63521428D01*
X102977676Y-63521428D02*
X103072914Y-63616666D01*
X103072914Y-63616666D02*
X103120533Y-63711904D01*
X103834819Y-62188095D02*
X103834819Y-62759523D01*
X103834819Y-62473809D02*
X102834819Y-62473809D01*
X102834819Y-62473809D02*
X102977676Y-62569047D01*
X102977676Y-62569047D02*
X103072914Y-62664285D01*
X103072914Y-62664285D02*
X103120533Y-62759523D01*
D12*
%TO.C,Y1*%
X97250000Y-60300000D02*
X97250000Y-64300000D01*
X100550000Y-60300000D02*
X97250000Y-60300000D01*
%TO.C,C5*%
X108246920Y-55140000D02*
X108528080Y-55140000D01*
X108246920Y-56160000D02*
X108528080Y-56160000D01*
%TO.C,J4*%
X101370000Y-83630000D02*
X101370000Y-82300000D01*
X102700000Y-83630000D02*
X101370000Y-83630000D01*
X103970000Y-80970000D02*
X111650000Y-80970000D01*
X103970000Y-83630000D02*
X103970000Y-80970000D01*
X103970000Y-83630000D02*
X111650000Y-83630000D01*
X111650000Y-83630000D02*
X111650000Y-80970000D01*
%TO.C,U1*%
X107252500Y-59690000D02*
X107252500Y-60140000D01*
X107252500Y-66910000D02*
X107252500Y-66460000D01*
X107702500Y-59690000D02*
X107252500Y-59690000D01*
X107702500Y-66910000D02*
X107252500Y-66910000D01*
X114022500Y-59690000D02*
X114472500Y-59690000D01*
X114022500Y-66910000D02*
X114472500Y-66910000D01*
X114472500Y-59690000D02*
X114472500Y-60140000D01*
X114472500Y-66910000D02*
X114472500Y-66460000D01*
X106662500Y-60140000D02*
X106322500Y-59670000D01*
X107002500Y-59670000D01*
X106662500Y-60140000D01*
G36*
X106662500Y-60140000D02*
G01*
X106322500Y-59670000D01*
X107002500Y-59670000D01*
X106662500Y-60140000D01*
G37*
%TO.C,C12*%
X121488748Y-65915000D02*
X122011252Y-65915000D01*
X121488748Y-67385000D02*
X122011252Y-67385000D01*
%TO.C,C13*%
X125965000Y-72611252D02*
X125965000Y-72088748D01*
X127435000Y-72611252D02*
X127435000Y-72088748D01*
%TO.C,C2*%
X117240000Y-60722164D02*
X117240000Y-60937836D01*
X117960000Y-60722164D02*
X117960000Y-60937836D01*
%TO.C,R2*%
X121170000Y-61196359D02*
X121170000Y-61503641D01*
X121930000Y-61196359D02*
X121930000Y-61503641D01*
%TO.C,R4*%
X105843641Y-78020000D02*
X105536359Y-78020000D01*
X105843641Y-78780000D02*
X105536359Y-78780000D01*
%TO.C,C4*%
X104390000Y-60157836D02*
X104390000Y-59942164D01*
X105110000Y-60157836D02*
X105110000Y-59942164D01*
%TO.C,J3*%
X100540000Y-46570000D02*
X100540000Y-49230000D01*
X108220000Y-46570000D02*
X100540000Y-46570000D01*
X108220000Y-46570000D02*
X108220000Y-49230000D01*
X108220000Y-49230000D02*
X100540000Y-49230000D01*
X109490000Y-46570000D02*
X110820000Y-46570000D01*
X110820000Y-46570000D02*
X110820000Y-47900000D01*
%TO.C,R3*%
X131096359Y-69070000D02*
X131403641Y-69070000D01*
X131096359Y-69830000D02*
X131403641Y-69830000D01*
%TO.C,FB1*%
X105452500Y-68812779D02*
X105452500Y-68487221D01*
X106472500Y-68812779D02*
X106472500Y-68487221D01*
D11*
%TO.C,J1*%
X128725000Y-62975000D02*
X128725000Y-63700000D01*
X128725000Y-63700000D02*
X129150000Y-63700000D01*
X129150000Y-60100000D02*
X129150000Y-59100000D01*
X129150000Y-63700000D02*
X129150000Y-64700000D01*
X130900000Y-66050000D02*
X132300000Y-66050000D01*
X132300000Y-57750000D02*
X130900000Y-57750000D01*
X134700000Y-66050000D02*
X134850000Y-66050000D01*
X134850000Y-57750000D02*
X134700000Y-57750000D01*
X134850000Y-58050000D02*
X134850000Y-57750000D01*
X134850000Y-65750000D02*
X135300000Y-65750000D01*
X134850000Y-66050000D02*
X134850000Y-65750000D01*
X135300000Y-58050000D02*
X134850000Y-58050000D01*
D12*
%TO.C,C6*%
X104340000Y-64507836D02*
X104340000Y-64292164D01*
X105060000Y-64507836D02*
X105060000Y-64292164D01*
%TO.C,SW1*%
X89050000Y-55350000D02*
X89050000Y-56250000D01*
X89260000Y-55150000D02*
X89050000Y-55350000D01*
X89260000Y-56450000D02*
X89050000Y-56250000D01*
X89260000Y-56450000D02*
X90550000Y-56450000D01*
X90550000Y-53700000D02*
X90550000Y-59400000D01*
X90550000Y-55150000D02*
X89260000Y-55150000D01*
X91560000Y-60000000D02*
X92350000Y-60000000D01*
X92350000Y-53100000D02*
X91560000Y-53100000D01*
X93400000Y-54950000D02*
X93400000Y-56650000D01*
X93400000Y-57950000D02*
X93400000Y-58150000D01*
%TO.C,C7*%
X104200336Y-67490000D02*
X103984664Y-67490000D01*
X104200336Y-68210000D02*
X103984664Y-68210000D01*
%TO.C,C9*%
X108274664Y-68890000D02*
X108490336Y-68890000D01*
X108274664Y-69610000D02*
X108490336Y-69610000D01*
%TO.C,C1*%
X108274664Y-56890000D02*
X108490336Y-56890000D01*
X108274664Y-57610000D02*
X108490336Y-57610000D01*
%TO.C,D1*%
X130260000Y-70645000D02*
X130260000Y-73330000D01*
X132180000Y-70645000D02*
X130260000Y-70645000D01*
X132180000Y-73330000D02*
X132180000Y-70645000D01*
%TO.C,C8*%
X104240336Y-69090000D02*
X104024664Y-69090000D01*
X104240336Y-69810000D02*
X104024664Y-69810000D01*
%TO.C,C10*%
X101040000Y-61477836D02*
X101040000Y-61262164D01*
X101760000Y-61477836D02*
X101760000Y-61262164D01*
%TO.C,J2*%
X115970000Y-46770000D02*
X115970000Y-49430000D01*
X123650000Y-46770000D02*
X115970000Y-46770000D01*
X123650000Y-46770000D02*
X123650000Y-49430000D01*
X123650000Y-49430000D02*
X115970000Y-49430000D01*
X124920000Y-46770000D02*
X126250000Y-46770000D01*
X126250000Y-46770000D02*
X126250000Y-48100000D01*
%TO.C,U2*%
X118440000Y-70450000D02*
X118440000Y-74210000D01*
X118440000Y-74210000D02*
X119700000Y-74210000D01*
X125260000Y-70450000D02*
X125260000Y-74210000D01*
X125260000Y-74210000D02*
X124000000Y-74210000D01*
X125490000Y-69410000D02*
X125160000Y-69170000D01*
X125490000Y-68930000D01*
X125490000Y-69410000D01*
G36*
X125490000Y-69410000D02*
G01*
X125160000Y-69170000D01*
X125490000Y-68930000D01*
X125490000Y-69410000D01*
G37*
%TO.C,R1*%
X95820000Y-56913641D02*
X95820000Y-56606359D01*
X96580000Y-56913641D02*
X96580000Y-56606359D01*
%TO.C,C3*%
X113757836Y-69040000D02*
X113542164Y-69040000D01*
X113757836Y-69760000D02*
X113542164Y-69760000D01*
%TO.C,R5*%
X107736359Y-78070000D02*
X108043641Y-78070000D01*
X107736359Y-78830000D02*
X108043641Y-78830000D01*
%TO.C,C11*%
X101637836Y-62940000D02*
X101422164Y-62940000D01*
X101637836Y-63660000D02*
X101422164Y-63660000D01*
%TD*%
M02*
