%TF.GenerationSoftware,KiCad,Pcbnew,8.0.8*%
%TF.CreationDate,2025-03-31T20:29:26+08:00*%
%TF.ProjectId,1,312e6b69-6361-4645-9f70-636258585858,rev?*%
%TF.SameCoordinates,Original*%
%TF.FileFunction,Copper,L1,Top*%
%TF.FilePolarity,Positive*%
%FSLAX46Y46*%
G04 Gerber Fmt 4.6, Leading zero omitted, Abs format (unit mm)*
G04 Created by KiCad (PCBNEW 8.0.8) date 2025-03-31 20:29:26*
%MOMM*%
%LPD*%
G01*
G04 APERTURE LIST*
G04 Aperture macros list*
%AMRoundRect*
0 Rectangle with rounded corners*
0 $1 Rounding radius*
0 $2 $3 $4 $5 $6 $7 $8 $9 X,Y pos of 4 corners*
0 Add a 4 corners polygon primitive as box body*
4,1,4,$2,$3,$4,$5,$6,$7,$8,$9,$2,$3,0*
0 Add four circle primitives for the rounded corners*
1,1,$1+$1,$2,$3*
1,1,$1+$1,$4,$5*
1,1,$1+$1,$6,$7*
1,1,$1+$1,$8,$9*
0 Add four rect primitives between the rounded corners*
20,1,$1+$1,$2,$3,$4,$5,0*
20,1,$1+$1,$4,$5,$6,$7,0*
20,1,$1+$1,$6,$7,$8,$9,0*
20,1,$1+$1,$8,$9,$2,$3,0*%
G04 Aperture macros list end*
%TA.AperFunction,SMDPad,CuDef*%
%ADD10R,1.200000X1.400000*%
%TD*%
%TA.AperFunction,SMDPad,CuDef*%
%ADD11RoundRect,0.225000X-0.225000X-0.250000X0.225000X-0.250000X0.225000X0.250000X-0.225000X0.250000X0*%
%TD*%
%TA.AperFunction,ComponentPad*%
%ADD12R,1.700000X1.700000*%
%TD*%
%TA.AperFunction,ComponentPad*%
%ADD13O,1.700000X1.700000*%
%TD*%
%TA.AperFunction,SMDPad,CuDef*%
%ADD14RoundRect,0.075000X-0.662500X-0.075000X0.662500X-0.075000X0.662500X0.075000X-0.662500X0.075000X0*%
%TD*%
%TA.AperFunction,SMDPad,CuDef*%
%ADD15RoundRect,0.075000X-0.075000X-0.662500X0.075000X-0.662500X0.075000X0.662500X-0.075000X0.662500X0*%
%TD*%
%TA.AperFunction,SMDPad,CuDef*%
%ADD16RoundRect,0.250000X-0.250000X-0.475000X0.250000X-0.475000X0.250000X0.475000X-0.250000X0.475000X0*%
%TD*%
%TA.AperFunction,SMDPad,CuDef*%
%ADD17RoundRect,0.250000X0.475000X-0.250000X0.475000X0.250000X-0.475000X0.250000X-0.475000X-0.250000X0*%
%TD*%
%TA.AperFunction,SMDPad,CuDef*%
%ADD18RoundRect,0.140000X-0.170000X0.140000X-0.170000X-0.140000X0.170000X-0.140000X0.170000X0.140000X0*%
%TD*%
%TA.AperFunction,SMDPad,CuDef*%
%ADD19RoundRect,0.135000X-0.185000X0.135000X-0.185000X-0.135000X0.185000X-0.135000X0.185000X0.135000X0*%
%TD*%
%TA.AperFunction,SMDPad,CuDef*%
%ADD20RoundRect,0.135000X0.135000X0.185000X-0.135000X0.185000X-0.135000X-0.185000X0.135000X-0.185000X0*%
%TD*%
%TA.AperFunction,SMDPad,CuDef*%
%ADD21RoundRect,0.140000X0.170000X-0.140000X0.170000X0.140000X-0.170000X0.140000X-0.170000X-0.140000X0*%
%TD*%
%TA.AperFunction,SMDPad,CuDef*%
%ADD22RoundRect,0.135000X-0.135000X-0.185000X0.135000X-0.185000X0.135000X0.185000X-0.135000X0.185000X0*%
%TD*%
%TA.AperFunction,SMDPad,CuDef*%
%ADD23RoundRect,0.218750X0.256250X-0.218750X0.256250X0.218750X-0.256250X0.218750X-0.256250X-0.218750X0*%
%TD*%
%TA.AperFunction,SMDPad,CuDef*%
%ADD24R,1.300000X0.450000*%
%TD*%
%TA.AperFunction,ComponentPad*%
%ADD25O,1.800000X1.150000*%
%TD*%
%TA.AperFunction,ComponentPad*%
%ADD26O,2.000000X1.450000*%
%TD*%
%TA.AperFunction,SMDPad,CuDef*%
%ADD27R,0.800000X1.000000*%
%TD*%
%TA.AperFunction,SMDPad,CuDef*%
%ADD28R,1.500000X0.700000*%
%TD*%
%TA.AperFunction,SMDPad,CuDef*%
%ADD29RoundRect,0.140000X0.140000X0.170000X-0.140000X0.170000X-0.140000X-0.170000X0.140000X-0.170000X0*%
%TD*%
%TA.AperFunction,SMDPad,CuDef*%
%ADD30RoundRect,0.140000X-0.140000X-0.170000X0.140000X-0.170000X0.140000X0.170000X-0.140000X0.170000X0*%
%TD*%
%TA.AperFunction,SMDPad,CuDef*%
%ADD31RoundRect,0.243750X-0.456250X0.243750X-0.456250X-0.243750X0.456250X-0.243750X0.456250X0.243750X0*%
%TD*%
%TA.AperFunction,SMDPad,CuDef*%
%ADD32RoundRect,0.375000X-0.375000X0.625000X-0.375000X-0.625000X0.375000X-0.625000X0.375000X0.625000X0*%
%TD*%
%TA.AperFunction,SMDPad,CuDef*%
%ADD33RoundRect,0.500000X-1.400000X0.500000X-1.400000X-0.500000X1.400000X-0.500000X1.400000X0.500000X0*%
%TD*%
%TA.AperFunction,SMDPad,CuDef*%
%ADD34RoundRect,0.135000X0.185000X-0.135000X0.185000X0.135000X-0.185000X0.135000X-0.185000X-0.135000X0*%
%TD*%
%TA.AperFunction,ViaPad*%
%ADD35C,0.600000*%
%TD*%
%TA.AperFunction,Conductor*%
%ADD36C,0.300000*%
%TD*%
%TA.AperFunction,Conductor*%
%ADD37C,0.500000*%
%TD*%
%TA.AperFunction,Conductor*%
%ADD38C,0.200000*%
%TD*%
G04 APERTURE END LIST*
D10*
%TO.P,Y1,1,1*%
%TO.N,/HSE_IN*%
X98050000Y-61200000D03*
%TO.P,Y1,2,2*%
%TO.N,GND*%
X98050000Y-63400000D03*
%TO.P,Y1,3,3*%
%TO.N,/HSE_OUT*%
X99750000Y-63400000D03*
%TO.P,Y1,4,4*%
%TO.N,GND*%
X99750000Y-61200000D03*
%TD*%
D11*
%TO.P,C5,1*%
%TO.N,+3.3V*%
X107612500Y-55650000D03*
%TO.P,C5,2*%
%TO.N,GND*%
X109162500Y-55650000D03*
%TD*%
D12*
%TO.P,J4,1,Pin_1*%
%TO.N,+3.3V*%
X102700000Y-82300000D03*
D13*
%TO.P,J4,2,Pin_2*%
%TO.N,/I2C2_SDA*%
X105240000Y-82300000D03*
%TO.P,J4,3,Pin_3*%
%TO.N,/I2C2_SCL*%
X107780000Y-82300000D03*
%TO.P,J4,4,Pin_4*%
%TO.N,GND*%
X110320000Y-82300000D03*
%TD*%
D14*
%TO.P,U1,1,VBAT*%
%TO.N,+3.3V*%
X106700000Y-60550000D03*
%TO.P,U1,2,PC13*%
%TO.N,unconnected-(U1-PC13-Pad2)*%
X106700000Y-61050000D03*
%TO.P,U1,3,PC14*%
%TO.N,unconnected-(U1-PC14-Pad3)*%
X106700000Y-61550000D03*
%TO.P,U1,4,PC15*%
%TO.N,unconnected-(U1-PC15-Pad4)*%
X106700000Y-62050000D03*
%TO.P,U1,5,PD0*%
%TO.N,/HSE_IN*%
X106700000Y-62550000D03*
%TO.P,U1,6,PD1*%
%TO.N,/HSE_OUT*%
X106700000Y-63050000D03*
%TO.P,U1,7,NRST*%
%TO.N,/NRST*%
X106700000Y-63550000D03*
%TO.P,U1,8,VSSA*%
%TO.N,GND*%
X106700000Y-64050000D03*
%TO.P,U1,9,VDDA*%
%TO.N,+3.3VA*%
X106700000Y-64550000D03*
%TO.P,U1,10,PA0*%
%TO.N,unconnected-(U1-PA0-Pad10)*%
X106700000Y-65050000D03*
%TO.P,U1,11,PA1*%
%TO.N,unconnected-(U1-PA1-Pad11)*%
X106700000Y-65550000D03*
%TO.P,U1,12,PA2*%
%TO.N,unconnected-(U1-PA2-Pad12)*%
X106700000Y-66050000D03*
D15*
%TO.P,U1,13,PA3*%
%TO.N,unconnected-(U1-PA3-Pad13)*%
X108112500Y-67462500D03*
%TO.P,U1,14,PA4*%
%TO.N,unconnected-(U1-PA4-Pad14)*%
X108612500Y-67462500D03*
%TO.P,U1,15,PA5*%
%TO.N,unconnected-(U1-PA5-Pad15)*%
X109112500Y-67462500D03*
%TO.P,U1,16,PA6*%
%TO.N,unconnected-(U1-PA6-Pad16)*%
X109612500Y-67462500D03*
%TO.P,U1,17,PA7*%
%TO.N,unconnected-(U1-PA7-Pad17)*%
X110112500Y-67462500D03*
%TO.P,U1,18,PB0*%
%TO.N,unconnected-(U1-PB0-Pad18)*%
X110612500Y-67462500D03*
%TO.P,U1,19,PB1*%
%TO.N,unconnected-(U1-PB1-Pad19)*%
X111112500Y-67462500D03*
%TO.P,U1,20,PB2*%
%TO.N,unconnected-(U1-PB2-Pad20)*%
X111612500Y-67462500D03*
%TO.P,U1,21,PB10*%
%TO.N,/I2C2_SDA*%
X112112500Y-67462500D03*
%TO.P,U1,22,PB11*%
%TO.N,/I2C2_SCL*%
X112612500Y-67462500D03*
%TO.P,U1,23,VSS*%
%TO.N,GND*%
X113112500Y-67462500D03*
%TO.P,U1,24,VDD*%
%TO.N,+3.3V*%
X113612500Y-67462500D03*
D14*
%TO.P,U1,25,PB12*%
%TO.N,unconnected-(U1-PB12-Pad25)*%
X115025000Y-66050000D03*
%TO.P,U1,26,PB13*%
%TO.N,unconnected-(U1-PB13-Pad26)*%
X115025000Y-65550000D03*
%TO.P,U1,27,PB14*%
%TO.N,unconnected-(U1-PB14-Pad27)*%
X115025000Y-65050000D03*
%TO.P,U1,28,PB15*%
%TO.N,unconnected-(U1-PB15-Pad28)*%
X115025000Y-64550000D03*
%TO.P,U1,29,PA8*%
%TO.N,unconnected-(U1-PA8-Pad29)*%
X115025000Y-64050000D03*
%TO.P,U1,30,PA9*%
%TO.N,unconnected-(U1-PA9-Pad30)*%
X115025000Y-63550000D03*
%TO.P,U1,31,PA10*%
%TO.N,unconnected-(U1-PA10-Pad31)*%
X115025000Y-63050000D03*
%TO.P,U1,32,PA11*%
%TO.N,/USE_D-*%
X115025000Y-62550000D03*
%TO.P,U1,33,PA12*%
%TO.N,/USE_D+*%
X115025000Y-62050000D03*
%TO.P,U1,34,PA13*%
%TO.N,/SWDIO*%
X115025000Y-61550000D03*
%TO.P,U1,35,VSS*%
%TO.N,GND*%
X115025000Y-61050000D03*
%TO.P,U1,36,VDD*%
%TO.N,+3.3V*%
X115025000Y-60550000D03*
D15*
%TO.P,U1,37,PA14*%
%TO.N,/SWCLK*%
X113612500Y-59137500D03*
%TO.P,U1,38,PA15*%
%TO.N,unconnected-(U1-PA15-Pad38)*%
X113112500Y-59137500D03*
%TO.P,U1,39,PB3*%
%TO.N,unconnected-(U1-PB3-Pad39)*%
X112612500Y-59137500D03*
%TO.P,U1,40,PB4*%
%TO.N,unconnected-(U1-PB4-Pad40)*%
X112112500Y-59137500D03*
%TO.P,U1,41,PB5*%
%TO.N,unconnected-(U1-PB5-Pad41)*%
X111612500Y-59137500D03*
%TO.P,U1,42,PB6*%
%TO.N,/USART1_TX*%
X111112500Y-59137500D03*
%TO.P,U1,43,PB7*%
%TO.N,/USART1_RX*%
X110612500Y-59137500D03*
%TO.P,U1,44,BOOT0*%
%TO.N,/BOOT0*%
X110112500Y-59137500D03*
%TO.P,U1,45,PB8*%
%TO.N,unconnected-(U1-PB8-Pad45)*%
X109612500Y-59137500D03*
%TO.P,U1,46,PB9*%
%TO.N,unconnected-(U1-PB9-Pad46)*%
X109112500Y-59137500D03*
%TO.P,U1,47,VSS*%
%TO.N,GND*%
X108612500Y-59137500D03*
%TO.P,U1,48,VDD*%
%TO.N,+3.3V*%
X108112500Y-59137500D03*
%TD*%
D16*
%TO.P,C12,1*%
%TO.N,VBUS*%
X120800000Y-66650000D03*
%TO.P,C12,2*%
%TO.N,GND*%
X122700000Y-66650000D03*
%TD*%
D17*
%TO.P,C13,1*%
%TO.N,+3.3V*%
X126700000Y-73300000D03*
%TO.P,C13,2*%
%TO.N,GND*%
X126700000Y-71400000D03*
%TD*%
D18*
%TO.P,C2,1*%
%TO.N,+3.3V*%
X117600000Y-60350000D03*
%TO.P,C2,2*%
%TO.N,GND*%
X117600000Y-61310000D03*
%TD*%
D19*
%TO.P,R2,1*%
%TO.N,+3.3V*%
X121550000Y-60840000D03*
%TO.P,R2,2*%
%TO.N,/USE_D+*%
X121550000Y-61860000D03*
%TD*%
D20*
%TO.P,R4,1*%
%TO.N,+3.3V*%
X106200000Y-78400000D03*
%TO.P,R4,2*%
%TO.N,/I2C2_SDA*%
X105180000Y-78400000D03*
%TD*%
D21*
%TO.P,C4,1*%
%TO.N,+3.3V*%
X104750000Y-60530000D03*
%TO.P,C4,2*%
%TO.N,GND*%
X104750000Y-59570000D03*
%TD*%
D12*
%TO.P,J3,1,Pin_1*%
%TO.N,+3.3V*%
X109490000Y-47900000D03*
D13*
%TO.P,J3,2,Pin_2*%
%TO.N,/USART1_TX*%
X106950000Y-47900000D03*
%TO.P,J3,3,Pin_3*%
%TO.N,/USART1_RX*%
X104410000Y-47900000D03*
%TO.P,J3,4,Pin_4*%
%TO.N,GND*%
X101870000Y-47900000D03*
%TD*%
D22*
%TO.P,R3,1*%
%TO.N,/PWR_LED_K*%
X130740000Y-69450000D03*
%TO.P,R3,2*%
%TO.N,GND*%
X131760000Y-69450000D03*
%TD*%
D23*
%TO.P,FB1,1*%
%TO.N,+3.3V*%
X105962500Y-69437500D03*
%TO.P,FB1,2*%
%TO.N,+3.3VA*%
X105962500Y-67862500D03*
%TD*%
D24*
%TO.P,J1,1,VBUS*%
%TO.N,VBUS*%
X129650000Y-63200000D03*
%TO.P,J1,2,D-*%
%TO.N,/USE_D-*%
X129650000Y-62550000D03*
%TO.P,J1,3,D+*%
%TO.N,/USE_D+*%
X129650000Y-61900000D03*
%TO.P,J1,4,ID*%
%TO.N,unconnected-(J1-ID-Pad4)*%
X129650000Y-61250000D03*
%TO.P,J1,5,GND*%
%TO.N,GND*%
X129650000Y-60600000D03*
D25*
%TO.P,J1,6,Shield*%
%TO.N,unconnected-(J1-Shield-Pad6)_3*%
X133500000Y-65775000D03*
D26*
%TO.N,unconnected-(J1-Shield-Pad6)_1*%
X129700000Y-65625000D03*
%TO.N,unconnected-(J1-Shield-Pad6)_2*%
X129700000Y-58175000D03*
D25*
%TO.N,unconnected-(J1-Shield-Pad6)*%
X133500000Y-58025000D03*
%TD*%
D21*
%TO.P,C6,1*%
%TO.N,+3.3VA*%
X104700000Y-64880000D03*
%TO.P,C6,2*%
%TO.N,GND*%
X104700000Y-63920000D03*
%TD*%
D27*
%TO.P,SW1,*%
%TO.N,*%
X93060000Y-52900000D03*
X90850000Y-52900000D03*
X93060000Y-60200000D03*
X90850000Y-60200000D03*
D28*
%TO.P,SW1,1,A*%
%TO.N,GND*%
X93710000Y-54300000D03*
%TO.P,SW1,2,B*%
%TO.N,Net-(SW1-B)*%
X93710000Y-57300000D03*
%TO.P,SW1,3,C*%
%TO.N,+3.3V*%
X93710000Y-58800000D03*
%TD*%
D29*
%TO.P,C7,1*%
%TO.N,+3.3VA*%
X104572500Y-67850000D03*
%TO.P,C7,2*%
%TO.N,GND*%
X103612500Y-67850000D03*
%TD*%
D30*
%TO.P,C9,1*%
%TO.N,/NRST*%
X107902500Y-69250000D03*
%TO.P,C9,2*%
%TO.N,GND*%
X108862500Y-69250000D03*
%TD*%
%TO.P,C1,1*%
%TO.N,+3.3V*%
X107902500Y-57250000D03*
%TO.P,C1,2*%
%TO.N,GND*%
X108862500Y-57250000D03*
%TD*%
D31*
%TO.P,D1,1,K*%
%TO.N,/PWR_LED_K*%
X131220000Y-71392500D03*
%TO.P,D1,2,A*%
%TO.N,+3.3V*%
X131220000Y-73267500D03*
%TD*%
D29*
%TO.P,C8,1*%
%TO.N,+3.3V*%
X104612500Y-69450000D03*
%TO.P,C8,2*%
%TO.N,GND*%
X103652500Y-69450000D03*
%TD*%
D21*
%TO.P,C10,1*%
%TO.N,/HSE_IN*%
X101400000Y-61850000D03*
%TO.P,C10,2*%
%TO.N,GND*%
X101400000Y-60890000D03*
%TD*%
D12*
%TO.P,J2,1,Pin_1*%
%TO.N,+3.3V*%
X124920000Y-48100000D03*
D13*
%TO.P,J2,2,Pin_2*%
%TO.N,/SWDIO*%
X122380000Y-48100000D03*
%TO.P,J2,3,Pin_3*%
%TO.N,/SWCLK*%
X119840000Y-48100000D03*
%TO.P,J2,4,Pin_4*%
%TO.N,GND*%
X117300000Y-48100000D03*
%TD*%
D32*
%TO.P,U2,1,GND*%
%TO.N,GND*%
X124150000Y-69150000D03*
%TO.P,U2,2,VO*%
%TO.N,+3.3V*%
X121850000Y-69150000D03*
D33*
X121850000Y-75450000D03*
D32*
%TO.P,U2,3,VI*%
%TO.N,VBUS*%
X119550000Y-69150000D03*
%TD*%
D34*
%TO.P,R1,1*%
%TO.N,Net-(SW1-B)*%
X96200000Y-57270000D03*
%TO.P,R1,2*%
%TO.N,/BOOT0*%
X96200000Y-56250000D03*
%TD*%
D29*
%TO.P,C3,1*%
%TO.N,+3.3V*%
X114130000Y-69400000D03*
%TO.P,C3,2*%
%TO.N,GND*%
X113170000Y-69400000D03*
%TD*%
D22*
%TO.P,R5,1*%
%TO.N,+3.3V*%
X107380000Y-78450000D03*
%TO.P,R5,2*%
%TO.N,/I2C2_SCL*%
X108400000Y-78450000D03*
%TD*%
D29*
%TO.P,C11,1*%
%TO.N,/HSE_OUT*%
X102010000Y-63300000D03*
%TO.P,C11,2*%
%TO.N,GND*%
X101050000Y-63300000D03*
%TD*%
D35*
%TO.N,+3.3V*%
X105900000Y-79650000D03*
X104590000Y-79650000D03*
X109100000Y-76100000D03*
X107750000Y-76100000D03*
%TO.N,GND*%
X124650000Y-70750000D03*
X95400000Y-53600000D03*
X131800000Y-68300000D03*
X102600000Y-60900000D03*
X128400000Y-71400000D03*
X124200000Y-67050000D03*
X103650000Y-63950000D03*
X113150000Y-70500000D03*
X123750000Y-70750000D03*
X127600000Y-60550000D03*
X109900000Y-69250000D03*
X103550000Y-59600000D03*
X103612500Y-66987500D03*
X108600000Y-60650000D03*
X99400000Y-59750000D03*
X118700000Y-61300000D03*
X124200000Y-66050000D03*
X103650000Y-70450000D03*
X98050000Y-64950000D03*
%TO.N,/HSE_OUT*%
X102450000Y-62700000D03*
%TD*%
D36*
%TO.N,+3.3V*%
X113612500Y-68262500D02*
X114250000Y-68900000D01*
X106700000Y-60550000D02*
X104770000Y-60550000D01*
D37*
X102700000Y-73750000D02*
X102700000Y-79700000D01*
X105962500Y-69437500D02*
X104625000Y-69437500D01*
X105962500Y-69437500D02*
X105962500Y-70487500D01*
X133000000Y-68400000D02*
X133000000Y-72750000D01*
D36*
X107612500Y-55650000D02*
X107612500Y-56960000D01*
D37*
X106250000Y-78450000D02*
X106200000Y-78400000D01*
X97500000Y-79700000D02*
X95150000Y-77350000D01*
X95150000Y-60240000D02*
X95810000Y-60240000D01*
X114850000Y-71050000D02*
X114130000Y-70330000D01*
X102700000Y-79700000D02*
X97500000Y-79700000D01*
D36*
X108112500Y-58162500D02*
X107902500Y-57952500D01*
D37*
X95810000Y-60240000D02*
X100400000Y-55650000D01*
D36*
X107902500Y-57952500D02*
X107902500Y-57250000D01*
X114250000Y-68900000D02*
X114250000Y-69400000D01*
X121550000Y-60840000D02*
X122860000Y-60840000D01*
D37*
X117050000Y-71900000D02*
X116200000Y-71050000D01*
X107380000Y-76470000D02*
X107380000Y-78450000D01*
X123500000Y-46000000D02*
X124920000Y-47420000D01*
X104600000Y-55650000D02*
X104600000Y-57200000D01*
X127000000Y-79250000D02*
X118600000Y-79250000D01*
X118600000Y-79250000D02*
X117050000Y-77700000D01*
X95150000Y-60240000D02*
X93710000Y-58800000D01*
X116200000Y-71050000D02*
X114850000Y-71050000D01*
X126700000Y-73300000D02*
X129000000Y-73300000D01*
X124920000Y-48100000D02*
X124920000Y-49420000D01*
X129000000Y-73300000D02*
X129000000Y-77150000D01*
X129050000Y-77200000D02*
X127000000Y-79250000D01*
X114130000Y-70330000D02*
X114130000Y-69400000D01*
X131650000Y-56100000D02*
X131650000Y-67050000D01*
X106200000Y-79350000D02*
X106200000Y-78400000D01*
X95150000Y-77350000D02*
X95150000Y-60240000D01*
X104590000Y-79650000D02*
X104540000Y-79700000D01*
X132482500Y-73267500D02*
X131220000Y-73267500D01*
X117050000Y-76100000D02*
X109100000Y-76100000D01*
X104600000Y-55650000D02*
X107612500Y-55650000D01*
X124920000Y-49420000D02*
X129575000Y-54075000D01*
D36*
X108112500Y-59137500D02*
X108112500Y-58162500D01*
D37*
X109490000Y-47510000D02*
X111000000Y-46000000D01*
X129575000Y-54075000D02*
X129625000Y-54075000D01*
X109490000Y-47900000D02*
X109490000Y-47510000D01*
X104540000Y-79700000D02*
X102700000Y-79700000D01*
X129000000Y-77150000D02*
X129050000Y-77200000D01*
X104625000Y-69437500D02*
X104612500Y-69450000D01*
X117050000Y-76100000D02*
X117050000Y-72650000D01*
D36*
X119690000Y-60840000D02*
X121550000Y-60840000D01*
D37*
X105962500Y-70487500D02*
X102700000Y-73750000D01*
X107750000Y-76100000D02*
X107380000Y-76470000D01*
D36*
X119200000Y-60350000D02*
X119690000Y-60840000D01*
D37*
X117050000Y-77700000D02*
X117050000Y-76100000D01*
X102700000Y-82300000D02*
X102700000Y-79700000D01*
D36*
X122860000Y-60840000D02*
X129625000Y-54075000D01*
D37*
X100400000Y-55650000D02*
X104600000Y-55650000D01*
D36*
X107612500Y-56960000D02*
X107902500Y-57250000D01*
D37*
X131187500Y-73300000D02*
X131220000Y-73267500D01*
X131650000Y-67050000D02*
X133000000Y-68400000D01*
D36*
X113612500Y-67462500D02*
X113612500Y-68262500D01*
X104770000Y-60550000D02*
X104750000Y-60530000D01*
D37*
X117050000Y-72650000D02*
X117050000Y-71900000D01*
D36*
X116450000Y-60350000D02*
X117600000Y-60350000D01*
D37*
X106700000Y-59300000D02*
X106700000Y-60450000D01*
X129625000Y-54075000D02*
X131650000Y-56100000D01*
X105900000Y-79650000D02*
X106200000Y-79350000D01*
X124920000Y-47420000D02*
X124920000Y-48100000D01*
X104600000Y-57200000D02*
X106700000Y-59300000D01*
X133000000Y-72750000D02*
X132482500Y-73267500D01*
X107380000Y-78450000D02*
X106250000Y-78450000D01*
D36*
X117600000Y-60350000D02*
X119200000Y-60350000D01*
X115025000Y-60550000D02*
X116250000Y-60550000D01*
X116250000Y-60550000D02*
X116450000Y-60350000D01*
D37*
X111000000Y-46000000D02*
X123500000Y-46000000D01*
X129000000Y-73300000D02*
X131187500Y-73300000D01*
D36*
%TO.N,GND*%
X116560000Y-61310000D02*
X117600000Y-61310000D01*
X109162500Y-55650000D02*
X109162500Y-56950000D01*
X113112500Y-67462500D02*
X113112500Y-69342500D01*
X131760000Y-69450000D02*
X131760000Y-68340000D01*
X99750000Y-61200000D02*
X99750000Y-60100000D01*
X101400000Y-60890000D02*
X102590000Y-60890000D01*
X118690000Y-61310000D02*
X118700000Y-61300000D01*
X103680000Y-63920000D02*
X103650000Y-63950000D01*
X131760000Y-68340000D02*
X131800000Y-68300000D01*
X129695000Y-60550000D02*
X129700000Y-60550000D01*
X117600000Y-61310000D02*
X118690000Y-61310000D01*
X108612500Y-60637500D02*
X108600000Y-60650000D01*
X104750000Y-59570000D02*
X103580000Y-59570000D01*
X105650000Y-64050000D02*
X105520000Y-63920000D01*
X116300000Y-61050000D02*
X116560000Y-61310000D01*
X113170000Y-69400000D02*
X113290000Y-69400000D01*
X102590000Y-60890000D02*
X102600000Y-60900000D01*
X108862500Y-57887500D02*
X108862500Y-57250000D01*
X108612500Y-59137500D02*
X108612500Y-58137500D01*
X106700000Y-64050000D02*
X105650000Y-64050000D01*
X108612500Y-58137500D02*
X108862500Y-57887500D01*
X108612500Y-59137500D02*
X108612500Y-60637500D01*
X99750000Y-60100000D02*
X99400000Y-59750000D01*
X105520000Y-63920000D02*
X104700000Y-63920000D01*
X98050000Y-63400000D02*
X98050000Y-64950000D01*
X113170000Y-69400000D02*
X113170000Y-70480000D01*
X103612500Y-66987500D02*
X103612500Y-67850000D01*
X93710000Y-54300000D02*
X94700000Y-54300000D01*
X103580000Y-59570000D02*
X103550000Y-59600000D01*
X108862500Y-69250000D02*
X109900000Y-69250000D01*
X113112500Y-69342500D02*
X113170000Y-69400000D01*
X104700000Y-63920000D02*
X103680000Y-63920000D01*
X109162500Y-56950000D02*
X108862500Y-57250000D01*
X103650000Y-70450000D02*
X103652500Y-70447500D01*
X113170000Y-70480000D02*
X113150000Y-70500000D01*
X129700000Y-60550000D02*
X127600000Y-60550000D01*
X115025000Y-61050000D02*
X116300000Y-61050000D01*
X103652500Y-70447500D02*
X103652500Y-69450000D01*
X94700000Y-54300000D02*
X95400000Y-53600000D01*
D37*
%TO.N,+3.3VA*%
X105962500Y-67862500D02*
X104585000Y-67862500D01*
D36*
X105470000Y-64880000D02*
X104700000Y-64880000D01*
D37*
X104572500Y-67850000D02*
X104572500Y-65007500D01*
D36*
X105800000Y-64550000D02*
X105470000Y-64880000D01*
X106700000Y-64550000D02*
X105800000Y-64550000D01*
D37*
X104585000Y-67862500D02*
X104572500Y-67850000D01*
X104572500Y-65007500D02*
X104700000Y-64880000D01*
D36*
%TO.N,/NRST*%
X107800000Y-63809380D02*
X107800000Y-66434380D01*
X107800000Y-66434380D02*
X107200000Y-67034380D01*
X107200000Y-68547500D02*
X107902500Y-69250000D01*
X107200000Y-67034380D02*
X107200000Y-68547500D01*
X106700000Y-63550000D02*
X107540620Y-63550000D01*
X107540620Y-63550000D02*
X107800000Y-63809380D01*
%TO.N,/HSE_IN*%
X104950000Y-61850000D02*
X101400000Y-61850000D01*
X101000000Y-62250000D02*
X98750000Y-62250000D01*
X98050000Y-61550000D02*
X98050000Y-61200000D01*
X98750000Y-62250000D02*
X98050000Y-61550000D01*
X101400000Y-61850000D02*
X101000000Y-62250000D01*
X105650000Y-62550000D02*
X104950000Y-61850000D01*
X106700000Y-62550000D02*
X105650000Y-62550000D01*
%TO.N,/HSE_OUT*%
X101400000Y-62910000D02*
X102240000Y-62910000D01*
X106700000Y-63050000D02*
X103200000Y-63050000D01*
X102380000Y-63870000D02*
X101400000Y-63870000D01*
X102240000Y-62910000D02*
X102450000Y-62700000D01*
X103200000Y-63050000D02*
X102380000Y-63870000D01*
X99750000Y-63400000D02*
X100220000Y-63870000D01*
X100220000Y-63870000D02*
X101400000Y-63870000D01*
D37*
%TO.N,/PWR_LED_K*%
X130740000Y-69450000D02*
X130740000Y-70912500D01*
X130740000Y-70912500D02*
X131220000Y-71392500D01*
D38*
%TO.N,/USE_D+*%
X121740000Y-61860000D02*
X121780000Y-61900000D01*
X115025000Y-62050000D02*
X120650000Y-62050000D01*
X121780000Y-61900000D02*
X129650000Y-61900000D01*
X120650000Y-62050000D02*
X120840000Y-61860000D01*
X121550000Y-61860000D02*
X121740000Y-61860000D01*
X120840000Y-61860000D02*
X121550000Y-61860000D01*
%TO.N,/USE_D-*%
X129650000Y-62550000D02*
X115025000Y-62550000D01*
D36*
%TO.N,/SWCLK*%
X113612500Y-57187500D02*
X119840000Y-50960000D01*
X113612500Y-59137500D02*
X113612500Y-57187500D01*
X119840000Y-50960000D02*
X119840000Y-47800000D01*
%TO.N,/SWDIO*%
X113937500Y-60212500D02*
X122380000Y-51770000D01*
X122380000Y-51770000D02*
X122380000Y-47800000D01*
X113937500Y-61303120D02*
X113937500Y-60212500D01*
X115025000Y-61550000D02*
X114184380Y-61550000D01*
X114184380Y-61550000D02*
X113937500Y-61303120D01*
%TO.N,/USART1_RX*%
X110612500Y-57037500D02*
X111550000Y-56100000D01*
X104400000Y-50650000D02*
X104410000Y-50640000D01*
X104410000Y-50640000D02*
X104410000Y-47900000D01*
X109550000Y-51500000D02*
X105250000Y-51500000D01*
X111550000Y-53500000D02*
X109550000Y-51500000D01*
X111550000Y-56100000D02*
X111550000Y-53500000D01*
X110612500Y-59137500D02*
X110612500Y-57037500D01*
X105250000Y-51500000D02*
X104400000Y-50650000D01*
%TO.N,/USART1_TX*%
X106950000Y-49600000D02*
X106950000Y-47900000D01*
X111112500Y-59137500D02*
X111112500Y-57837500D01*
X111112500Y-57837500D02*
X112650000Y-56300000D01*
X112650000Y-56300000D02*
X112650000Y-53100000D01*
X107700000Y-50350000D02*
X106950000Y-49600000D01*
X112650000Y-53100000D02*
X109950000Y-50400000D01*
X109950000Y-50350000D02*
X107700000Y-50350000D01*
%TO.N,/I2C2_SCL*%
X108400000Y-79400000D02*
X107780000Y-80020000D01*
X112612500Y-67462500D02*
X112612500Y-68587500D01*
X107780000Y-80020000D02*
X107780000Y-82300000D01*
X108400000Y-72800000D02*
X108400000Y-78450000D01*
X108400000Y-78450000D02*
X108400000Y-79400000D01*
X112612500Y-68587500D02*
X108400000Y-72800000D01*
%TO.N,/I2C2_SDA*%
X106184380Y-74215620D02*
X105180000Y-75220000D01*
X105180000Y-78400000D02*
X105180000Y-78580000D01*
X105180000Y-78580000D02*
X105240000Y-78640000D01*
X112112500Y-68303120D02*
X106200000Y-74215620D01*
X112112500Y-67462500D02*
X112112500Y-68303120D01*
X105240000Y-78640000D02*
X105240000Y-82300000D01*
X105180000Y-75220000D02*
X105180000Y-78400000D01*
X106200000Y-74215620D02*
X106184380Y-74215620D01*
%TO.N,Net-(SW1-B)*%
X93800000Y-57300000D02*
X93850000Y-57250000D01*
X96170000Y-57300000D02*
X96200000Y-57270000D01*
X93710000Y-57300000D02*
X96170000Y-57300000D01*
X93710000Y-57300000D02*
X93800000Y-57300000D01*
%TO.N,/BOOT0*%
X109200000Y-53000000D02*
X110112500Y-53912500D01*
X97300000Y-56250000D02*
X97950000Y-55600000D01*
X97950000Y-55600000D02*
X97950000Y-54150000D01*
X96200000Y-56250000D02*
X97300000Y-56250000D01*
X110112500Y-53912500D02*
X110112500Y-59137500D01*
X97950000Y-54150000D02*
X99100000Y-53000000D01*
X99100000Y-53000000D02*
X109200000Y-53000000D01*
%TD*%
%TA.AperFunction,Conductor*%
%TO.N,VBUS*%
G36*
X130393039Y-63095184D02*
G01*
X130438794Y-63147988D01*
X130450000Y-63199499D01*
X130450000Y-63433637D01*
X130430315Y-63500676D01*
X130394783Y-63536811D01*
X130181239Y-63679174D01*
X130114540Y-63699982D01*
X130112456Y-63700000D01*
X129749999Y-63700000D01*
X129500000Y-63949999D01*
X129500000Y-64228777D01*
X129480315Y-64295816D01*
X129438480Y-64335885D01*
X128900031Y-64649981D01*
X128899987Y-64650008D01*
X128080744Y-65180107D01*
X128013766Y-65199999D01*
X128013381Y-65200000D01*
X122150000Y-65200000D01*
X121951596Y-65365337D01*
X121849997Y-65450002D01*
X121649998Y-65700002D01*
X121500000Y-65949999D01*
X121500000Y-67470500D01*
X121480315Y-67537539D01*
X121427511Y-67583294D01*
X121376000Y-67594500D01*
X121211995Y-67594500D01*
X121157899Y-67599328D01*
X121114675Y-67607106D01*
X121114628Y-67607115D01*
X121086670Y-67613517D01*
X121086661Y-67613521D01*
X120985912Y-67663048D01*
X120929941Y-67704868D01*
X120868402Y-67766296D01*
X120773912Y-67892283D01*
X120762393Y-67905563D01*
X120620301Y-68047654D01*
X120598423Y-68072012D01*
X120581786Y-68092660D01*
X120577449Y-68098171D01*
X120577445Y-68098178D01*
X120526560Y-68198252D01*
X120506877Y-68265283D01*
X120494500Y-68351364D01*
X120494500Y-69929625D01*
X120474815Y-69996664D01*
X120444900Y-70028825D01*
X120198426Y-70213681D01*
X120183067Y-70225200D01*
X120117625Y-70249676D01*
X120108667Y-70250000D01*
X118851362Y-70250000D01*
X118784323Y-70230315D01*
X118763681Y-70213681D01*
X118536319Y-69986319D01*
X118502834Y-69924996D01*
X118500000Y-69898638D01*
X118500000Y-68079272D01*
X118513091Y-68023818D01*
X118615727Y-67818546D01*
X118663314Y-67767387D01*
X118726636Y-67750000D01*
X119800000Y-67750000D01*
X120050000Y-67550000D01*
X120098889Y-65447730D01*
X120120126Y-65381170D01*
X120132827Y-65365348D01*
X120963318Y-64488720D01*
X121023714Y-64453590D01*
X121053336Y-64450000D01*
X128049999Y-64450000D01*
X128050000Y-64450000D01*
X128850000Y-63950000D01*
X128889843Y-63192978D01*
X128913023Y-63127070D01*
X128968159Y-63084153D01*
X129013665Y-63075499D01*
X130326000Y-63075499D01*
X130393039Y-63095184D01*
G37*
%TD.AperFunction*%
%TD*%
%TA.AperFunction,Conductor*%
%TO.N,GND*%
G36*
X124550205Y-65548929D02*
G01*
X124616804Y-65570050D01*
X124635219Y-65585219D01*
X125213681Y-66163681D01*
X125247166Y-66225004D01*
X125250000Y-66251362D01*
X125250000Y-69550001D01*
X125749998Y-70549998D01*
X125749999Y-70549999D01*
X125750000Y-70550000D01*
X128608667Y-70550000D01*
X128675706Y-70569685D01*
X128683067Y-70574800D01*
X129000400Y-70812800D01*
X129042221Y-70868771D01*
X129050000Y-70912000D01*
X129050000Y-71735438D01*
X129030315Y-71802477D01*
X128997109Y-71837023D01*
X128582597Y-72127181D01*
X128516388Y-72149499D01*
X128510210Y-72149589D01*
X127590284Y-72140105D01*
X127543052Y-72128232D01*
X127542426Y-72129756D01*
X127537122Y-72127576D01*
X127470330Y-72107097D01*
X127470318Y-72107094D01*
X127384407Y-72093697D01*
X123738915Y-72050298D01*
X123672115Y-72029817D01*
X123634062Y-71990104D01*
X123223171Y-71305284D01*
X123205500Y-71241487D01*
X123205500Y-68359589D01*
X123203355Y-68333247D01*
X123201479Y-68310191D01*
X123194993Y-68270613D01*
X123190195Y-68247144D01*
X123160570Y-68181804D01*
X123149524Y-68128542D01*
X123150000Y-68100000D01*
X123149998Y-68099999D01*
X123149999Y-68099999D01*
X123108561Y-68080266D01*
X123071421Y-68053131D01*
X123064078Y-68045300D01*
X123044306Y-68024215D01*
X122624809Y-67688617D01*
X122624808Y-67688616D01*
X122624799Y-67688609D01*
X122612201Y-67679054D01*
X122601776Y-67671565D01*
X122601772Y-67671563D01*
X122509614Y-67626561D01*
X122454832Y-67610475D01*
X122442579Y-67606877D01*
X122442577Y-67606876D01*
X122442575Y-67606876D01*
X122356503Y-67594500D01*
X122356500Y-67594500D01*
X122220132Y-67594500D01*
X122153093Y-67574815D01*
X122107338Y-67522011D01*
X122096189Y-67474258D01*
X122051867Y-66011637D01*
X122069512Y-65944036D01*
X122098023Y-65911318D01*
X122564775Y-65535369D01*
X122629330Y-65508647D01*
X122645216Y-65507969D01*
X124550205Y-65548929D01*
G37*
%TD.AperFunction*%
%TD*%
%TA.AperFunction,Conductor*%
%TO.N,+3.3V*%
G36*
X122423542Y-67919685D02*
G01*
X122433965Y-67927172D01*
X122853462Y-68262770D01*
X122893514Y-68320019D01*
X122900000Y-68359597D01*
X122900000Y-72000000D01*
X123250000Y-72350000D01*
X127380770Y-72399175D01*
X127447568Y-72419656D01*
X127485620Y-72459367D01*
X127732329Y-72870549D01*
X127750000Y-72934345D01*
X127750000Y-74002416D01*
X127730315Y-74069455D01*
X127718170Y-74085366D01*
X127336942Y-74508953D01*
X127277465Y-74545613D01*
X127244775Y-74550000D01*
X124500000Y-74550000D01*
X124250001Y-75099996D01*
X124250000Y-75100002D01*
X124250000Y-76238000D01*
X124230315Y-76305039D01*
X124200400Y-76337200D01*
X123493846Y-76867116D01*
X123483067Y-76875200D01*
X123417625Y-76899676D01*
X123408667Y-76900000D01*
X120298483Y-76900000D01*
X120231444Y-76880315D01*
X120214376Y-76867116D01*
X119639893Y-76336824D01*
X119603984Y-76276888D01*
X119600000Y-76245708D01*
X119600000Y-72243497D01*
X119619685Y-72176458D01*
X119627172Y-72166035D01*
X120800000Y-70700000D01*
X120800000Y-68351362D01*
X120819685Y-68284323D01*
X120836314Y-68263685D01*
X121000000Y-68100000D01*
X121112800Y-67949600D01*
X121168771Y-67907779D01*
X121212000Y-67900000D01*
X122356503Y-67900000D01*
X122423542Y-67919685D01*
G37*
%TD.AperFunction*%
%TD*%
M02*
