%TF.GenerationSoftware,KiCad,Pcbnew,8.0.8*%
%TF.CreationDate,2025-03-31T20:29:24+08:00*%
%TF.ProjectId,1,312e6b69-6361-4645-9f70-636258585858,rev?*%
%TF.SameCoordinates,Original*%
%TF.FileFunction,Drillmap*%
%TF.FilePolarity,Positive*%
%FSLAX45Y45*%
G04 Gerber Fmt 4.5, Leading zero omitted, Abs format (unit mm)*
G04 Created by KiCad (PCBNEW 8.0.8) date 2025-03-31 20:29:24*
%MOMM*%
%LPD*%
G01*
G04 APERTURE LIST*
%ADD10C,0.200000*%
%ADD11C,0.100000*%
%ADD12C,0.210000*%
G04 APERTURE END LIST*
D10*
X13245000Y-4480000D02*
G75*
G02*
X13528398Y-4729679I5000J-280000D01*
G01*
X9278719Y-8513078D02*
X13283719Y-8508115D01*
X13528398Y-4729679D02*
X13533398Y-8224679D01*
X9240000Y-4485000D02*
X13245000Y-4480037D01*
X8990321Y-4768398D02*
X8995321Y-8263398D01*
X8990321Y-4768398D02*
G75*
G02*
X9240000Y-4485002I279999J4998D01*
G01*
X9278719Y-8513078D02*
G75*
G02*
X8995324Y-8263398I-4999J279998D01*
G01*
X13533398Y-8224679D02*
G75*
G02*
X13283719Y-8508077I-279998J-5001D01*
G01*
D11*
X13035000Y-5900000D02*
X13115000Y-5980000D01*
X13115000Y-5900000D02*
X13035000Y-5980000D01*
X13035000Y-6400000D02*
X13115000Y-6480000D01*
X13115000Y-6400000D02*
X13035000Y-6480000D01*
X9240000Y-5505000D02*
G75*
G02*
X9150000Y-5505000I-45000J0D01*
G01*
X9150000Y-5505000D02*
G75*
G02*
X9240000Y-5505000I45000J0D01*
G01*
X9240000Y-5805000D02*
G75*
G02*
X9150000Y-5805000I-45000J0D01*
G01*
X9150000Y-5805000D02*
G75*
G02*
X9240000Y-5805000I45000J0D01*
G01*
D12*
X9270320Y-4658398D02*
X9270320Y-4868398D01*
X9165320Y-4763398D02*
X9375320Y-4763398D01*
X9273719Y-8128078D02*
X9273719Y-8338078D01*
X9168719Y-8233078D02*
X9378719Y-8233078D01*
X13250000Y-4655000D02*
X13250000Y-4865000D01*
X13145000Y-4760000D02*
X13355000Y-4760000D01*
X13253398Y-8124679D02*
X13253398Y-8334679D01*
X13148398Y-8229679D02*
X13358398Y-8229679D01*
D10*
X9241053Y-8834606D02*
X9241053Y-8634606D01*
X9241053Y-8634606D02*
X9288672Y-8634606D01*
X9288672Y-8634606D02*
X9317243Y-8644130D01*
X9317243Y-8644130D02*
X9336291Y-8663177D01*
X9336291Y-8663177D02*
X9345815Y-8682225D01*
X9345815Y-8682225D02*
X9355339Y-8720320D01*
X9355339Y-8720320D02*
X9355339Y-8748892D01*
X9355339Y-8748892D02*
X9345815Y-8786987D01*
X9345815Y-8786987D02*
X9336291Y-8806035D01*
X9336291Y-8806035D02*
X9317243Y-8825082D01*
X9317243Y-8825082D02*
X9288672Y-8834606D01*
X9288672Y-8834606D02*
X9241053Y-8834606D01*
X9441053Y-8834606D02*
X9441053Y-8701273D01*
X9441053Y-8739368D02*
X9450577Y-8720320D01*
X9450577Y-8720320D02*
X9460101Y-8710796D01*
X9460101Y-8710796D02*
X9479148Y-8701273D01*
X9479148Y-8701273D02*
X9498196Y-8701273D01*
X9564862Y-8834606D02*
X9564862Y-8701273D01*
X9564862Y-8634606D02*
X9555339Y-8644130D01*
X9555339Y-8644130D02*
X9564862Y-8653654D01*
X9564862Y-8653654D02*
X9574386Y-8644130D01*
X9574386Y-8644130D02*
X9564862Y-8634606D01*
X9564862Y-8634606D02*
X9564862Y-8653654D01*
X9688672Y-8834606D02*
X9669624Y-8825082D01*
X9669624Y-8825082D02*
X9660101Y-8806035D01*
X9660101Y-8806035D02*
X9660101Y-8634606D01*
X9793434Y-8834606D02*
X9774386Y-8825082D01*
X9774386Y-8825082D02*
X9764862Y-8806035D01*
X9764862Y-8806035D02*
X9764862Y-8634606D01*
X10022005Y-8834606D02*
X10022005Y-8634606D01*
X10022005Y-8634606D02*
X10088672Y-8777463D01*
X10088672Y-8777463D02*
X10155339Y-8634606D01*
X10155339Y-8634606D02*
X10155339Y-8834606D01*
X10336291Y-8834606D02*
X10336291Y-8729844D01*
X10336291Y-8729844D02*
X10326767Y-8710796D01*
X10326767Y-8710796D02*
X10307720Y-8701273D01*
X10307720Y-8701273D02*
X10269624Y-8701273D01*
X10269624Y-8701273D02*
X10250577Y-8710796D01*
X10336291Y-8825082D02*
X10317243Y-8834606D01*
X10317243Y-8834606D02*
X10269624Y-8834606D01*
X10269624Y-8834606D02*
X10250577Y-8825082D01*
X10250577Y-8825082D02*
X10241053Y-8806035D01*
X10241053Y-8806035D02*
X10241053Y-8786987D01*
X10241053Y-8786987D02*
X10250577Y-8767939D01*
X10250577Y-8767939D02*
X10269624Y-8758416D01*
X10269624Y-8758416D02*
X10317243Y-8758416D01*
X10317243Y-8758416D02*
X10336291Y-8748892D01*
X10431529Y-8701273D02*
X10431529Y-8901273D01*
X10431529Y-8710796D02*
X10450577Y-8701273D01*
X10450577Y-8701273D02*
X10488672Y-8701273D01*
X10488672Y-8701273D02*
X10507720Y-8710796D01*
X10507720Y-8710796D02*
X10517243Y-8720320D01*
X10517243Y-8720320D02*
X10526767Y-8739368D01*
X10526767Y-8739368D02*
X10526767Y-8796511D01*
X10526767Y-8796511D02*
X10517243Y-8815558D01*
X10517243Y-8815558D02*
X10507720Y-8825082D01*
X10507720Y-8825082D02*
X10488672Y-8834606D01*
X10488672Y-8834606D02*
X10450577Y-8834606D01*
X10450577Y-8834606D02*
X10431529Y-8825082D01*
X10612482Y-8815558D02*
X10622005Y-8825082D01*
X10622005Y-8825082D02*
X10612482Y-8834606D01*
X10612482Y-8834606D02*
X10602958Y-8825082D01*
X10602958Y-8825082D02*
X10612482Y-8815558D01*
X10612482Y-8815558D02*
X10612482Y-8834606D01*
X10612482Y-8710796D02*
X10622005Y-8720320D01*
X10622005Y-8720320D02*
X10612482Y-8729844D01*
X10612482Y-8729844D02*
X10602958Y-8720320D01*
X10602958Y-8720320D02*
X10612482Y-8710796D01*
X10612482Y-8710796D02*
X10612482Y-8729844D01*
D11*
X8900276Y-9123122D02*
X8980276Y-9203122D01*
X8980276Y-9123122D02*
X8900276Y-9203122D01*
D10*
X9279148Y-9054606D02*
X9298196Y-9054606D01*
X9298196Y-9054606D02*
X9317243Y-9064130D01*
X9317243Y-9064130D02*
X9326767Y-9073654D01*
X9326767Y-9073654D02*
X9336291Y-9092701D01*
X9336291Y-9092701D02*
X9345815Y-9130796D01*
X9345815Y-9130796D02*
X9345815Y-9178416D01*
X9345815Y-9178416D02*
X9336291Y-9216511D01*
X9336291Y-9216511D02*
X9326767Y-9235558D01*
X9326767Y-9235558D02*
X9317243Y-9245082D01*
X9317243Y-9245082D02*
X9298196Y-9254606D01*
X9298196Y-9254606D02*
X9279148Y-9254606D01*
X9279148Y-9254606D02*
X9260101Y-9245082D01*
X9260101Y-9245082D02*
X9250577Y-9235558D01*
X9250577Y-9235558D02*
X9241053Y-9216511D01*
X9241053Y-9216511D02*
X9231529Y-9178416D01*
X9231529Y-9178416D02*
X9231529Y-9130796D01*
X9231529Y-9130796D02*
X9241053Y-9092701D01*
X9241053Y-9092701D02*
X9250577Y-9073654D01*
X9250577Y-9073654D02*
X9260101Y-9064130D01*
X9260101Y-9064130D02*
X9279148Y-9054606D01*
X9431529Y-9235558D02*
X9441053Y-9245082D01*
X9441053Y-9245082D02*
X9431529Y-9254606D01*
X9431529Y-9254606D02*
X9422005Y-9245082D01*
X9422005Y-9245082D02*
X9431529Y-9235558D01*
X9431529Y-9235558D02*
X9431529Y-9254606D01*
X9555339Y-9140320D02*
X9536291Y-9130796D01*
X9536291Y-9130796D02*
X9526767Y-9121273D01*
X9526767Y-9121273D02*
X9517243Y-9102225D01*
X9517243Y-9102225D02*
X9517243Y-9092701D01*
X9517243Y-9092701D02*
X9526767Y-9073654D01*
X9526767Y-9073654D02*
X9536291Y-9064130D01*
X9536291Y-9064130D02*
X9555339Y-9054606D01*
X9555339Y-9054606D02*
X9593434Y-9054606D01*
X9593434Y-9054606D02*
X9612482Y-9064130D01*
X9612482Y-9064130D02*
X9622005Y-9073654D01*
X9622005Y-9073654D02*
X9631529Y-9092701D01*
X9631529Y-9092701D02*
X9631529Y-9102225D01*
X9631529Y-9102225D02*
X9622005Y-9121273D01*
X9622005Y-9121273D02*
X9612482Y-9130796D01*
X9612482Y-9130796D02*
X9593434Y-9140320D01*
X9593434Y-9140320D02*
X9555339Y-9140320D01*
X9555339Y-9140320D02*
X9536291Y-9149844D01*
X9536291Y-9149844D02*
X9526767Y-9159368D01*
X9526767Y-9159368D02*
X9517243Y-9178416D01*
X9517243Y-9178416D02*
X9517243Y-9216511D01*
X9517243Y-9216511D02*
X9526767Y-9235558D01*
X9526767Y-9235558D02*
X9536291Y-9245082D01*
X9536291Y-9245082D02*
X9555339Y-9254606D01*
X9555339Y-9254606D02*
X9593434Y-9254606D01*
X9593434Y-9254606D02*
X9612482Y-9245082D01*
X9612482Y-9245082D02*
X9622005Y-9235558D01*
X9622005Y-9235558D02*
X9631529Y-9216511D01*
X9631529Y-9216511D02*
X9631529Y-9178416D01*
X9631529Y-9178416D02*
X9622005Y-9159368D01*
X9622005Y-9159368D02*
X9612482Y-9149844D01*
X9612482Y-9149844D02*
X9593434Y-9140320D01*
X9755339Y-9054606D02*
X9774386Y-9054606D01*
X9774386Y-9054606D02*
X9793434Y-9064130D01*
X9793434Y-9064130D02*
X9802958Y-9073654D01*
X9802958Y-9073654D02*
X9812482Y-9092701D01*
X9812482Y-9092701D02*
X9822005Y-9130796D01*
X9822005Y-9130796D02*
X9822005Y-9178416D01*
X9822005Y-9178416D02*
X9812482Y-9216511D01*
X9812482Y-9216511D02*
X9802958Y-9235558D01*
X9802958Y-9235558D02*
X9793434Y-9245082D01*
X9793434Y-9245082D02*
X9774386Y-9254606D01*
X9774386Y-9254606D02*
X9755339Y-9254606D01*
X9755339Y-9254606D02*
X9736291Y-9245082D01*
X9736291Y-9245082D02*
X9726767Y-9235558D01*
X9726767Y-9235558D02*
X9717243Y-9216511D01*
X9717243Y-9216511D02*
X9707720Y-9178416D01*
X9707720Y-9178416D02*
X9707720Y-9130796D01*
X9707720Y-9130796D02*
X9717243Y-9092701D01*
X9717243Y-9092701D02*
X9726767Y-9073654D01*
X9726767Y-9073654D02*
X9736291Y-9064130D01*
X9736291Y-9064130D02*
X9755339Y-9054606D01*
X9945815Y-9054606D02*
X9964863Y-9054606D01*
X9964863Y-9054606D02*
X9983910Y-9064130D01*
X9983910Y-9064130D02*
X9993434Y-9073654D01*
X9993434Y-9073654D02*
X10002958Y-9092701D01*
X10002958Y-9092701D02*
X10012482Y-9130796D01*
X10012482Y-9130796D02*
X10012482Y-9178416D01*
X10012482Y-9178416D02*
X10002958Y-9216511D01*
X10002958Y-9216511D02*
X9993434Y-9235558D01*
X9993434Y-9235558D02*
X9983910Y-9245082D01*
X9983910Y-9245082D02*
X9964863Y-9254606D01*
X9964863Y-9254606D02*
X9945815Y-9254606D01*
X9945815Y-9254606D02*
X9926767Y-9245082D01*
X9926767Y-9245082D02*
X9917243Y-9235558D01*
X9917243Y-9235558D02*
X9907720Y-9216511D01*
X9907720Y-9216511D02*
X9898196Y-9178416D01*
X9898196Y-9178416D02*
X9898196Y-9130796D01*
X9898196Y-9130796D02*
X9907720Y-9092701D01*
X9907720Y-9092701D02*
X9917243Y-9073654D01*
X9917243Y-9073654D02*
X9926767Y-9064130D01*
X9926767Y-9064130D02*
X9945815Y-9054606D01*
X10098196Y-9254606D02*
X10098196Y-9121273D01*
X10098196Y-9140320D02*
X10107720Y-9130796D01*
X10107720Y-9130796D02*
X10126767Y-9121273D01*
X10126767Y-9121273D02*
X10155339Y-9121273D01*
X10155339Y-9121273D02*
X10174386Y-9130796D01*
X10174386Y-9130796D02*
X10183910Y-9149844D01*
X10183910Y-9149844D02*
X10183910Y-9254606D01*
X10183910Y-9149844D02*
X10193434Y-9130796D01*
X10193434Y-9130796D02*
X10212482Y-9121273D01*
X10212482Y-9121273D02*
X10241053Y-9121273D01*
X10241053Y-9121273D02*
X10260101Y-9130796D01*
X10260101Y-9130796D02*
X10269624Y-9149844D01*
X10269624Y-9149844D02*
X10269624Y-9254606D01*
X10364863Y-9254606D02*
X10364863Y-9121273D01*
X10364863Y-9140320D02*
X10374386Y-9130796D01*
X10374386Y-9130796D02*
X10393434Y-9121273D01*
X10393434Y-9121273D02*
X10422005Y-9121273D01*
X10422005Y-9121273D02*
X10441053Y-9130796D01*
X10441053Y-9130796D02*
X10450577Y-9149844D01*
X10450577Y-9149844D02*
X10450577Y-9254606D01*
X10450577Y-9149844D02*
X10460101Y-9130796D01*
X10460101Y-9130796D02*
X10479148Y-9121273D01*
X10479148Y-9121273D02*
X10507720Y-9121273D01*
X10507720Y-9121273D02*
X10526767Y-9130796D01*
X10526767Y-9130796D02*
X10536291Y-9149844D01*
X10536291Y-9149844D02*
X10536291Y-9254606D01*
X10926767Y-9045082D02*
X10755339Y-9302225D01*
X11183910Y-9054606D02*
X11202958Y-9054606D01*
X11202958Y-9054606D02*
X11222005Y-9064130D01*
X11222005Y-9064130D02*
X11231529Y-9073654D01*
X11231529Y-9073654D02*
X11241053Y-9092701D01*
X11241053Y-9092701D02*
X11250577Y-9130796D01*
X11250577Y-9130796D02*
X11250577Y-9178416D01*
X11250577Y-9178416D02*
X11241053Y-9216511D01*
X11241053Y-9216511D02*
X11231529Y-9235558D01*
X11231529Y-9235558D02*
X11222005Y-9245082D01*
X11222005Y-9245082D02*
X11202958Y-9254606D01*
X11202958Y-9254606D02*
X11183910Y-9254606D01*
X11183910Y-9254606D02*
X11164863Y-9245082D01*
X11164863Y-9245082D02*
X11155339Y-9235558D01*
X11155339Y-9235558D02*
X11145815Y-9216511D01*
X11145815Y-9216511D02*
X11136291Y-9178416D01*
X11136291Y-9178416D02*
X11136291Y-9130796D01*
X11136291Y-9130796D02*
X11145815Y-9092701D01*
X11145815Y-9092701D02*
X11155339Y-9073654D01*
X11155339Y-9073654D02*
X11164863Y-9064130D01*
X11164863Y-9064130D02*
X11183910Y-9054606D01*
X11336291Y-9235558D02*
X11345815Y-9245082D01*
X11345815Y-9245082D02*
X11336291Y-9254606D01*
X11336291Y-9254606D02*
X11326767Y-9245082D01*
X11326767Y-9245082D02*
X11336291Y-9235558D01*
X11336291Y-9235558D02*
X11336291Y-9254606D01*
X11469624Y-9054606D02*
X11488672Y-9054606D01*
X11488672Y-9054606D02*
X11507720Y-9064130D01*
X11507720Y-9064130D02*
X11517244Y-9073654D01*
X11517244Y-9073654D02*
X11526767Y-9092701D01*
X11526767Y-9092701D02*
X11536291Y-9130796D01*
X11536291Y-9130796D02*
X11536291Y-9178416D01*
X11536291Y-9178416D02*
X11526767Y-9216511D01*
X11526767Y-9216511D02*
X11517244Y-9235558D01*
X11517244Y-9235558D02*
X11507720Y-9245082D01*
X11507720Y-9245082D02*
X11488672Y-9254606D01*
X11488672Y-9254606D02*
X11469624Y-9254606D01*
X11469624Y-9254606D02*
X11450577Y-9245082D01*
X11450577Y-9245082D02*
X11441053Y-9235558D01*
X11441053Y-9235558D02*
X11431529Y-9216511D01*
X11431529Y-9216511D02*
X11422005Y-9178416D01*
X11422005Y-9178416D02*
X11422005Y-9130796D01*
X11422005Y-9130796D02*
X11431529Y-9092701D01*
X11431529Y-9092701D02*
X11441053Y-9073654D01*
X11441053Y-9073654D02*
X11450577Y-9064130D01*
X11450577Y-9064130D02*
X11469624Y-9054606D01*
X11602958Y-9054606D02*
X11726767Y-9054606D01*
X11726767Y-9054606D02*
X11660101Y-9130796D01*
X11660101Y-9130796D02*
X11688672Y-9130796D01*
X11688672Y-9130796D02*
X11707720Y-9140320D01*
X11707720Y-9140320D02*
X11717244Y-9149844D01*
X11717244Y-9149844D02*
X11726767Y-9168892D01*
X11726767Y-9168892D02*
X11726767Y-9216511D01*
X11726767Y-9216511D02*
X11717244Y-9235558D01*
X11717244Y-9235558D02*
X11707720Y-9245082D01*
X11707720Y-9245082D02*
X11688672Y-9254606D01*
X11688672Y-9254606D02*
X11631529Y-9254606D01*
X11631529Y-9254606D02*
X11612482Y-9245082D01*
X11612482Y-9245082D02*
X11602958Y-9235558D01*
X11917244Y-9254606D02*
X11802958Y-9254606D01*
X11860101Y-9254606D02*
X11860101Y-9054606D01*
X11860101Y-9054606D02*
X11841053Y-9083177D01*
X11841053Y-9083177D02*
X11822005Y-9102225D01*
X11822005Y-9102225D02*
X11802958Y-9111749D01*
X12098196Y-9054606D02*
X12002958Y-9054606D01*
X12002958Y-9054606D02*
X11993434Y-9149844D01*
X11993434Y-9149844D02*
X12002958Y-9140320D01*
X12002958Y-9140320D02*
X12022005Y-9130796D01*
X12022005Y-9130796D02*
X12069625Y-9130796D01*
X12069625Y-9130796D02*
X12088672Y-9140320D01*
X12088672Y-9140320D02*
X12098196Y-9149844D01*
X12098196Y-9149844D02*
X12107720Y-9168892D01*
X12107720Y-9168892D02*
X12107720Y-9216511D01*
X12107720Y-9216511D02*
X12098196Y-9235558D01*
X12098196Y-9235558D02*
X12088672Y-9245082D01*
X12088672Y-9245082D02*
X12069625Y-9254606D01*
X12069625Y-9254606D02*
X12022005Y-9254606D01*
X12022005Y-9254606D02*
X12002958Y-9245082D01*
X12002958Y-9245082D02*
X11993434Y-9235558D01*
X12183910Y-9054606D02*
X12183910Y-9092701D01*
X12260101Y-9054606D02*
X12260101Y-9092701D01*
X12555339Y-9330796D02*
X12545815Y-9321273D01*
X12545815Y-9321273D02*
X12526767Y-9292701D01*
X12526767Y-9292701D02*
X12517244Y-9273654D01*
X12517244Y-9273654D02*
X12507720Y-9245082D01*
X12507720Y-9245082D02*
X12498196Y-9197463D01*
X12498196Y-9197463D02*
X12498196Y-9159368D01*
X12498196Y-9159368D02*
X12507720Y-9111749D01*
X12507720Y-9111749D02*
X12517244Y-9083177D01*
X12517244Y-9083177D02*
X12526767Y-9064130D01*
X12526767Y-9064130D02*
X12545815Y-9035558D01*
X12545815Y-9035558D02*
X12555339Y-9026035D01*
X12622006Y-9073654D02*
X12631529Y-9064130D01*
X12631529Y-9064130D02*
X12650577Y-9054606D01*
X12650577Y-9054606D02*
X12698196Y-9054606D01*
X12698196Y-9054606D02*
X12717244Y-9064130D01*
X12717244Y-9064130D02*
X12726767Y-9073654D01*
X12726767Y-9073654D02*
X12736291Y-9092701D01*
X12736291Y-9092701D02*
X12736291Y-9111749D01*
X12736291Y-9111749D02*
X12726767Y-9140320D01*
X12726767Y-9140320D02*
X12612482Y-9254606D01*
X12612482Y-9254606D02*
X12736291Y-9254606D01*
X12974387Y-9254606D02*
X12974387Y-9054606D01*
X13060101Y-9254606D02*
X13060101Y-9149844D01*
X13060101Y-9149844D02*
X13050577Y-9130796D01*
X13050577Y-9130796D02*
X13031529Y-9121273D01*
X13031529Y-9121273D02*
X13002958Y-9121273D01*
X13002958Y-9121273D02*
X12983910Y-9130796D01*
X12983910Y-9130796D02*
X12974387Y-9140320D01*
X13183910Y-9254606D02*
X13164863Y-9245082D01*
X13164863Y-9245082D02*
X13155339Y-9235558D01*
X13155339Y-9235558D02*
X13145815Y-9216511D01*
X13145815Y-9216511D02*
X13145815Y-9159368D01*
X13145815Y-9159368D02*
X13155339Y-9140320D01*
X13155339Y-9140320D02*
X13164863Y-9130796D01*
X13164863Y-9130796D02*
X13183910Y-9121273D01*
X13183910Y-9121273D02*
X13212482Y-9121273D01*
X13212482Y-9121273D02*
X13231529Y-9130796D01*
X13231529Y-9130796D02*
X13241053Y-9140320D01*
X13241053Y-9140320D02*
X13250577Y-9159368D01*
X13250577Y-9159368D02*
X13250577Y-9216511D01*
X13250577Y-9216511D02*
X13241053Y-9235558D01*
X13241053Y-9235558D02*
X13231529Y-9245082D01*
X13231529Y-9245082D02*
X13212482Y-9254606D01*
X13212482Y-9254606D02*
X13183910Y-9254606D01*
X13364863Y-9254606D02*
X13345815Y-9245082D01*
X13345815Y-9245082D02*
X13336291Y-9226035D01*
X13336291Y-9226035D02*
X13336291Y-9054606D01*
X13517244Y-9245082D02*
X13498196Y-9254606D01*
X13498196Y-9254606D02*
X13460101Y-9254606D01*
X13460101Y-9254606D02*
X13441053Y-9245082D01*
X13441053Y-9245082D02*
X13431529Y-9226035D01*
X13431529Y-9226035D02*
X13431529Y-9149844D01*
X13431529Y-9149844D02*
X13441053Y-9130796D01*
X13441053Y-9130796D02*
X13460101Y-9121273D01*
X13460101Y-9121273D02*
X13498196Y-9121273D01*
X13498196Y-9121273D02*
X13517244Y-9130796D01*
X13517244Y-9130796D02*
X13526768Y-9149844D01*
X13526768Y-9149844D02*
X13526768Y-9168892D01*
X13526768Y-9168892D02*
X13431529Y-9187939D01*
X13602958Y-9245082D02*
X13622006Y-9254606D01*
X13622006Y-9254606D02*
X13660101Y-9254606D01*
X13660101Y-9254606D02*
X13679149Y-9245082D01*
X13679149Y-9245082D02*
X13688672Y-9226035D01*
X13688672Y-9226035D02*
X13688672Y-9216511D01*
X13688672Y-9216511D02*
X13679149Y-9197463D01*
X13679149Y-9197463D02*
X13660101Y-9187939D01*
X13660101Y-9187939D02*
X13631529Y-9187939D01*
X13631529Y-9187939D02*
X13612482Y-9178416D01*
X13612482Y-9178416D02*
X13602958Y-9159368D01*
X13602958Y-9159368D02*
X13602958Y-9149844D01*
X13602958Y-9149844D02*
X13612482Y-9130796D01*
X13612482Y-9130796D02*
X13631529Y-9121273D01*
X13631529Y-9121273D02*
X13660101Y-9121273D01*
X13660101Y-9121273D02*
X13679149Y-9130796D01*
X13755339Y-9330796D02*
X13764863Y-9321273D01*
X13764863Y-9321273D02*
X13783910Y-9292701D01*
X13783910Y-9292701D02*
X13793434Y-9273654D01*
X13793434Y-9273654D02*
X13802958Y-9245082D01*
X13802958Y-9245082D02*
X13812482Y-9197463D01*
X13812482Y-9197463D02*
X13812482Y-9159368D01*
X13812482Y-9159368D02*
X13802958Y-9111749D01*
X13802958Y-9111749D02*
X13793434Y-9083177D01*
X13793434Y-9083177D02*
X13783910Y-9064130D01*
X13783910Y-9064130D02*
X13764863Y-9035558D01*
X13764863Y-9035558D02*
X13755339Y-9026035D01*
X14117244Y-9330796D02*
X14107720Y-9321273D01*
X14107720Y-9321273D02*
X14088672Y-9292701D01*
X14088672Y-9292701D02*
X14079149Y-9273654D01*
X14079149Y-9273654D02*
X14069625Y-9245082D01*
X14069625Y-9245082D02*
X14060101Y-9197463D01*
X14060101Y-9197463D02*
X14060101Y-9159368D01*
X14060101Y-9159368D02*
X14069625Y-9111749D01*
X14069625Y-9111749D02*
X14079149Y-9083177D01*
X14079149Y-9083177D02*
X14088672Y-9064130D01*
X14088672Y-9064130D02*
X14107720Y-9035558D01*
X14107720Y-9035558D02*
X14117244Y-9026035D01*
X14193434Y-9121273D02*
X14193434Y-9254606D01*
X14193434Y-9140320D02*
X14202958Y-9130796D01*
X14202958Y-9130796D02*
X14222006Y-9121273D01*
X14222006Y-9121273D02*
X14250577Y-9121273D01*
X14250577Y-9121273D02*
X14269625Y-9130796D01*
X14269625Y-9130796D02*
X14279149Y-9149844D01*
X14279149Y-9149844D02*
X14279149Y-9254606D01*
X14402958Y-9254606D02*
X14383910Y-9245082D01*
X14383910Y-9245082D02*
X14374387Y-9235558D01*
X14374387Y-9235558D02*
X14364863Y-9216511D01*
X14364863Y-9216511D02*
X14364863Y-9159368D01*
X14364863Y-9159368D02*
X14374387Y-9140320D01*
X14374387Y-9140320D02*
X14383910Y-9130796D01*
X14383910Y-9130796D02*
X14402958Y-9121273D01*
X14402958Y-9121273D02*
X14431530Y-9121273D01*
X14431530Y-9121273D02*
X14450577Y-9130796D01*
X14450577Y-9130796D02*
X14460101Y-9140320D01*
X14460101Y-9140320D02*
X14469625Y-9159368D01*
X14469625Y-9159368D02*
X14469625Y-9216511D01*
X14469625Y-9216511D02*
X14460101Y-9235558D01*
X14460101Y-9235558D02*
X14450577Y-9245082D01*
X14450577Y-9245082D02*
X14431530Y-9254606D01*
X14431530Y-9254606D02*
X14402958Y-9254606D01*
X14526768Y-9121273D02*
X14602958Y-9121273D01*
X14555339Y-9054606D02*
X14555339Y-9226035D01*
X14555339Y-9226035D02*
X14564863Y-9245082D01*
X14564863Y-9245082D02*
X14583910Y-9254606D01*
X14583910Y-9254606D02*
X14602958Y-9254606D01*
X14822006Y-9121273D02*
X14822006Y-9321273D01*
X14822006Y-9130796D02*
X14841053Y-9121273D01*
X14841053Y-9121273D02*
X14879149Y-9121273D01*
X14879149Y-9121273D02*
X14898196Y-9130796D01*
X14898196Y-9130796D02*
X14907720Y-9140320D01*
X14907720Y-9140320D02*
X14917244Y-9159368D01*
X14917244Y-9159368D02*
X14917244Y-9216511D01*
X14917244Y-9216511D02*
X14907720Y-9235558D01*
X14907720Y-9235558D02*
X14898196Y-9245082D01*
X14898196Y-9245082D02*
X14879149Y-9254606D01*
X14879149Y-9254606D02*
X14841053Y-9254606D01*
X14841053Y-9254606D02*
X14822006Y-9245082D01*
X15031530Y-9254606D02*
X15012482Y-9245082D01*
X15012482Y-9245082D02*
X15002958Y-9226035D01*
X15002958Y-9226035D02*
X15002958Y-9054606D01*
X15193434Y-9254606D02*
X15193434Y-9149844D01*
X15193434Y-9149844D02*
X15183911Y-9130796D01*
X15183911Y-9130796D02*
X15164863Y-9121273D01*
X15164863Y-9121273D02*
X15126768Y-9121273D01*
X15126768Y-9121273D02*
X15107720Y-9130796D01*
X15193434Y-9245082D02*
X15174387Y-9254606D01*
X15174387Y-9254606D02*
X15126768Y-9254606D01*
X15126768Y-9254606D02*
X15107720Y-9245082D01*
X15107720Y-9245082D02*
X15098196Y-9226035D01*
X15098196Y-9226035D02*
X15098196Y-9206987D01*
X15098196Y-9206987D02*
X15107720Y-9187939D01*
X15107720Y-9187939D02*
X15126768Y-9178416D01*
X15126768Y-9178416D02*
X15174387Y-9178416D01*
X15174387Y-9178416D02*
X15193434Y-9168892D01*
X15260101Y-9121273D02*
X15336291Y-9121273D01*
X15288672Y-9054606D02*
X15288672Y-9226035D01*
X15288672Y-9226035D02*
X15298196Y-9245082D01*
X15298196Y-9245082D02*
X15317244Y-9254606D01*
X15317244Y-9254606D02*
X15336291Y-9254606D01*
X15479149Y-9245082D02*
X15460101Y-9254606D01*
X15460101Y-9254606D02*
X15422006Y-9254606D01*
X15422006Y-9254606D02*
X15402958Y-9245082D01*
X15402958Y-9245082D02*
X15393434Y-9226035D01*
X15393434Y-9226035D02*
X15393434Y-9149844D01*
X15393434Y-9149844D02*
X15402958Y-9130796D01*
X15402958Y-9130796D02*
X15422006Y-9121273D01*
X15422006Y-9121273D02*
X15460101Y-9121273D01*
X15460101Y-9121273D02*
X15479149Y-9130796D01*
X15479149Y-9130796D02*
X15488672Y-9149844D01*
X15488672Y-9149844D02*
X15488672Y-9168892D01*
X15488672Y-9168892D02*
X15393434Y-9187939D01*
X15660101Y-9254606D02*
X15660101Y-9054606D01*
X15660101Y-9245082D02*
X15641053Y-9254606D01*
X15641053Y-9254606D02*
X15602958Y-9254606D01*
X15602958Y-9254606D02*
X15583911Y-9245082D01*
X15583911Y-9245082D02*
X15574387Y-9235558D01*
X15574387Y-9235558D02*
X15564863Y-9216511D01*
X15564863Y-9216511D02*
X15564863Y-9159368D01*
X15564863Y-9159368D02*
X15574387Y-9140320D01*
X15574387Y-9140320D02*
X15583911Y-9130796D01*
X15583911Y-9130796D02*
X15602958Y-9121273D01*
X15602958Y-9121273D02*
X15641053Y-9121273D01*
X15641053Y-9121273D02*
X15660101Y-9130796D01*
X15736292Y-9330796D02*
X15745815Y-9321273D01*
X15745815Y-9321273D02*
X15764863Y-9292701D01*
X15764863Y-9292701D02*
X15774387Y-9273654D01*
X15774387Y-9273654D02*
X15783911Y-9245082D01*
X15783911Y-9245082D02*
X15793434Y-9197463D01*
X15793434Y-9197463D02*
X15793434Y-9159368D01*
X15793434Y-9159368D02*
X15783911Y-9111749D01*
X15783911Y-9111749D02*
X15774387Y-9083177D01*
X15774387Y-9083177D02*
X15764863Y-9064130D01*
X15764863Y-9064130D02*
X15745815Y-9035558D01*
X15745815Y-9035558D02*
X15736292Y-9026035D01*
D11*
X8980276Y-9427122D02*
G75*
G02*
X8890276Y-9427122I-45000J0D01*
G01*
X8890276Y-9427122D02*
G75*
G02*
X8980276Y-9427122I45000J0D01*
G01*
D10*
X9279148Y-9318606D02*
X9298196Y-9318606D01*
X9298196Y-9318606D02*
X9317243Y-9328130D01*
X9317243Y-9328130D02*
X9326767Y-9337654D01*
X9326767Y-9337654D02*
X9336291Y-9356701D01*
X9336291Y-9356701D02*
X9345815Y-9394796D01*
X9345815Y-9394796D02*
X9345815Y-9442416D01*
X9345815Y-9442416D02*
X9336291Y-9480511D01*
X9336291Y-9480511D02*
X9326767Y-9499558D01*
X9326767Y-9499558D02*
X9317243Y-9509082D01*
X9317243Y-9509082D02*
X9298196Y-9518606D01*
X9298196Y-9518606D02*
X9279148Y-9518606D01*
X9279148Y-9518606D02*
X9260101Y-9509082D01*
X9260101Y-9509082D02*
X9250577Y-9499558D01*
X9250577Y-9499558D02*
X9241053Y-9480511D01*
X9241053Y-9480511D02*
X9231529Y-9442416D01*
X9231529Y-9442416D02*
X9231529Y-9394796D01*
X9231529Y-9394796D02*
X9241053Y-9356701D01*
X9241053Y-9356701D02*
X9250577Y-9337654D01*
X9250577Y-9337654D02*
X9260101Y-9328130D01*
X9260101Y-9328130D02*
X9279148Y-9318606D01*
X9431529Y-9499558D02*
X9441053Y-9509082D01*
X9441053Y-9509082D02*
X9431529Y-9518606D01*
X9431529Y-9518606D02*
X9422005Y-9509082D01*
X9422005Y-9509082D02*
X9431529Y-9499558D01*
X9431529Y-9499558D02*
X9431529Y-9518606D01*
X9536291Y-9518606D02*
X9574386Y-9518606D01*
X9574386Y-9518606D02*
X9593434Y-9509082D01*
X9593434Y-9509082D02*
X9602958Y-9499558D01*
X9602958Y-9499558D02*
X9622005Y-9470987D01*
X9622005Y-9470987D02*
X9631529Y-9432892D01*
X9631529Y-9432892D02*
X9631529Y-9356701D01*
X9631529Y-9356701D02*
X9622005Y-9337654D01*
X9622005Y-9337654D02*
X9612482Y-9328130D01*
X9612482Y-9328130D02*
X9593434Y-9318606D01*
X9593434Y-9318606D02*
X9555339Y-9318606D01*
X9555339Y-9318606D02*
X9536291Y-9328130D01*
X9536291Y-9328130D02*
X9526767Y-9337654D01*
X9526767Y-9337654D02*
X9517243Y-9356701D01*
X9517243Y-9356701D02*
X9517243Y-9404320D01*
X9517243Y-9404320D02*
X9526767Y-9423368D01*
X9526767Y-9423368D02*
X9536291Y-9432892D01*
X9536291Y-9432892D02*
X9555339Y-9442416D01*
X9555339Y-9442416D02*
X9593434Y-9442416D01*
X9593434Y-9442416D02*
X9612482Y-9432892D01*
X9612482Y-9432892D02*
X9622005Y-9423368D01*
X9622005Y-9423368D02*
X9631529Y-9404320D01*
X9755339Y-9318606D02*
X9774386Y-9318606D01*
X9774386Y-9318606D02*
X9793434Y-9328130D01*
X9793434Y-9328130D02*
X9802958Y-9337654D01*
X9802958Y-9337654D02*
X9812482Y-9356701D01*
X9812482Y-9356701D02*
X9822005Y-9394796D01*
X9822005Y-9394796D02*
X9822005Y-9442416D01*
X9822005Y-9442416D02*
X9812482Y-9480511D01*
X9812482Y-9480511D02*
X9802958Y-9499558D01*
X9802958Y-9499558D02*
X9793434Y-9509082D01*
X9793434Y-9509082D02*
X9774386Y-9518606D01*
X9774386Y-9518606D02*
X9755339Y-9518606D01*
X9755339Y-9518606D02*
X9736291Y-9509082D01*
X9736291Y-9509082D02*
X9726767Y-9499558D01*
X9726767Y-9499558D02*
X9717243Y-9480511D01*
X9717243Y-9480511D02*
X9707720Y-9442416D01*
X9707720Y-9442416D02*
X9707720Y-9394796D01*
X9707720Y-9394796D02*
X9717243Y-9356701D01*
X9717243Y-9356701D02*
X9726767Y-9337654D01*
X9726767Y-9337654D02*
X9736291Y-9328130D01*
X9736291Y-9328130D02*
X9755339Y-9318606D01*
X9945815Y-9318606D02*
X9964863Y-9318606D01*
X9964863Y-9318606D02*
X9983910Y-9328130D01*
X9983910Y-9328130D02*
X9993434Y-9337654D01*
X9993434Y-9337654D02*
X10002958Y-9356701D01*
X10002958Y-9356701D02*
X10012482Y-9394796D01*
X10012482Y-9394796D02*
X10012482Y-9442416D01*
X10012482Y-9442416D02*
X10002958Y-9480511D01*
X10002958Y-9480511D02*
X9993434Y-9499558D01*
X9993434Y-9499558D02*
X9983910Y-9509082D01*
X9983910Y-9509082D02*
X9964863Y-9518606D01*
X9964863Y-9518606D02*
X9945815Y-9518606D01*
X9945815Y-9518606D02*
X9926767Y-9509082D01*
X9926767Y-9509082D02*
X9917243Y-9499558D01*
X9917243Y-9499558D02*
X9907720Y-9480511D01*
X9907720Y-9480511D02*
X9898196Y-9442416D01*
X9898196Y-9442416D02*
X9898196Y-9394796D01*
X9898196Y-9394796D02*
X9907720Y-9356701D01*
X9907720Y-9356701D02*
X9917243Y-9337654D01*
X9917243Y-9337654D02*
X9926767Y-9328130D01*
X9926767Y-9328130D02*
X9945815Y-9318606D01*
X10098196Y-9518606D02*
X10098196Y-9385273D01*
X10098196Y-9404320D02*
X10107720Y-9394796D01*
X10107720Y-9394796D02*
X10126767Y-9385273D01*
X10126767Y-9385273D02*
X10155339Y-9385273D01*
X10155339Y-9385273D02*
X10174386Y-9394796D01*
X10174386Y-9394796D02*
X10183910Y-9413844D01*
X10183910Y-9413844D02*
X10183910Y-9518606D01*
X10183910Y-9413844D02*
X10193434Y-9394796D01*
X10193434Y-9394796D02*
X10212482Y-9385273D01*
X10212482Y-9385273D02*
X10241053Y-9385273D01*
X10241053Y-9385273D02*
X10260101Y-9394796D01*
X10260101Y-9394796D02*
X10269624Y-9413844D01*
X10269624Y-9413844D02*
X10269624Y-9518606D01*
X10364863Y-9518606D02*
X10364863Y-9385273D01*
X10364863Y-9404320D02*
X10374386Y-9394796D01*
X10374386Y-9394796D02*
X10393434Y-9385273D01*
X10393434Y-9385273D02*
X10422005Y-9385273D01*
X10422005Y-9385273D02*
X10441053Y-9394796D01*
X10441053Y-9394796D02*
X10450577Y-9413844D01*
X10450577Y-9413844D02*
X10450577Y-9518606D01*
X10450577Y-9413844D02*
X10460101Y-9394796D01*
X10460101Y-9394796D02*
X10479148Y-9385273D01*
X10479148Y-9385273D02*
X10507720Y-9385273D01*
X10507720Y-9385273D02*
X10526767Y-9394796D01*
X10526767Y-9394796D02*
X10536291Y-9413844D01*
X10536291Y-9413844D02*
X10536291Y-9518606D01*
X10926767Y-9309082D02*
X10755339Y-9566225D01*
X11183910Y-9318606D02*
X11202958Y-9318606D01*
X11202958Y-9318606D02*
X11222005Y-9328130D01*
X11222005Y-9328130D02*
X11231529Y-9337654D01*
X11231529Y-9337654D02*
X11241053Y-9356701D01*
X11241053Y-9356701D02*
X11250577Y-9394796D01*
X11250577Y-9394796D02*
X11250577Y-9442416D01*
X11250577Y-9442416D02*
X11241053Y-9480511D01*
X11241053Y-9480511D02*
X11231529Y-9499558D01*
X11231529Y-9499558D02*
X11222005Y-9509082D01*
X11222005Y-9509082D02*
X11202958Y-9518606D01*
X11202958Y-9518606D02*
X11183910Y-9518606D01*
X11183910Y-9518606D02*
X11164863Y-9509082D01*
X11164863Y-9509082D02*
X11155339Y-9499558D01*
X11155339Y-9499558D02*
X11145815Y-9480511D01*
X11145815Y-9480511D02*
X11136291Y-9442416D01*
X11136291Y-9442416D02*
X11136291Y-9394796D01*
X11136291Y-9394796D02*
X11145815Y-9356701D01*
X11145815Y-9356701D02*
X11155339Y-9337654D01*
X11155339Y-9337654D02*
X11164863Y-9328130D01*
X11164863Y-9328130D02*
X11183910Y-9318606D01*
X11336291Y-9499558D02*
X11345815Y-9509082D01*
X11345815Y-9509082D02*
X11336291Y-9518606D01*
X11336291Y-9518606D02*
X11326767Y-9509082D01*
X11326767Y-9509082D02*
X11336291Y-9499558D01*
X11336291Y-9499558D02*
X11336291Y-9518606D01*
X11469624Y-9318606D02*
X11488672Y-9318606D01*
X11488672Y-9318606D02*
X11507720Y-9328130D01*
X11507720Y-9328130D02*
X11517244Y-9337654D01*
X11517244Y-9337654D02*
X11526767Y-9356701D01*
X11526767Y-9356701D02*
X11536291Y-9394796D01*
X11536291Y-9394796D02*
X11536291Y-9442416D01*
X11536291Y-9442416D02*
X11526767Y-9480511D01*
X11526767Y-9480511D02*
X11517244Y-9499558D01*
X11517244Y-9499558D02*
X11507720Y-9509082D01*
X11507720Y-9509082D02*
X11488672Y-9518606D01*
X11488672Y-9518606D02*
X11469624Y-9518606D01*
X11469624Y-9518606D02*
X11450577Y-9509082D01*
X11450577Y-9509082D02*
X11441053Y-9499558D01*
X11441053Y-9499558D02*
X11431529Y-9480511D01*
X11431529Y-9480511D02*
X11422005Y-9442416D01*
X11422005Y-9442416D02*
X11422005Y-9394796D01*
X11422005Y-9394796D02*
X11431529Y-9356701D01*
X11431529Y-9356701D02*
X11441053Y-9337654D01*
X11441053Y-9337654D02*
X11450577Y-9328130D01*
X11450577Y-9328130D02*
X11469624Y-9318606D01*
X11602958Y-9318606D02*
X11726767Y-9318606D01*
X11726767Y-9318606D02*
X11660101Y-9394796D01*
X11660101Y-9394796D02*
X11688672Y-9394796D01*
X11688672Y-9394796D02*
X11707720Y-9404320D01*
X11707720Y-9404320D02*
X11717244Y-9413844D01*
X11717244Y-9413844D02*
X11726767Y-9432892D01*
X11726767Y-9432892D02*
X11726767Y-9480511D01*
X11726767Y-9480511D02*
X11717244Y-9499558D01*
X11717244Y-9499558D02*
X11707720Y-9509082D01*
X11707720Y-9509082D02*
X11688672Y-9518606D01*
X11688672Y-9518606D02*
X11631529Y-9518606D01*
X11631529Y-9518606D02*
X11612482Y-9509082D01*
X11612482Y-9509082D02*
X11602958Y-9499558D01*
X11907720Y-9318606D02*
X11812482Y-9318606D01*
X11812482Y-9318606D02*
X11802958Y-9413844D01*
X11802958Y-9413844D02*
X11812482Y-9404320D01*
X11812482Y-9404320D02*
X11831529Y-9394796D01*
X11831529Y-9394796D02*
X11879148Y-9394796D01*
X11879148Y-9394796D02*
X11898196Y-9404320D01*
X11898196Y-9404320D02*
X11907720Y-9413844D01*
X11907720Y-9413844D02*
X11917244Y-9432892D01*
X11917244Y-9432892D02*
X11917244Y-9480511D01*
X11917244Y-9480511D02*
X11907720Y-9499558D01*
X11907720Y-9499558D02*
X11898196Y-9509082D01*
X11898196Y-9509082D02*
X11879148Y-9518606D01*
X11879148Y-9518606D02*
X11831529Y-9518606D01*
X11831529Y-9518606D02*
X11812482Y-9509082D01*
X11812482Y-9509082D02*
X11802958Y-9499558D01*
X12088672Y-9385273D02*
X12088672Y-9518606D01*
X12041053Y-9309082D02*
X11993434Y-9451939D01*
X11993434Y-9451939D02*
X12117244Y-9451939D01*
X12183910Y-9318606D02*
X12183910Y-9356701D01*
X12260101Y-9318606D02*
X12260101Y-9356701D01*
X12555339Y-9594796D02*
X12545815Y-9585273D01*
X12545815Y-9585273D02*
X12526767Y-9556701D01*
X12526767Y-9556701D02*
X12517244Y-9537654D01*
X12517244Y-9537654D02*
X12507720Y-9509082D01*
X12507720Y-9509082D02*
X12498196Y-9461463D01*
X12498196Y-9461463D02*
X12498196Y-9423368D01*
X12498196Y-9423368D02*
X12507720Y-9375749D01*
X12507720Y-9375749D02*
X12517244Y-9347177D01*
X12517244Y-9347177D02*
X12526767Y-9328130D01*
X12526767Y-9328130D02*
X12545815Y-9299558D01*
X12545815Y-9299558D02*
X12555339Y-9290035D01*
X12622006Y-9337654D02*
X12631529Y-9328130D01*
X12631529Y-9328130D02*
X12650577Y-9318606D01*
X12650577Y-9318606D02*
X12698196Y-9318606D01*
X12698196Y-9318606D02*
X12717244Y-9328130D01*
X12717244Y-9328130D02*
X12726767Y-9337654D01*
X12726767Y-9337654D02*
X12736291Y-9356701D01*
X12736291Y-9356701D02*
X12736291Y-9375749D01*
X12736291Y-9375749D02*
X12726767Y-9404320D01*
X12726767Y-9404320D02*
X12612482Y-9518606D01*
X12612482Y-9518606D02*
X12736291Y-9518606D01*
X12974387Y-9518606D02*
X12974387Y-9318606D01*
X13060101Y-9518606D02*
X13060101Y-9413844D01*
X13060101Y-9413844D02*
X13050577Y-9394796D01*
X13050577Y-9394796D02*
X13031529Y-9385273D01*
X13031529Y-9385273D02*
X13002958Y-9385273D01*
X13002958Y-9385273D02*
X12983910Y-9394796D01*
X12983910Y-9394796D02*
X12974387Y-9404320D01*
X13183910Y-9518606D02*
X13164863Y-9509082D01*
X13164863Y-9509082D02*
X13155339Y-9499558D01*
X13155339Y-9499558D02*
X13145815Y-9480511D01*
X13145815Y-9480511D02*
X13145815Y-9423368D01*
X13145815Y-9423368D02*
X13155339Y-9404320D01*
X13155339Y-9404320D02*
X13164863Y-9394796D01*
X13164863Y-9394796D02*
X13183910Y-9385273D01*
X13183910Y-9385273D02*
X13212482Y-9385273D01*
X13212482Y-9385273D02*
X13231529Y-9394796D01*
X13231529Y-9394796D02*
X13241053Y-9404320D01*
X13241053Y-9404320D02*
X13250577Y-9423368D01*
X13250577Y-9423368D02*
X13250577Y-9480511D01*
X13250577Y-9480511D02*
X13241053Y-9499558D01*
X13241053Y-9499558D02*
X13231529Y-9509082D01*
X13231529Y-9509082D02*
X13212482Y-9518606D01*
X13212482Y-9518606D02*
X13183910Y-9518606D01*
X13364863Y-9518606D02*
X13345815Y-9509082D01*
X13345815Y-9509082D02*
X13336291Y-9490035D01*
X13336291Y-9490035D02*
X13336291Y-9318606D01*
X13517244Y-9509082D02*
X13498196Y-9518606D01*
X13498196Y-9518606D02*
X13460101Y-9518606D01*
X13460101Y-9518606D02*
X13441053Y-9509082D01*
X13441053Y-9509082D02*
X13431529Y-9490035D01*
X13431529Y-9490035D02*
X13431529Y-9413844D01*
X13431529Y-9413844D02*
X13441053Y-9394796D01*
X13441053Y-9394796D02*
X13460101Y-9385273D01*
X13460101Y-9385273D02*
X13498196Y-9385273D01*
X13498196Y-9385273D02*
X13517244Y-9394796D01*
X13517244Y-9394796D02*
X13526768Y-9413844D01*
X13526768Y-9413844D02*
X13526768Y-9432892D01*
X13526768Y-9432892D02*
X13431529Y-9451939D01*
X13602958Y-9509082D02*
X13622006Y-9518606D01*
X13622006Y-9518606D02*
X13660101Y-9518606D01*
X13660101Y-9518606D02*
X13679149Y-9509082D01*
X13679149Y-9509082D02*
X13688672Y-9490035D01*
X13688672Y-9490035D02*
X13688672Y-9480511D01*
X13688672Y-9480511D02*
X13679149Y-9461463D01*
X13679149Y-9461463D02*
X13660101Y-9451939D01*
X13660101Y-9451939D02*
X13631529Y-9451939D01*
X13631529Y-9451939D02*
X13612482Y-9442416D01*
X13612482Y-9442416D02*
X13602958Y-9423368D01*
X13602958Y-9423368D02*
X13602958Y-9413844D01*
X13602958Y-9413844D02*
X13612482Y-9394796D01*
X13612482Y-9394796D02*
X13631529Y-9385273D01*
X13631529Y-9385273D02*
X13660101Y-9385273D01*
X13660101Y-9385273D02*
X13679149Y-9394796D01*
X13755339Y-9594796D02*
X13764863Y-9585273D01*
X13764863Y-9585273D02*
X13783910Y-9556701D01*
X13783910Y-9556701D02*
X13793434Y-9537654D01*
X13793434Y-9537654D02*
X13802958Y-9509082D01*
X13802958Y-9509082D02*
X13812482Y-9461463D01*
X13812482Y-9461463D02*
X13812482Y-9423368D01*
X13812482Y-9423368D02*
X13802958Y-9375749D01*
X13802958Y-9375749D02*
X13793434Y-9347177D01*
X13793434Y-9347177D02*
X13783910Y-9328130D01*
X13783910Y-9328130D02*
X13764863Y-9299558D01*
X13764863Y-9299558D02*
X13755339Y-9290035D01*
X14117244Y-9594796D02*
X14107720Y-9585273D01*
X14107720Y-9585273D02*
X14088672Y-9556701D01*
X14088672Y-9556701D02*
X14079149Y-9537654D01*
X14079149Y-9537654D02*
X14069625Y-9509082D01*
X14069625Y-9509082D02*
X14060101Y-9461463D01*
X14060101Y-9461463D02*
X14060101Y-9423368D01*
X14060101Y-9423368D02*
X14069625Y-9375749D01*
X14069625Y-9375749D02*
X14079149Y-9347177D01*
X14079149Y-9347177D02*
X14088672Y-9328130D01*
X14088672Y-9328130D02*
X14107720Y-9299558D01*
X14107720Y-9299558D02*
X14117244Y-9290035D01*
X14193434Y-9385273D02*
X14193434Y-9518606D01*
X14193434Y-9404320D02*
X14202958Y-9394796D01*
X14202958Y-9394796D02*
X14222006Y-9385273D01*
X14222006Y-9385273D02*
X14250577Y-9385273D01*
X14250577Y-9385273D02*
X14269625Y-9394796D01*
X14269625Y-9394796D02*
X14279149Y-9413844D01*
X14279149Y-9413844D02*
X14279149Y-9518606D01*
X14402958Y-9518606D02*
X14383910Y-9509082D01*
X14383910Y-9509082D02*
X14374387Y-9499558D01*
X14374387Y-9499558D02*
X14364863Y-9480511D01*
X14364863Y-9480511D02*
X14364863Y-9423368D01*
X14364863Y-9423368D02*
X14374387Y-9404320D01*
X14374387Y-9404320D02*
X14383910Y-9394796D01*
X14383910Y-9394796D02*
X14402958Y-9385273D01*
X14402958Y-9385273D02*
X14431530Y-9385273D01*
X14431530Y-9385273D02*
X14450577Y-9394796D01*
X14450577Y-9394796D02*
X14460101Y-9404320D01*
X14460101Y-9404320D02*
X14469625Y-9423368D01*
X14469625Y-9423368D02*
X14469625Y-9480511D01*
X14469625Y-9480511D02*
X14460101Y-9499558D01*
X14460101Y-9499558D02*
X14450577Y-9509082D01*
X14450577Y-9509082D02*
X14431530Y-9518606D01*
X14431530Y-9518606D02*
X14402958Y-9518606D01*
X14526768Y-9385273D02*
X14602958Y-9385273D01*
X14555339Y-9318606D02*
X14555339Y-9490035D01*
X14555339Y-9490035D02*
X14564863Y-9509082D01*
X14564863Y-9509082D02*
X14583910Y-9518606D01*
X14583910Y-9518606D02*
X14602958Y-9518606D01*
X14822006Y-9385273D02*
X14822006Y-9585273D01*
X14822006Y-9394796D02*
X14841053Y-9385273D01*
X14841053Y-9385273D02*
X14879149Y-9385273D01*
X14879149Y-9385273D02*
X14898196Y-9394796D01*
X14898196Y-9394796D02*
X14907720Y-9404320D01*
X14907720Y-9404320D02*
X14917244Y-9423368D01*
X14917244Y-9423368D02*
X14917244Y-9480511D01*
X14917244Y-9480511D02*
X14907720Y-9499558D01*
X14907720Y-9499558D02*
X14898196Y-9509082D01*
X14898196Y-9509082D02*
X14879149Y-9518606D01*
X14879149Y-9518606D02*
X14841053Y-9518606D01*
X14841053Y-9518606D02*
X14822006Y-9509082D01*
X15031530Y-9518606D02*
X15012482Y-9509082D01*
X15012482Y-9509082D02*
X15002958Y-9490035D01*
X15002958Y-9490035D02*
X15002958Y-9318606D01*
X15193434Y-9518606D02*
X15193434Y-9413844D01*
X15193434Y-9413844D02*
X15183911Y-9394796D01*
X15183911Y-9394796D02*
X15164863Y-9385273D01*
X15164863Y-9385273D02*
X15126768Y-9385273D01*
X15126768Y-9385273D02*
X15107720Y-9394796D01*
X15193434Y-9509082D02*
X15174387Y-9518606D01*
X15174387Y-9518606D02*
X15126768Y-9518606D01*
X15126768Y-9518606D02*
X15107720Y-9509082D01*
X15107720Y-9509082D02*
X15098196Y-9490035D01*
X15098196Y-9490035D02*
X15098196Y-9470987D01*
X15098196Y-9470987D02*
X15107720Y-9451939D01*
X15107720Y-9451939D02*
X15126768Y-9442416D01*
X15126768Y-9442416D02*
X15174387Y-9442416D01*
X15174387Y-9442416D02*
X15193434Y-9432892D01*
X15260101Y-9385273D02*
X15336291Y-9385273D01*
X15288672Y-9318606D02*
X15288672Y-9490035D01*
X15288672Y-9490035D02*
X15298196Y-9509082D01*
X15298196Y-9509082D02*
X15317244Y-9518606D01*
X15317244Y-9518606D02*
X15336291Y-9518606D01*
X15479149Y-9509082D02*
X15460101Y-9518606D01*
X15460101Y-9518606D02*
X15422006Y-9518606D01*
X15422006Y-9518606D02*
X15402958Y-9509082D01*
X15402958Y-9509082D02*
X15393434Y-9490035D01*
X15393434Y-9490035D02*
X15393434Y-9413844D01*
X15393434Y-9413844D02*
X15402958Y-9394796D01*
X15402958Y-9394796D02*
X15422006Y-9385273D01*
X15422006Y-9385273D02*
X15460101Y-9385273D01*
X15460101Y-9385273D02*
X15479149Y-9394796D01*
X15479149Y-9394796D02*
X15488672Y-9413844D01*
X15488672Y-9413844D02*
X15488672Y-9432892D01*
X15488672Y-9432892D02*
X15393434Y-9451939D01*
X15660101Y-9518606D02*
X15660101Y-9318606D01*
X15660101Y-9509082D02*
X15641053Y-9518606D01*
X15641053Y-9518606D02*
X15602958Y-9518606D01*
X15602958Y-9518606D02*
X15583911Y-9509082D01*
X15583911Y-9509082D02*
X15574387Y-9499558D01*
X15574387Y-9499558D02*
X15564863Y-9480511D01*
X15564863Y-9480511D02*
X15564863Y-9423368D01*
X15564863Y-9423368D02*
X15574387Y-9404320D01*
X15574387Y-9404320D02*
X15583911Y-9394796D01*
X15583911Y-9394796D02*
X15602958Y-9385273D01*
X15602958Y-9385273D02*
X15641053Y-9385273D01*
X15641053Y-9385273D02*
X15660101Y-9394796D01*
X15736292Y-9594796D02*
X15745815Y-9585273D01*
X15745815Y-9585273D02*
X15764863Y-9556701D01*
X15764863Y-9556701D02*
X15774387Y-9537654D01*
X15774387Y-9537654D02*
X15783911Y-9509082D01*
X15783911Y-9509082D02*
X15793434Y-9461463D01*
X15793434Y-9461463D02*
X15793434Y-9423368D01*
X15793434Y-9423368D02*
X15783911Y-9375749D01*
X15783911Y-9375749D02*
X15774387Y-9347177D01*
X15774387Y-9347177D02*
X15764863Y-9328130D01*
X15764863Y-9328130D02*
X15745815Y-9299558D01*
X15745815Y-9299558D02*
X15736292Y-9290035D01*
X8880276Y-9591122D02*
X8880276Y-9791122D01*
X8780276Y-9691122D02*
X8980276Y-9691122D01*
X9231529Y-9601654D02*
X9241053Y-9592130D01*
X9241053Y-9592130D02*
X9260101Y-9582606D01*
X9260101Y-9582606D02*
X9307720Y-9582606D01*
X9307720Y-9582606D02*
X9326767Y-9592130D01*
X9326767Y-9592130D02*
X9336291Y-9601654D01*
X9336291Y-9601654D02*
X9345815Y-9620701D01*
X9345815Y-9620701D02*
X9345815Y-9639749D01*
X9345815Y-9639749D02*
X9336291Y-9668320D01*
X9336291Y-9668320D02*
X9222005Y-9782606D01*
X9222005Y-9782606D02*
X9345815Y-9782606D01*
X9431529Y-9763558D02*
X9441053Y-9773082D01*
X9441053Y-9773082D02*
X9431529Y-9782606D01*
X9431529Y-9782606D02*
X9422005Y-9773082D01*
X9422005Y-9773082D02*
X9431529Y-9763558D01*
X9431529Y-9763558D02*
X9431529Y-9782606D01*
X9631529Y-9782606D02*
X9517243Y-9782606D01*
X9574386Y-9782606D02*
X9574386Y-9582606D01*
X9574386Y-9582606D02*
X9555339Y-9611177D01*
X9555339Y-9611177D02*
X9536291Y-9630225D01*
X9536291Y-9630225D02*
X9517243Y-9639749D01*
X9755339Y-9582606D02*
X9774386Y-9582606D01*
X9774386Y-9582606D02*
X9793434Y-9592130D01*
X9793434Y-9592130D02*
X9802958Y-9601654D01*
X9802958Y-9601654D02*
X9812482Y-9620701D01*
X9812482Y-9620701D02*
X9822005Y-9658796D01*
X9822005Y-9658796D02*
X9822005Y-9706416D01*
X9822005Y-9706416D02*
X9812482Y-9744511D01*
X9812482Y-9744511D02*
X9802958Y-9763558D01*
X9802958Y-9763558D02*
X9793434Y-9773082D01*
X9793434Y-9773082D02*
X9774386Y-9782606D01*
X9774386Y-9782606D02*
X9755339Y-9782606D01*
X9755339Y-9782606D02*
X9736291Y-9773082D01*
X9736291Y-9773082D02*
X9726767Y-9763558D01*
X9726767Y-9763558D02*
X9717243Y-9744511D01*
X9717243Y-9744511D02*
X9707720Y-9706416D01*
X9707720Y-9706416D02*
X9707720Y-9658796D01*
X9707720Y-9658796D02*
X9717243Y-9620701D01*
X9717243Y-9620701D02*
X9726767Y-9601654D01*
X9726767Y-9601654D02*
X9736291Y-9592130D01*
X9736291Y-9592130D02*
X9755339Y-9582606D01*
X9945815Y-9582606D02*
X9964863Y-9582606D01*
X9964863Y-9582606D02*
X9983910Y-9592130D01*
X9983910Y-9592130D02*
X9993434Y-9601654D01*
X9993434Y-9601654D02*
X10002958Y-9620701D01*
X10002958Y-9620701D02*
X10012482Y-9658796D01*
X10012482Y-9658796D02*
X10012482Y-9706416D01*
X10012482Y-9706416D02*
X10002958Y-9744511D01*
X10002958Y-9744511D02*
X9993434Y-9763558D01*
X9993434Y-9763558D02*
X9983910Y-9773082D01*
X9983910Y-9773082D02*
X9964863Y-9782606D01*
X9964863Y-9782606D02*
X9945815Y-9782606D01*
X9945815Y-9782606D02*
X9926767Y-9773082D01*
X9926767Y-9773082D02*
X9917243Y-9763558D01*
X9917243Y-9763558D02*
X9907720Y-9744511D01*
X9907720Y-9744511D02*
X9898196Y-9706416D01*
X9898196Y-9706416D02*
X9898196Y-9658796D01*
X9898196Y-9658796D02*
X9907720Y-9620701D01*
X9907720Y-9620701D02*
X9917243Y-9601654D01*
X9917243Y-9601654D02*
X9926767Y-9592130D01*
X9926767Y-9592130D02*
X9945815Y-9582606D01*
X10098196Y-9782606D02*
X10098196Y-9649273D01*
X10098196Y-9668320D02*
X10107720Y-9658796D01*
X10107720Y-9658796D02*
X10126767Y-9649273D01*
X10126767Y-9649273D02*
X10155339Y-9649273D01*
X10155339Y-9649273D02*
X10174386Y-9658796D01*
X10174386Y-9658796D02*
X10183910Y-9677844D01*
X10183910Y-9677844D02*
X10183910Y-9782606D01*
X10183910Y-9677844D02*
X10193434Y-9658796D01*
X10193434Y-9658796D02*
X10212482Y-9649273D01*
X10212482Y-9649273D02*
X10241053Y-9649273D01*
X10241053Y-9649273D02*
X10260101Y-9658796D01*
X10260101Y-9658796D02*
X10269624Y-9677844D01*
X10269624Y-9677844D02*
X10269624Y-9782606D01*
X10364863Y-9782606D02*
X10364863Y-9649273D01*
X10364863Y-9668320D02*
X10374386Y-9658796D01*
X10374386Y-9658796D02*
X10393434Y-9649273D01*
X10393434Y-9649273D02*
X10422005Y-9649273D01*
X10422005Y-9649273D02*
X10441053Y-9658796D01*
X10441053Y-9658796D02*
X10450577Y-9677844D01*
X10450577Y-9677844D02*
X10450577Y-9782606D01*
X10450577Y-9677844D02*
X10460101Y-9658796D01*
X10460101Y-9658796D02*
X10479148Y-9649273D01*
X10479148Y-9649273D02*
X10507720Y-9649273D01*
X10507720Y-9649273D02*
X10526767Y-9658796D01*
X10526767Y-9658796D02*
X10536291Y-9677844D01*
X10536291Y-9677844D02*
X10536291Y-9782606D01*
X10926767Y-9573082D02*
X10755339Y-9830225D01*
X11183910Y-9582606D02*
X11202958Y-9582606D01*
X11202958Y-9582606D02*
X11222005Y-9592130D01*
X11222005Y-9592130D02*
X11231529Y-9601654D01*
X11231529Y-9601654D02*
X11241053Y-9620701D01*
X11241053Y-9620701D02*
X11250577Y-9658796D01*
X11250577Y-9658796D02*
X11250577Y-9706416D01*
X11250577Y-9706416D02*
X11241053Y-9744511D01*
X11241053Y-9744511D02*
X11231529Y-9763558D01*
X11231529Y-9763558D02*
X11222005Y-9773082D01*
X11222005Y-9773082D02*
X11202958Y-9782606D01*
X11202958Y-9782606D02*
X11183910Y-9782606D01*
X11183910Y-9782606D02*
X11164863Y-9773082D01*
X11164863Y-9773082D02*
X11155339Y-9763558D01*
X11155339Y-9763558D02*
X11145815Y-9744511D01*
X11145815Y-9744511D02*
X11136291Y-9706416D01*
X11136291Y-9706416D02*
X11136291Y-9658796D01*
X11136291Y-9658796D02*
X11145815Y-9620701D01*
X11145815Y-9620701D02*
X11155339Y-9601654D01*
X11155339Y-9601654D02*
X11164863Y-9592130D01*
X11164863Y-9592130D02*
X11183910Y-9582606D01*
X11336291Y-9763558D02*
X11345815Y-9773082D01*
X11345815Y-9773082D02*
X11336291Y-9782606D01*
X11336291Y-9782606D02*
X11326767Y-9773082D01*
X11326767Y-9773082D02*
X11336291Y-9763558D01*
X11336291Y-9763558D02*
X11336291Y-9782606D01*
X11469624Y-9582606D02*
X11488672Y-9582606D01*
X11488672Y-9582606D02*
X11507720Y-9592130D01*
X11507720Y-9592130D02*
X11517244Y-9601654D01*
X11517244Y-9601654D02*
X11526767Y-9620701D01*
X11526767Y-9620701D02*
X11536291Y-9658796D01*
X11536291Y-9658796D02*
X11536291Y-9706416D01*
X11536291Y-9706416D02*
X11526767Y-9744511D01*
X11526767Y-9744511D02*
X11517244Y-9763558D01*
X11517244Y-9763558D02*
X11507720Y-9773082D01*
X11507720Y-9773082D02*
X11488672Y-9782606D01*
X11488672Y-9782606D02*
X11469624Y-9782606D01*
X11469624Y-9782606D02*
X11450577Y-9773082D01*
X11450577Y-9773082D02*
X11441053Y-9763558D01*
X11441053Y-9763558D02*
X11431529Y-9744511D01*
X11431529Y-9744511D02*
X11422005Y-9706416D01*
X11422005Y-9706416D02*
X11422005Y-9658796D01*
X11422005Y-9658796D02*
X11431529Y-9620701D01*
X11431529Y-9620701D02*
X11441053Y-9601654D01*
X11441053Y-9601654D02*
X11450577Y-9592130D01*
X11450577Y-9592130D02*
X11469624Y-9582606D01*
X11650577Y-9668320D02*
X11631529Y-9658796D01*
X11631529Y-9658796D02*
X11622005Y-9649273D01*
X11622005Y-9649273D02*
X11612482Y-9630225D01*
X11612482Y-9630225D02*
X11612482Y-9620701D01*
X11612482Y-9620701D02*
X11622005Y-9601654D01*
X11622005Y-9601654D02*
X11631529Y-9592130D01*
X11631529Y-9592130D02*
X11650577Y-9582606D01*
X11650577Y-9582606D02*
X11688672Y-9582606D01*
X11688672Y-9582606D02*
X11707720Y-9592130D01*
X11707720Y-9592130D02*
X11717244Y-9601654D01*
X11717244Y-9601654D02*
X11726767Y-9620701D01*
X11726767Y-9620701D02*
X11726767Y-9630225D01*
X11726767Y-9630225D02*
X11717244Y-9649273D01*
X11717244Y-9649273D02*
X11707720Y-9658796D01*
X11707720Y-9658796D02*
X11688672Y-9668320D01*
X11688672Y-9668320D02*
X11650577Y-9668320D01*
X11650577Y-9668320D02*
X11631529Y-9677844D01*
X11631529Y-9677844D02*
X11622005Y-9687368D01*
X11622005Y-9687368D02*
X11612482Y-9706416D01*
X11612482Y-9706416D02*
X11612482Y-9744511D01*
X11612482Y-9744511D02*
X11622005Y-9763558D01*
X11622005Y-9763558D02*
X11631529Y-9773082D01*
X11631529Y-9773082D02*
X11650577Y-9782606D01*
X11650577Y-9782606D02*
X11688672Y-9782606D01*
X11688672Y-9782606D02*
X11707720Y-9773082D01*
X11707720Y-9773082D02*
X11717244Y-9763558D01*
X11717244Y-9763558D02*
X11726767Y-9744511D01*
X11726767Y-9744511D02*
X11726767Y-9706416D01*
X11726767Y-9706416D02*
X11717244Y-9687368D01*
X11717244Y-9687368D02*
X11707720Y-9677844D01*
X11707720Y-9677844D02*
X11688672Y-9668320D01*
X11802958Y-9601654D02*
X11812482Y-9592130D01*
X11812482Y-9592130D02*
X11831529Y-9582606D01*
X11831529Y-9582606D02*
X11879148Y-9582606D01*
X11879148Y-9582606D02*
X11898196Y-9592130D01*
X11898196Y-9592130D02*
X11907720Y-9601654D01*
X11907720Y-9601654D02*
X11917244Y-9620701D01*
X11917244Y-9620701D02*
X11917244Y-9639749D01*
X11917244Y-9639749D02*
X11907720Y-9668320D01*
X11907720Y-9668320D02*
X11793434Y-9782606D01*
X11793434Y-9782606D02*
X11917244Y-9782606D01*
X11983910Y-9582606D02*
X12117244Y-9582606D01*
X12117244Y-9582606D02*
X12031529Y-9782606D01*
X12183910Y-9582606D02*
X12183910Y-9620701D01*
X12260101Y-9582606D02*
X12260101Y-9620701D01*
X12555339Y-9858796D02*
X12545815Y-9849273D01*
X12545815Y-9849273D02*
X12526767Y-9820701D01*
X12526767Y-9820701D02*
X12517244Y-9801654D01*
X12517244Y-9801654D02*
X12507720Y-9773082D01*
X12507720Y-9773082D02*
X12498196Y-9725463D01*
X12498196Y-9725463D02*
X12498196Y-9687368D01*
X12498196Y-9687368D02*
X12507720Y-9639749D01*
X12507720Y-9639749D02*
X12517244Y-9611177D01*
X12517244Y-9611177D02*
X12526767Y-9592130D01*
X12526767Y-9592130D02*
X12545815Y-9563558D01*
X12545815Y-9563558D02*
X12555339Y-9554035D01*
X12717244Y-9649273D02*
X12717244Y-9782606D01*
X12669625Y-9573082D02*
X12622006Y-9715939D01*
X12622006Y-9715939D02*
X12745815Y-9715939D01*
X12974387Y-9782606D02*
X12974387Y-9582606D01*
X13060101Y-9782606D02*
X13060101Y-9677844D01*
X13060101Y-9677844D02*
X13050577Y-9658796D01*
X13050577Y-9658796D02*
X13031529Y-9649273D01*
X13031529Y-9649273D02*
X13002958Y-9649273D01*
X13002958Y-9649273D02*
X12983910Y-9658796D01*
X12983910Y-9658796D02*
X12974387Y-9668320D01*
X13183910Y-9782606D02*
X13164863Y-9773082D01*
X13164863Y-9773082D02*
X13155339Y-9763558D01*
X13155339Y-9763558D02*
X13145815Y-9744511D01*
X13145815Y-9744511D02*
X13145815Y-9687368D01*
X13145815Y-9687368D02*
X13155339Y-9668320D01*
X13155339Y-9668320D02*
X13164863Y-9658796D01*
X13164863Y-9658796D02*
X13183910Y-9649273D01*
X13183910Y-9649273D02*
X13212482Y-9649273D01*
X13212482Y-9649273D02*
X13231529Y-9658796D01*
X13231529Y-9658796D02*
X13241053Y-9668320D01*
X13241053Y-9668320D02*
X13250577Y-9687368D01*
X13250577Y-9687368D02*
X13250577Y-9744511D01*
X13250577Y-9744511D02*
X13241053Y-9763558D01*
X13241053Y-9763558D02*
X13231529Y-9773082D01*
X13231529Y-9773082D02*
X13212482Y-9782606D01*
X13212482Y-9782606D02*
X13183910Y-9782606D01*
X13364863Y-9782606D02*
X13345815Y-9773082D01*
X13345815Y-9773082D02*
X13336291Y-9754035D01*
X13336291Y-9754035D02*
X13336291Y-9582606D01*
X13517244Y-9773082D02*
X13498196Y-9782606D01*
X13498196Y-9782606D02*
X13460101Y-9782606D01*
X13460101Y-9782606D02*
X13441053Y-9773082D01*
X13441053Y-9773082D02*
X13431529Y-9754035D01*
X13431529Y-9754035D02*
X13431529Y-9677844D01*
X13431529Y-9677844D02*
X13441053Y-9658796D01*
X13441053Y-9658796D02*
X13460101Y-9649273D01*
X13460101Y-9649273D02*
X13498196Y-9649273D01*
X13498196Y-9649273D02*
X13517244Y-9658796D01*
X13517244Y-9658796D02*
X13526768Y-9677844D01*
X13526768Y-9677844D02*
X13526768Y-9696892D01*
X13526768Y-9696892D02*
X13431529Y-9715939D01*
X13602958Y-9773082D02*
X13622006Y-9782606D01*
X13622006Y-9782606D02*
X13660101Y-9782606D01*
X13660101Y-9782606D02*
X13679149Y-9773082D01*
X13679149Y-9773082D02*
X13688672Y-9754035D01*
X13688672Y-9754035D02*
X13688672Y-9744511D01*
X13688672Y-9744511D02*
X13679149Y-9725463D01*
X13679149Y-9725463D02*
X13660101Y-9715939D01*
X13660101Y-9715939D02*
X13631529Y-9715939D01*
X13631529Y-9715939D02*
X13612482Y-9706416D01*
X13612482Y-9706416D02*
X13602958Y-9687368D01*
X13602958Y-9687368D02*
X13602958Y-9677844D01*
X13602958Y-9677844D02*
X13612482Y-9658796D01*
X13612482Y-9658796D02*
X13631529Y-9649273D01*
X13631529Y-9649273D02*
X13660101Y-9649273D01*
X13660101Y-9649273D02*
X13679149Y-9658796D01*
X13755339Y-9858796D02*
X13764863Y-9849273D01*
X13764863Y-9849273D02*
X13783910Y-9820701D01*
X13783910Y-9820701D02*
X13793434Y-9801654D01*
X13793434Y-9801654D02*
X13802958Y-9773082D01*
X13802958Y-9773082D02*
X13812482Y-9725463D01*
X13812482Y-9725463D02*
X13812482Y-9687368D01*
X13812482Y-9687368D02*
X13802958Y-9639749D01*
X13802958Y-9639749D02*
X13793434Y-9611177D01*
X13793434Y-9611177D02*
X13783910Y-9592130D01*
X13783910Y-9592130D02*
X13764863Y-9563558D01*
X13764863Y-9563558D02*
X13755339Y-9554035D01*
X14117244Y-9858796D02*
X14107720Y-9849273D01*
X14107720Y-9849273D02*
X14088672Y-9820701D01*
X14088672Y-9820701D02*
X14079149Y-9801654D01*
X14079149Y-9801654D02*
X14069625Y-9773082D01*
X14069625Y-9773082D02*
X14060101Y-9725463D01*
X14060101Y-9725463D02*
X14060101Y-9687368D01*
X14060101Y-9687368D02*
X14069625Y-9639749D01*
X14069625Y-9639749D02*
X14079149Y-9611177D01*
X14079149Y-9611177D02*
X14088672Y-9592130D01*
X14088672Y-9592130D02*
X14107720Y-9563558D01*
X14107720Y-9563558D02*
X14117244Y-9554035D01*
X14193434Y-9649273D02*
X14193434Y-9782606D01*
X14193434Y-9668320D02*
X14202958Y-9658796D01*
X14202958Y-9658796D02*
X14222006Y-9649273D01*
X14222006Y-9649273D02*
X14250577Y-9649273D01*
X14250577Y-9649273D02*
X14269625Y-9658796D01*
X14269625Y-9658796D02*
X14279149Y-9677844D01*
X14279149Y-9677844D02*
X14279149Y-9782606D01*
X14402958Y-9782606D02*
X14383910Y-9773082D01*
X14383910Y-9773082D02*
X14374387Y-9763558D01*
X14374387Y-9763558D02*
X14364863Y-9744511D01*
X14364863Y-9744511D02*
X14364863Y-9687368D01*
X14364863Y-9687368D02*
X14374387Y-9668320D01*
X14374387Y-9668320D02*
X14383910Y-9658796D01*
X14383910Y-9658796D02*
X14402958Y-9649273D01*
X14402958Y-9649273D02*
X14431530Y-9649273D01*
X14431530Y-9649273D02*
X14450577Y-9658796D01*
X14450577Y-9658796D02*
X14460101Y-9668320D01*
X14460101Y-9668320D02*
X14469625Y-9687368D01*
X14469625Y-9687368D02*
X14469625Y-9744511D01*
X14469625Y-9744511D02*
X14460101Y-9763558D01*
X14460101Y-9763558D02*
X14450577Y-9773082D01*
X14450577Y-9773082D02*
X14431530Y-9782606D01*
X14431530Y-9782606D02*
X14402958Y-9782606D01*
X14526768Y-9649273D02*
X14602958Y-9649273D01*
X14555339Y-9582606D02*
X14555339Y-9754035D01*
X14555339Y-9754035D02*
X14564863Y-9773082D01*
X14564863Y-9773082D02*
X14583910Y-9782606D01*
X14583910Y-9782606D02*
X14602958Y-9782606D01*
X14822006Y-9649273D02*
X14822006Y-9849273D01*
X14822006Y-9658796D02*
X14841053Y-9649273D01*
X14841053Y-9649273D02*
X14879149Y-9649273D01*
X14879149Y-9649273D02*
X14898196Y-9658796D01*
X14898196Y-9658796D02*
X14907720Y-9668320D01*
X14907720Y-9668320D02*
X14917244Y-9687368D01*
X14917244Y-9687368D02*
X14917244Y-9744511D01*
X14917244Y-9744511D02*
X14907720Y-9763558D01*
X14907720Y-9763558D02*
X14898196Y-9773082D01*
X14898196Y-9773082D02*
X14879149Y-9782606D01*
X14879149Y-9782606D02*
X14841053Y-9782606D01*
X14841053Y-9782606D02*
X14822006Y-9773082D01*
X15031530Y-9782606D02*
X15012482Y-9773082D01*
X15012482Y-9773082D02*
X15002958Y-9754035D01*
X15002958Y-9754035D02*
X15002958Y-9582606D01*
X15193434Y-9782606D02*
X15193434Y-9677844D01*
X15193434Y-9677844D02*
X15183911Y-9658796D01*
X15183911Y-9658796D02*
X15164863Y-9649273D01*
X15164863Y-9649273D02*
X15126768Y-9649273D01*
X15126768Y-9649273D02*
X15107720Y-9658796D01*
X15193434Y-9773082D02*
X15174387Y-9782606D01*
X15174387Y-9782606D02*
X15126768Y-9782606D01*
X15126768Y-9782606D02*
X15107720Y-9773082D01*
X15107720Y-9773082D02*
X15098196Y-9754035D01*
X15098196Y-9754035D02*
X15098196Y-9734987D01*
X15098196Y-9734987D02*
X15107720Y-9715939D01*
X15107720Y-9715939D02*
X15126768Y-9706416D01*
X15126768Y-9706416D02*
X15174387Y-9706416D01*
X15174387Y-9706416D02*
X15193434Y-9696892D01*
X15260101Y-9649273D02*
X15336291Y-9649273D01*
X15288672Y-9582606D02*
X15288672Y-9754035D01*
X15288672Y-9754035D02*
X15298196Y-9773082D01*
X15298196Y-9773082D02*
X15317244Y-9782606D01*
X15317244Y-9782606D02*
X15336291Y-9782606D01*
X15479149Y-9773082D02*
X15460101Y-9782606D01*
X15460101Y-9782606D02*
X15422006Y-9782606D01*
X15422006Y-9782606D02*
X15402958Y-9773082D01*
X15402958Y-9773082D02*
X15393434Y-9754035D01*
X15393434Y-9754035D02*
X15393434Y-9677844D01*
X15393434Y-9677844D02*
X15402958Y-9658796D01*
X15402958Y-9658796D02*
X15422006Y-9649273D01*
X15422006Y-9649273D02*
X15460101Y-9649273D01*
X15460101Y-9649273D02*
X15479149Y-9658796D01*
X15479149Y-9658796D02*
X15488672Y-9677844D01*
X15488672Y-9677844D02*
X15488672Y-9696892D01*
X15488672Y-9696892D02*
X15393434Y-9715939D01*
X15660101Y-9782606D02*
X15660101Y-9582606D01*
X15660101Y-9773082D02*
X15641053Y-9782606D01*
X15641053Y-9782606D02*
X15602958Y-9782606D01*
X15602958Y-9782606D02*
X15583911Y-9773082D01*
X15583911Y-9773082D02*
X15574387Y-9763558D01*
X15574387Y-9763558D02*
X15564863Y-9744511D01*
X15564863Y-9744511D02*
X15564863Y-9687368D01*
X15564863Y-9687368D02*
X15574387Y-9668320D01*
X15574387Y-9668320D02*
X15583911Y-9658796D01*
X15583911Y-9658796D02*
X15602958Y-9649273D01*
X15602958Y-9649273D02*
X15641053Y-9649273D01*
X15641053Y-9649273D02*
X15660101Y-9658796D01*
X15736292Y-9858796D02*
X15745815Y-9849273D01*
X15745815Y-9849273D02*
X15764863Y-9820701D01*
X15764863Y-9820701D02*
X15774387Y-9801654D01*
X15774387Y-9801654D02*
X15783911Y-9773082D01*
X15783911Y-9773082D02*
X15793434Y-9725463D01*
X15793434Y-9725463D02*
X15793434Y-9687368D01*
X15793434Y-9687368D02*
X15783911Y-9639749D01*
X15783911Y-9639749D02*
X15774387Y-9611177D01*
X15774387Y-9611177D02*
X15764863Y-9592130D01*
X15764863Y-9592130D02*
X15745815Y-9563558D01*
X15745815Y-9563558D02*
X15736292Y-9554035D01*
M02*
