%TF.GenerationSoftware,KiCad,Pcbnew,8.0.8*%
%TF.CreationDate,2025-03-31T20:29:24+08:00*%
%TF.ProjectId,1,312e6b69-6361-4645-9f70-636258585858,rev?*%
%TF.SameCoordinates,Original*%
%TF.FileFunction,Drillmap*%
%TF.FilePolarity,Positive*%
%FSLAX45Y45*%
G04 Gerber Fmt 4.5, Leading zero omitted, Abs format (unit mm)*
G04 Created by KiCad (PCBNEW 8.0.8) date 2025-03-31 20:29:24*
%MOMM*%
%LPD*%
G01*
G04 APERTURE LIST*
%ADD10C,0.200000*%
%ADD11C,0.100000*%
G04 APERTURE END LIST*
D10*
X13245000Y-4480000D02*
G75*
G02*
X13528398Y-4729679I5000J-280000D01*
G01*
X9278719Y-8513078D02*
X13283719Y-8508115D01*
X13528398Y-4729679D02*
X13533398Y-8224679D01*
X9240000Y-4485000D02*
X13245000Y-4480037D01*
X8990321Y-4768398D02*
X8995321Y-8263398D01*
X8990321Y-4768398D02*
G75*
G02*
X9240000Y-4485002I279999J4998D01*
G01*
X9278719Y-8513078D02*
G75*
G02*
X8995324Y-8263398I-4999J279998D01*
G01*
X13533398Y-8224679D02*
G75*
G02*
X13283719Y-8508077I-279998J-5001D01*
G01*
D11*
X9525000Y-5345000D02*
X9555000Y-5375000D01*
X9555000Y-5345000D02*
X9525000Y-5375000D01*
X9790000Y-6480000D02*
X9820000Y-6510000D01*
X9820000Y-6480000D02*
X9790000Y-6510000D01*
X9925000Y-5960000D02*
X9955000Y-5990000D01*
X9955000Y-5960000D02*
X9925000Y-5990000D01*
X10230000Y-6255000D02*
X10260000Y-6285000D01*
X10260000Y-6255000D02*
X10230000Y-6285000D01*
X10245000Y-6075000D02*
X10275000Y-6105000D01*
X10275000Y-6075000D02*
X10245000Y-6105000D01*
X10340000Y-5945000D02*
X10370000Y-5975000D01*
X10370000Y-5945000D02*
X10340000Y-5975000D01*
X10346250Y-6683750D02*
X10376250Y-6713750D01*
X10376250Y-6683750D02*
X10346250Y-6713750D01*
X10350000Y-6380000D02*
X10380000Y-6410000D01*
X10380000Y-6380000D02*
X10350000Y-6410000D01*
X10350000Y-7030000D02*
X10380000Y-7060000D01*
X10380000Y-7030000D02*
X10350000Y-7060000D01*
X10444000Y-7950000D02*
X10474000Y-7980000D01*
X10474000Y-7950000D02*
X10444000Y-7980000D01*
X10575000Y-7950000D02*
X10605000Y-7980000D01*
X10605000Y-7950000D02*
X10575000Y-7980000D01*
X10760000Y-7595000D02*
X10790000Y-7625000D01*
X10790000Y-7595000D02*
X10760000Y-7625000D01*
X10845000Y-6050000D02*
X10875000Y-6080000D01*
X10875000Y-6050000D02*
X10845000Y-6080000D01*
X10895000Y-7595000D02*
X10925000Y-7625000D01*
X10925000Y-7595000D02*
X10895000Y-7625000D01*
X10975000Y-6910000D02*
X11005000Y-6940000D01*
X11005000Y-6910000D02*
X10975000Y-6940000D01*
X11300000Y-7035000D02*
X11330000Y-7065000D01*
X11330000Y-7035000D02*
X11300000Y-7065000D01*
X11855000Y-6115000D02*
X11885000Y-6145000D01*
X11885000Y-6115000D02*
X11855000Y-6145000D01*
X12360000Y-7060000D02*
X12390000Y-7090000D01*
X12390000Y-7060000D02*
X12360000Y-7090000D01*
X12405000Y-6590000D02*
X12435000Y-6620000D01*
X12435000Y-6590000D02*
X12405000Y-6620000D01*
X12405000Y-6690000D02*
X12435000Y-6720000D01*
X12435000Y-6690000D02*
X12405000Y-6720000D01*
X12450000Y-7060000D02*
X12480000Y-7090000D01*
X12480000Y-7060000D02*
X12450000Y-7090000D01*
X12745000Y-6040000D02*
X12775000Y-6070000D01*
X12775000Y-6040000D02*
X12745000Y-6070000D01*
X12825000Y-7125000D02*
X12855000Y-7155000D01*
X12855000Y-7125000D02*
X12825000Y-7155000D01*
X13165000Y-6815000D02*
X13195000Y-6845000D01*
X13195000Y-6815000D02*
X13165000Y-6845000D01*
X13377500Y-5802500D02*
G75*
G02*
X13322500Y-5802500I-27500J0D01*
G01*
X13322500Y-5802500D02*
G75*
G02*
X13377500Y-5802500I27500J0D01*
G01*
X13317500Y-5830000D02*
X13382500Y-5830000D01*
X13382500Y-5775000D02*
G75*
G02*
X13382500Y-5830000I0J-27500D01*
G01*
X13382500Y-5775000D02*
X13317500Y-5775000D01*
X13317500Y-5775000D02*
G75*
G03*
X13317500Y-5830000I0J-27500D01*
G01*
X13377500Y-6577500D02*
G75*
G02*
X13322500Y-6577500I-27500J0D01*
G01*
X13322500Y-6577500D02*
G75*
G02*
X13377500Y-6577500I27500J0D01*
G01*
X13317500Y-6605000D02*
X13382500Y-6605000D01*
X13382500Y-6550000D02*
G75*
G02*
X13382500Y-6605000I0J-27500D01*
G01*
X13382500Y-6550000D02*
X13317500Y-6550000D01*
X13317500Y-6550000D02*
G75*
G03*
X13317500Y-6605000I0J-27500D01*
G01*
X12970000Y-5775000D02*
X12970000Y-5860000D01*
X12927500Y-5817500D02*
X13012500Y-5817500D01*
X12942500Y-5860000D02*
X12997500Y-5860000D01*
X12997500Y-5775000D02*
G75*
G02*
X12997500Y-5860000I0J-42500D01*
G01*
X12997500Y-5775000D02*
X12942500Y-5775000D01*
X12942500Y-5775000D02*
G75*
G03*
X12942500Y-5860000I0J-42500D01*
G01*
X12970000Y-6520000D02*
X12970000Y-6605000D01*
X12927500Y-6562500D02*
X13012500Y-6562500D01*
X12942500Y-6605000D02*
X12997500Y-6605000D01*
X12997500Y-6520000D02*
G75*
G02*
X12997500Y-6605000I0J-42500D01*
G01*
X12997500Y-6520000D02*
X12942500Y-6520000D01*
X12942500Y-6520000D02*
G75*
G03*
X12942500Y-6605000I0J-42500D01*
G01*
X10222356Y-4825356D02*
X10222356Y-4754644D01*
X10151644Y-4754644D01*
X10151644Y-4825356D01*
X10222356Y-4825356D01*
X10305356Y-8265356D02*
X10305356Y-8194644D01*
X10234644Y-8194644D01*
X10234644Y-8265356D01*
X10305356Y-8265356D01*
X10476356Y-4825356D02*
X10476356Y-4754644D01*
X10405644Y-4754644D01*
X10405644Y-4825356D01*
X10476356Y-4825356D01*
X10559356Y-8265356D02*
X10559356Y-8194644D01*
X10488644Y-8194644D01*
X10488644Y-8265356D01*
X10559356Y-8265356D01*
X10730356Y-4825356D02*
X10730356Y-4754644D01*
X10659644Y-4754644D01*
X10659644Y-4825356D01*
X10730356Y-4825356D01*
X10813356Y-8265356D02*
X10813356Y-8194644D01*
X10742644Y-8194644D01*
X10742644Y-8265356D01*
X10813356Y-8265356D01*
X10984356Y-4825356D02*
X10984356Y-4754644D01*
X10913644Y-4754644D01*
X10913644Y-4825356D01*
X10984356Y-4825356D01*
X11067356Y-8265356D02*
X11067356Y-8194644D01*
X10996644Y-8194644D01*
X10996644Y-8265356D01*
X11067356Y-8265356D01*
X11765356Y-4845356D02*
X11765356Y-4774644D01*
X11694644Y-4774644D01*
X11694644Y-4845356D01*
X11765356Y-4845356D01*
X12019356Y-4845356D02*
X12019356Y-4774644D01*
X11948644Y-4774644D01*
X11948644Y-4845356D01*
X12019356Y-4845356D01*
X12273356Y-4845356D02*
X12273356Y-4774644D01*
X12202644Y-4774644D01*
X12202644Y-4845356D01*
X12273356Y-4845356D01*
X12527356Y-4845356D02*
X12527356Y-4774644D01*
X12456644Y-4774644D01*
X12456644Y-4845356D01*
X12527356Y-4845356D01*
D10*
X9241053Y-8834606D02*
X9241053Y-8634606D01*
X9241053Y-8634606D02*
X9288672Y-8634606D01*
X9288672Y-8634606D02*
X9317243Y-8644130D01*
X9317243Y-8644130D02*
X9336291Y-8663177D01*
X9336291Y-8663177D02*
X9345815Y-8682225D01*
X9345815Y-8682225D02*
X9355339Y-8720320D01*
X9355339Y-8720320D02*
X9355339Y-8748892D01*
X9355339Y-8748892D02*
X9345815Y-8786987D01*
X9345815Y-8786987D02*
X9336291Y-8806035D01*
X9336291Y-8806035D02*
X9317243Y-8825082D01*
X9317243Y-8825082D02*
X9288672Y-8834606D01*
X9288672Y-8834606D02*
X9241053Y-8834606D01*
X9441053Y-8834606D02*
X9441053Y-8701273D01*
X9441053Y-8739368D02*
X9450577Y-8720320D01*
X9450577Y-8720320D02*
X9460101Y-8710796D01*
X9460101Y-8710796D02*
X9479148Y-8701273D01*
X9479148Y-8701273D02*
X9498196Y-8701273D01*
X9564862Y-8834606D02*
X9564862Y-8701273D01*
X9564862Y-8634606D02*
X9555339Y-8644130D01*
X9555339Y-8644130D02*
X9564862Y-8653654D01*
X9564862Y-8653654D02*
X9574386Y-8644130D01*
X9574386Y-8644130D02*
X9564862Y-8634606D01*
X9564862Y-8634606D02*
X9564862Y-8653654D01*
X9688672Y-8834606D02*
X9669624Y-8825082D01*
X9669624Y-8825082D02*
X9660101Y-8806035D01*
X9660101Y-8806035D02*
X9660101Y-8634606D01*
X9793434Y-8834606D02*
X9774386Y-8825082D01*
X9774386Y-8825082D02*
X9764862Y-8806035D01*
X9764862Y-8806035D02*
X9764862Y-8634606D01*
X10022005Y-8834606D02*
X10022005Y-8634606D01*
X10022005Y-8634606D02*
X10088672Y-8777463D01*
X10088672Y-8777463D02*
X10155339Y-8634606D01*
X10155339Y-8634606D02*
X10155339Y-8834606D01*
X10336291Y-8834606D02*
X10336291Y-8729844D01*
X10336291Y-8729844D02*
X10326767Y-8710796D01*
X10326767Y-8710796D02*
X10307720Y-8701273D01*
X10307720Y-8701273D02*
X10269624Y-8701273D01*
X10269624Y-8701273D02*
X10250577Y-8710796D01*
X10336291Y-8825082D02*
X10317243Y-8834606D01*
X10317243Y-8834606D02*
X10269624Y-8834606D01*
X10269624Y-8834606D02*
X10250577Y-8825082D01*
X10250577Y-8825082D02*
X10241053Y-8806035D01*
X10241053Y-8806035D02*
X10241053Y-8786987D01*
X10241053Y-8786987D02*
X10250577Y-8767939D01*
X10250577Y-8767939D02*
X10269624Y-8758416D01*
X10269624Y-8758416D02*
X10317243Y-8758416D01*
X10317243Y-8758416D02*
X10336291Y-8748892D01*
X10431529Y-8701273D02*
X10431529Y-8901273D01*
X10431529Y-8710796D02*
X10450577Y-8701273D01*
X10450577Y-8701273D02*
X10488672Y-8701273D01*
X10488672Y-8701273D02*
X10507720Y-8710796D01*
X10507720Y-8710796D02*
X10517243Y-8720320D01*
X10517243Y-8720320D02*
X10526767Y-8739368D01*
X10526767Y-8739368D02*
X10526767Y-8796511D01*
X10526767Y-8796511D02*
X10517243Y-8815558D01*
X10517243Y-8815558D02*
X10507720Y-8825082D01*
X10507720Y-8825082D02*
X10488672Y-8834606D01*
X10488672Y-8834606D02*
X10450577Y-8834606D01*
X10450577Y-8834606D02*
X10431529Y-8825082D01*
X10612482Y-8815558D02*
X10622005Y-8825082D01*
X10622005Y-8825082D02*
X10612482Y-8834606D01*
X10612482Y-8834606D02*
X10602958Y-8825082D01*
X10602958Y-8825082D02*
X10612482Y-8815558D01*
X10612482Y-8815558D02*
X10612482Y-8834606D01*
X10612482Y-8710796D02*
X10622005Y-8720320D01*
X10622005Y-8720320D02*
X10612482Y-8729844D01*
X10612482Y-8729844D02*
X10602958Y-8720320D01*
X10602958Y-8720320D02*
X10612482Y-8710796D01*
X10612482Y-8710796D02*
X10612482Y-8729844D01*
D11*
X8950276Y-9148122D02*
X8980276Y-9178122D01*
X8980276Y-9148122D02*
X8950276Y-9178122D01*
D10*
X9279148Y-9054606D02*
X9298196Y-9054606D01*
X9298196Y-9054606D02*
X9317243Y-9064130D01*
X9317243Y-9064130D02*
X9326767Y-9073654D01*
X9326767Y-9073654D02*
X9336291Y-9092701D01*
X9336291Y-9092701D02*
X9345815Y-9130796D01*
X9345815Y-9130796D02*
X9345815Y-9178416D01*
X9345815Y-9178416D02*
X9336291Y-9216511D01*
X9336291Y-9216511D02*
X9326767Y-9235558D01*
X9326767Y-9235558D02*
X9317243Y-9245082D01*
X9317243Y-9245082D02*
X9298196Y-9254606D01*
X9298196Y-9254606D02*
X9279148Y-9254606D01*
X9279148Y-9254606D02*
X9260101Y-9245082D01*
X9260101Y-9245082D02*
X9250577Y-9235558D01*
X9250577Y-9235558D02*
X9241053Y-9216511D01*
X9241053Y-9216511D02*
X9231529Y-9178416D01*
X9231529Y-9178416D02*
X9231529Y-9130796D01*
X9231529Y-9130796D02*
X9241053Y-9092701D01*
X9241053Y-9092701D02*
X9250577Y-9073654D01*
X9250577Y-9073654D02*
X9260101Y-9064130D01*
X9260101Y-9064130D02*
X9279148Y-9054606D01*
X9431529Y-9235558D02*
X9441053Y-9245082D01*
X9441053Y-9245082D02*
X9431529Y-9254606D01*
X9431529Y-9254606D02*
X9422005Y-9245082D01*
X9422005Y-9245082D02*
X9431529Y-9235558D01*
X9431529Y-9235558D02*
X9431529Y-9254606D01*
X9507720Y-9054606D02*
X9631529Y-9054606D01*
X9631529Y-9054606D02*
X9564862Y-9130796D01*
X9564862Y-9130796D02*
X9593434Y-9130796D01*
X9593434Y-9130796D02*
X9612482Y-9140320D01*
X9612482Y-9140320D02*
X9622005Y-9149844D01*
X9622005Y-9149844D02*
X9631529Y-9168892D01*
X9631529Y-9168892D02*
X9631529Y-9216511D01*
X9631529Y-9216511D02*
X9622005Y-9235558D01*
X9622005Y-9235558D02*
X9612482Y-9245082D01*
X9612482Y-9245082D02*
X9593434Y-9254606D01*
X9593434Y-9254606D02*
X9536291Y-9254606D01*
X9536291Y-9254606D02*
X9517243Y-9245082D01*
X9517243Y-9245082D02*
X9507720Y-9235558D01*
X9755339Y-9054606D02*
X9774386Y-9054606D01*
X9774386Y-9054606D02*
X9793434Y-9064130D01*
X9793434Y-9064130D02*
X9802958Y-9073654D01*
X9802958Y-9073654D02*
X9812482Y-9092701D01*
X9812482Y-9092701D02*
X9822005Y-9130796D01*
X9822005Y-9130796D02*
X9822005Y-9178416D01*
X9822005Y-9178416D02*
X9812482Y-9216511D01*
X9812482Y-9216511D02*
X9802958Y-9235558D01*
X9802958Y-9235558D02*
X9793434Y-9245082D01*
X9793434Y-9245082D02*
X9774386Y-9254606D01*
X9774386Y-9254606D02*
X9755339Y-9254606D01*
X9755339Y-9254606D02*
X9736291Y-9245082D01*
X9736291Y-9245082D02*
X9726767Y-9235558D01*
X9726767Y-9235558D02*
X9717243Y-9216511D01*
X9717243Y-9216511D02*
X9707720Y-9178416D01*
X9707720Y-9178416D02*
X9707720Y-9130796D01*
X9707720Y-9130796D02*
X9717243Y-9092701D01*
X9717243Y-9092701D02*
X9726767Y-9073654D01*
X9726767Y-9073654D02*
X9736291Y-9064130D01*
X9736291Y-9064130D02*
X9755339Y-9054606D01*
X9945815Y-9054606D02*
X9964863Y-9054606D01*
X9964863Y-9054606D02*
X9983910Y-9064130D01*
X9983910Y-9064130D02*
X9993434Y-9073654D01*
X9993434Y-9073654D02*
X10002958Y-9092701D01*
X10002958Y-9092701D02*
X10012482Y-9130796D01*
X10012482Y-9130796D02*
X10012482Y-9178416D01*
X10012482Y-9178416D02*
X10002958Y-9216511D01*
X10002958Y-9216511D02*
X9993434Y-9235558D01*
X9993434Y-9235558D02*
X9983910Y-9245082D01*
X9983910Y-9245082D02*
X9964863Y-9254606D01*
X9964863Y-9254606D02*
X9945815Y-9254606D01*
X9945815Y-9254606D02*
X9926767Y-9245082D01*
X9926767Y-9245082D02*
X9917243Y-9235558D01*
X9917243Y-9235558D02*
X9907720Y-9216511D01*
X9907720Y-9216511D02*
X9898196Y-9178416D01*
X9898196Y-9178416D02*
X9898196Y-9130796D01*
X9898196Y-9130796D02*
X9907720Y-9092701D01*
X9907720Y-9092701D02*
X9917243Y-9073654D01*
X9917243Y-9073654D02*
X9926767Y-9064130D01*
X9926767Y-9064130D02*
X9945815Y-9054606D01*
X10098196Y-9254606D02*
X10098196Y-9121273D01*
X10098196Y-9140320D02*
X10107720Y-9130796D01*
X10107720Y-9130796D02*
X10126767Y-9121273D01*
X10126767Y-9121273D02*
X10155339Y-9121273D01*
X10155339Y-9121273D02*
X10174386Y-9130796D01*
X10174386Y-9130796D02*
X10183910Y-9149844D01*
X10183910Y-9149844D02*
X10183910Y-9254606D01*
X10183910Y-9149844D02*
X10193434Y-9130796D01*
X10193434Y-9130796D02*
X10212482Y-9121273D01*
X10212482Y-9121273D02*
X10241053Y-9121273D01*
X10241053Y-9121273D02*
X10260101Y-9130796D01*
X10260101Y-9130796D02*
X10269624Y-9149844D01*
X10269624Y-9149844D02*
X10269624Y-9254606D01*
X10364863Y-9254606D02*
X10364863Y-9121273D01*
X10364863Y-9140320D02*
X10374386Y-9130796D01*
X10374386Y-9130796D02*
X10393434Y-9121273D01*
X10393434Y-9121273D02*
X10422005Y-9121273D01*
X10422005Y-9121273D02*
X10441053Y-9130796D01*
X10441053Y-9130796D02*
X10450577Y-9149844D01*
X10450577Y-9149844D02*
X10450577Y-9254606D01*
X10450577Y-9149844D02*
X10460101Y-9130796D01*
X10460101Y-9130796D02*
X10479148Y-9121273D01*
X10479148Y-9121273D02*
X10507720Y-9121273D01*
X10507720Y-9121273D02*
X10526767Y-9130796D01*
X10526767Y-9130796D02*
X10536291Y-9149844D01*
X10536291Y-9149844D02*
X10536291Y-9254606D01*
X10926767Y-9045082D02*
X10755339Y-9302225D01*
X11183910Y-9054606D02*
X11202958Y-9054606D01*
X11202958Y-9054606D02*
X11222005Y-9064130D01*
X11222005Y-9064130D02*
X11231529Y-9073654D01*
X11231529Y-9073654D02*
X11241053Y-9092701D01*
X11241053Y-9092701D02*
X11250577Y-9130796D01*
X11250577Y-9130796D02*
X11250577Y-9178416D01*
X11250577Y-9178416D02*
X11241053Y-9216511D01*
X11241053Y-9216511D02*
X11231529Y-9235558D01*
X11231529Y-9235558D02*
X11222005Y-9245082D01*
X11222005Y-9245082D02*
X11202958Y-9254606D01*
X11202958Y-9254606D02*
X11183910Y-9254606D01*
X11183910Y-9254606D02*
X11164863Y-9245082D01*
X11164863Y-9245082D02*
X11155339Y-9235558D01*
X11155339Y-9235558D02*
X11145815Y-9216511D01*
X11145815Y-9216511D02*
X11136291Y-9178416D01*
X11136291Y-9178416D02*
X11136291Y-9130796D01*
X11136291Y-9130796D02*
X11145815Y-9092701D01*
X11145815Y-9092701D02*
X11155339Y-9073654D01*
X11155339Y-9073654D02*
X11164863Y-9064130D01*
X11164863Y-9064130D02*
X11183910Y-9054606D01*
X11336291Y-9235558D02*
X11345815Y-9245082D01*
X11345815Y-9245082D02*
X11336291Y-9254606D01*
X11336291Y-9254606D02*
X11326767Y-9245082D01*
X11326767Y-9245082D02*
X11336291Y-9235558D01*
X11336291Y-9235558D02*
X11336291Y-9254606D01*
X11469624Y-9054606D02*
X11488672Y-9054606D01*
X11488672Y-9054606D02*
X11507720Y-9064130D01*
X11507720Y-9064130D02*
X11517244Y-9073654D01*
X11517244Y-9073654D02*
X11526767Y-9092701D01*
X11526767Y-9092701D02*
X11536291Y-9130796D01*
X11536291Y-9130796D02*
X11536291Y-9178416D01*
X11536291Y-9178416D02*
X11526767Y-9216511D01*
X11526767Y-9216511D02*
X11517244Y-9235558D01*
X11517244Y-9235558D02*
X11507720Y-9245082D01*
X11507720Y-9245082D02*
X11488672Y-9254606D01*
X11488672Y-9254606D02*
X11469624Y-9254606D01*
X11469624Y-9254606D02*
X11450577Y-9245082D01*
X11450577Y-9245082D02*
X11441053Y-9235558D01*
X11441053Y-9235558D02*
X11431529Y-9216511D01*
X11431529Y-9216511D02*
X11422005Y-9178416D01*
X11422005Y-9178416D02*
X11422005Y-9130796D01*
X11422005Y-9130796D02*
X11431529Y-9092701D01*
X11431529Y-9092701D02*
X11441053Y-9073654D01*
X11441053Y-9073654D02*
X11450577Y-9064130D01*
X11450577Y-9064130D02*
X11469624Y-9054606D01*
X11726767Y-9254606D02*
X11612482Y-9254606D01*
X11669624Y-9254606D02*
X11669624Y-9054606D01*
X11669624Y-9054606D02*
X11650577Y-9083177D01*
X11650577Y-9083177D02*
X11631529Y-9102225D01*
X11631529Y-9102225D02*
X11612482Y-9111749D01*
X11917244Y-9254606D02*
X11802958Y-9254606D01*
X11860101Y-9254606D02*
X11860101Y-9054606D01*
X11860101Y-9054606D02*
X11841053Y-9083177D01*
X11841053Y-9083177D02*
X11822005Y-9102225D01*
X11822005Y-9102225D02*
X11802958Y-9111749D01*
X12031529Y-9140320D02*
X12012482Y-9130796D01*
X12012482Y-9130796D02*
X12002958Y-9121273D01*
X12002958Y-9121273D02*
X11993434Y-9102225D01*
X11993434Y-9102225D02*
X11993434Y-9092701D01*
X11993434Y-9092701D02*
X12002958Y-9073654D01*
X12002958Y-9073654D02*
X12012482Y-9064130D01*
X12012482Y-9064130D02*
X12031529Y-9054606D01*
X12031529Y-9054606D02*
X12069625Y-9054606D01*
X12069625Y-9054606D02*
X12088672Y-9064130D01*
X12088672Y-9064130D02*
X12098196Y-9073654D01*
X12098196Y-9073654D02*
X12107720Y-9092701D01*
X12107720Y-9092701D02*
X12107720Y-9102225D01*
X12107720Y-9102225D02*
X12098196Y-9121273D01*
X12098196Y-9121273D02*
X12088672Y-9130796D01*
X12088672Y-9130796D02*
X12069625Y-9140320D01*
X12069625Y-9140320D02*
X12031529Y-9140320D01*
X12031529Y-9140320D02*
X12012482Y-9149844D01*
X12012482Y-9149844D02*
X12002958Y-9159368D01*
X12002958Y-9159368D02*
X11993434Y-9178416D01*
X11993434Y-9178416D02*
X11993434Y-9216511D01*
X11993434Y-9216511D02*
X12002958Y-9235558D01*
X12002958Y-9235558D02*
X12012482Y-9245082D01*
X12012482Y-9245082D02*
X12031529Y-9254606D01*
X12031529Y-9254606D02*
X12069625Y-9254606D01*
X12069625Y-9254606D02*
X12088672Y-9245082D01*
X12088672Y-9245082D02*
X12098196Y-9235558D01*
X12098196Y-9235558D02*
X12107720Y-9216511D01*
X12107720Y-9216511D02*
X12107720Y-9178416D01*
X12107720Y-9178416D02*
X12098196Y-9159368D01*
X12098196Y-9159368D02*
X12088672Y-9149844D01*
X12088672Y-9149844D02*
X12069625Y-9140320D01*
X12183910Y-9054606D02*
X12183910Y-9092701D01*
X12260101Y-9054606D02*
X12260101Y-9092701D01*
X12555339Y-9330796D02*
X12545815Y-9321273D01*
X12545815Y-9321273D02*
X12526767Y-9292701D01*
X12526767Y-9292701D02*
X12517244Y-9273654D01*
X12517244Y-9273654D02*
X12507720Y-9245082D01*
X12507720Y-9245082D02*
X12498196Y-9197463D01*
X12498196Y-9197463D02*
X12498196Y-9159368D01*
X12498196Y-9159368D02*
X12507720Y-9111749D01*
X12507720Y-9111749D02*
X12517244Y-9083177D01*
X12517244Y-9083177D02*
X12526767Y-9064130D01*
X12526767Y-9064130D02*
X12545815Y-9035558D01*
X12545815Y-9035558D02*
X12555339Y-9026035D01*
X12622006Y-9073654D02*
X12631529Y-9064130D01*
X12631529Y-9064130D02*
X12650577Y-9054606D01*
X12650577Y-9054606D02*
X12698196Y-9054606D01*
X12698196Y-9054606D02*
X12717244Y-9064130D01*
X12717244Y-9064130D02*
X12726767Y-9073654D01*
X12726767Y-9073654D02*
X12736291Y-9092701D01*
X12736291Y-9092701D02*
X12736291Y-9111749D01*
X12736291Y-9111749D02*
X12726767Y-9140320D01*
X12726767Y-9140320D02*
X12612482Y-9254606D01*
X12612482Y-9254606D02*
X12736291Y-9254606D01*
X12907720Y-9121273D02*
X12907720Y-9254606D01*
X12860101Y-9045082D02*
X12812482Y-9187939D01*
X12812482Y-9187939D02*
X12936291Y-9187939D01*
X13164863Y-9254606D02*
X13164863Y-9054606D01*
X13250577Y-9254606D02*
X13250577Y-9149844D01*
X13250577Y-9149844D02*
X13241053Y-9130796D01*
X13241053Y-9130796D02*
X13222006Y-9121273D01*
X13222006Y-9121273D02*
X13193434Y-9121273D01*
X13193434Y-9121273D02*
X13174387Y-9130796D01*
X13174387Y-9130796D02*
X13164863Y-9140320D01*
X13374387Y-9254606D02*
X13355339Y-9245082D01*
X13355339Y-9245082D02*
X13345815Y-9235558D01*
X13345815Y-9235558D02*
X13336291Y-9216511D01*
X13336291Y-9216511D02*
X13336291Y-9159368D01*
X13336291Y-9159368D02*
X13345815Y-9140320D01*
X13345815Y-9140320D02*
X13355339Y-9130796D01*
X13355339Y-9130796D02*
X13374387Y-9121273D01*
X13374387Y-9121273D02*
X13402958Y-9121273D01*
X13402958Y-9121273D02*
X13422006Y-9130796D01*
X13422006Y-9130796D02*
X13431529Y-9140320D01*
X13431529Y-9140320D02*
X13441053Y-9159368D01*
X13441053Y-9159368D02*
X13441053Y-9216511D01*
X13441053Y-9216511D02*
X13431529Y-9235558D01*
X13431529Y-9235558D02*
X13422006Y-9245082D01*
X13422006Y-9245082D02*
X13402958Y-9254606D01*
X13402958Y-9254606D02*
X13374387Y-9254606D01*
X13555339Y-9254606D02*
X13536291Y-9245082D01*
X13536291Y-9245082D02*
X13526768Y-9226035D01*
X13526768Y-9226035D02*
X13526768Y-9054606D01*
X13707720Y-9245082D02*
X13688672Y-9254606D01*
X13688672Y-9254606D02*
X13650577Y-9254606D01*
X13650577Y-9254606D02*
X13631529Y-9245082D01*
X13631529Y-9245082D02*
X13622006Y-9226035D01*
X13622006Y-9226035D02*
X13622006Y-9149844D01*
X13622006Y-9149844D02*
X13631529Y-9130796D01*
X13631529Y-9130796D02*
X13650577Y-9121273D01*
X13650577Y-9121273D02*
X13688672Y-9121273D01*
X13688672Y-9121273D02*
X13707720Y-9130796D01*
X13707720Y-9130796D02*
X13717244Y-9149844D01*
X13717244Y-9149844D02*
X13717244Y-9168892D01*
X13717244Y-9168892D02*
X13622006Y-9187939D01*
X13793434Y-9245082D02*
X13812482Y-9254606D01*
X13812482Y-9254606D02*
X13850577Y-9254606D01*
X13850577Y-9254606D02*
X13869625Y-9245082D01*
X13869625Y-9245082D02*
X13879149Y-9226035D01*
X13879149Y-9226035D02*
X13879149Y-9216511D01*
X13879149Y-9216511D02*
X13869625Y-9197463D01*
X13869625Y-9197463D02*
X13850577Y-9187939D01*
X13850577Y-9187939D02*
X13822006Y-9187939D01*
X13822006Y-9187939D02*
X13802958Y-9178416D01*
X13802958Y-9178416D02*
X13793434Y-9159368D01*
X13793434Y-9159368D02*
X13793434Y-9149844D01*
X13793434Y-9149844D02*
X13802958Y-9130796D01*
X13802958Y-9130796D02*
X13822006Y-9121273D01*
X13822006Y-9121273D02*
X13850577Y-9121273D01*
X13850577Y-9121273D02*
X13869625Y-9130796D01*
X13945815Y-9330796D02*
X13955339Y-9321273D01*
X13955339Y-9321273D02*
X13974387Y-9292701D01*
X13974387Y-9292701D02*
X13983910Y-9273654D01*
X13983910Y-9273654D02*
X13993434Y-9245082D01*
X13993434Y-9245082D02*
X14002958Y-9197463D01*
X14002958Y-9197463D02*
X14002958Y-9159368D01*
X14002958Y-9159368D02*
X13993434Y-9111749D01*
X13993434Y-9111749D02*
X13983910Y-9083177D01*
X13983910Y-9083177D02*
X13974387Y-9064130D01*
X13974387Y-9064130D02*
X13955339Y-9035558D01*
X13955339Y-9035558D02*
X13945815Y-9026035D01*
D11*
X8980276Y-9427122D02*
G75*
G02*
X8925276Y-9427122I-27500J0D01*
G01*
X8925276Y-9427122D02*
G75*
G02*
X8980276Y-9427122I27500J0D01*
G01*
D10*
X9279148Y-9318606D02*
X9298196Y-9318606D01*
X9298196Y-9318606D02*
X9317243Y-9328130D01*
X9317243Y-9328130D02*
X9326767Y-9337654D01*
X9326767Y-9337654D02*
X9336291Y-9356701D01*
X9336291Y-9356701D02*
X9345815Y-9394796D01*
X9345815Y-9394796D02*
X9345815Y-9442416D01*
X9345815Y-9442416D02*
X9336291Y-9480511D01*
X9336291Y-9480511D02*
X9326767Y-9499558D01*
X9326767Y-9499558D02*
X9317243Y-9509082D01*
X9317243Y-9509082D02*
X9298196Y-9518606D01*
X9298196Y-9518606D02*
X9279148Y-9518606D01*
X9279148Y-9518606D02*
X9260101Y-9509082D01*
X9260101Y-9509082D02*
X9250577Y-9499558D01*
X9250577Y-9499558D02*
X9241053Y-9480511D01*
X9241053Y-9480511D02*
X9231529Y-9442416D01*
X9231529Y-9442416D02*
X9231529Y-9394796D01*
X9231529Y-9394796D02*
X9241053Y-9356701D01*
X9241053Y-9356701D02*
X9250577Y-9337654D01*
X9250577Y-9337654D02*
X9260101Y-9328130D01*
X9260101Y-9328130D02*
X9279148Y-9318606D01*
X9431529Y-9499558D02*
X9441053Y-9509082D01*
X9441053Y-9509082D02*
X9431529Y-9518606D01*
X9431529Y-9518606D02*
X9422005Y-9509082D01*
X9422005Y-9509082D02*
X9431529Y-9499558D01*
X9431529Y-9499558D02*
X9431529Y-9518606D01*
X9622005Y-9318606D02*
X9526767Y-9318606D01*
X9526767Y-9318606D02*
X9517243Y-9413844D01*
X9517243Y-9413844D02*
X9526767Y-9404320D01*
X9526767Y-9404320D02*
X9545815Y-9394796D01*
X9545815Y-9394796D02*
X9593434Y-9394796D01*
X9593434Y-9394796D02*
X9612482Y-9404320D01*
X9612482Y-9404320D02*
X9622005Y-9413844D01*
X9622005Y-9413844D02*
X9631529Y-9432892D01*
X9631529Y-9432892D02*
X9631529Y-9480511D01*
X9631529Y-9480511D02*
X9622005Y-9499558D01*
X9622005Y-9499558D02*
X9612482Y-9509082D01*
X9612482Y-9509082D02*
X9593434Y-9518606D01*
X9593434Y-9518606D02*
X9545815Y-9518606D01*
X9545815Y-9518606D02*
X9526767Y-9509082D01*
X9526767Y-9509082D02*
X9517243Y-9499558D01*
X9812482Y-9318606D02*
X9717243Y-9318606D01*
X9717243Y-9318606D02*
X9707720Y-9413844D01*
X9707720Y-9413844D02*
X9717243Y-9404320D01*
X9717243Y-9404320D02*
X9736291Y-9394796D01*
X9736291Y-9394796D02*
X9783910Y-9394796D01*
X9783910Y-9394796D02*
X9802958Y-9404320D01*
X9802958Y-9404320D02*
X9812482Y-9413844D01*
X9812482Y-9413844D02*
X9822005Y-9432892D01*
X9822005Y-9432892D02*
X9822005Y-9480511D01*
X9822005Y-9480511D02*
X9812482Y-9499558D01*
X9812482Y-9499558D02*
X9802958Y-9509082D01*
X9802958Y-9509082D02*
X9783910Y-9518606D01*
X9783910Y-9518606D02*
X9736291Y-9518606D01*
X9736291Y-9518606D02*
X9717243Y-9509082D01*
X9717243Y-9509082D02*
X9707720Y-9499558D01*
X9945815Y-9318606D02*
X9964863Y-9318606D01*
X9964863Y-9318606D02*
X9983910Y-9328130D01*
X9983910Y-9328130D02*
X9993434Y-9337654D01*
X9993434Y-9337654D02*
X10002958Y-9356701D01*
X10002958Y-9356701D02*
X10012482Y-9394796D01*
X10012482Y-9394796D02*
X10012482Y-9442416D01*
X10012482Y-9442416D02*
X10002958Y-9480511D01*
X10002958Y-9480511D02*
X9993434Y-9499558D01*
X9993434Y-9499558D02*
X9983910Y-9509082D01*
X9983910Y-9509082D02*
X9964863Y-9518606D01*
X9964863Y-9518606D02*
X9945815Y-9518606D01*
X9945815Y-9518606D02*
X9926767Y-9509082D01*
X9926767Y-9509082D02*
X9917243Y-9499558D01*
X9917243Y-9499558D02*
X9907720Y-9480511D01*
X9907720Y-9480511D02*
X9898196Y-9442416D01*
X9898196Y-9442416D02*
X9898196Y-9394796D01*
X9898196Y-9394796D02*
X9907720Y-9356701D01*
X9907720Y-9356701D02*
X9917243Y-9337654D01*
X9917243Y-9337654D02*
X9926767Y-9328130D01*
X9926767Y-9328130D02*
X9945815Y-9318606D01*
X10098196Y-9518606D02*
X10098196Y-9385273D01*
X10098196Y-9404320D02*
X10107720Y-9394796D01*
X10107720Y-9394796D02*
X10126767Y-9385273D01*
X10126767Y-9385273D02*
X10155339Y-9385273D01*
X10155339Y-9385273D02*
X10174386Y-9394796D01*
X10174386Y-9394796D02*
X10183910Y-9413844D01*
X10183910Y-9413844D02*
X10183910Y-9518606D01*
X10183910Y-9413844D02*
X10193434Y-9394796D01*
X10193434Y-9394796D02*
X10212482Y-9385273D01*
X10212482Y-9385273D02*
X10241053Y-9385273D01*
X10241053Y-9385273D02*
X10260101Y-9394796D01*
X10260101Y-9394796D02*
X10269624Y-9413844D01*
X10269624Y-9413844D02*
X10269624Y-9518606D01*
X10364863Y-9518606D02*
X10364863Y-9385273D01*
X10364863Y-9404320D02*
X10374386Y-9394796D01*
X10374386Y-9394796D02*
X10393434Y-9385273D01*
X10393434Y-9385273D02*
X10422005Y-9385273D01*
X10422005Y-9385273D02*
X10441053Y-9394796D01*
X10441053Y-9394796D02*
X10450577Y-9413844D01*
X10450577Y-9413844D02*
X10450577Y-9518606D01*
X10450577Y-9413844D02*
X10460101Y-9394796D01*
X10460101Y-9394796D02*
X10479148Y-9385273D01*
X10479148Y-9385273D02*
X10507720Y-9385273D01*
X10507720Y-9385273D02*
X10526767Y-9394796D01*
X10526767Y-9394796D02*
X10536291Y-9413844D01*
X10536291Y-9413844D02*
X10536291Y-9518606D01*
X10926767Y-9309082D02*
X10755339Y-9566225D01*
X11183910Y-9318606D02*
X11202958Y-9318606D01*
X11202958Y-9318606D02*
X11222005Y-9328130D01*
X11222005Y-9328130D02*
X11231529Y-9337654D01*
X11231529Y-9337654D02*
X11241053Y-9356701D01*
X11241053Y-9356701D02*
X11250577Y-9394796D01*
X11250577Y-9394796D02*
X11250577Y-9442416D01*
X11250577Y-9442416D02*
X11241053Y-9480511D01*
X11241053Y-9480511D02*
X11231529Y-9499558D01*
X11231529Y-9499558D02*
X11222005Y-9509082D01*
X11222005Y-9509082D02*
X11202958Y-9518606D01*
X11202958Y-9518606D02*
X11183910Y-9518606D01*
X11183910Y-9518606D02*
X11164863Y-9509082D01*
X11164863Y-9509082D02*
X11155339Y-9499558D01*
X11155339Y-9499558D02*
X11145815Y-9480511D01*
X11145815Y-9480511D02*
X11136291Y-9442416D01*
X11136291Y-9442416D02*
X11136291Y-9394796D01*
X11136291Y-9394796D02*
X11145815Y-9356701D01*
X11145815Y-9356701D02*
X11155339Y-9337654D01*
X11155339Y-9337654D02*
X11164863Y-9328130D01*
X11164863Y-9328130D02*
X11183910Y-9318606D01*
X11336291Y-9499558D02*
X11345815Y-9509082D01*
X11345815Y-9509082D02*
X11336291Y-9518606D01*
X11336291Y-9518606D02*
X11326767Y-9509082D01*
X11326767Y-9509082D02*
X11336291Y-9499558D01*
X11336291Y-9499558D02*
X11336291Y-9518606D01*
X11469624Y-9318606D02*
X11488672Y-9318606D01*
X11488672Y-9318606D02*
X11507720Y-9328130D01*
X11507720Y-9328130D02*
X11517244Y-9337654D01*
X11517244Y-9337654D02*
X11526767Y-9356701D01*
X11526767Y-9356701D02*
X11536291Y-9394796D01*
X11536291Y-9394796D02*
X11536291Y-9442416D01*
X11536291Y-9442416D02*
X11526767Y-9480511D01*
X11526767Y-9480511D02*
X11517244Y-9499558D01*
X11517244Y-9499558D02*
X11507720Y-9509082D01*
X11507720Y-9509082D02*
X11488672Y-9518606D01*
X11488672Y-9518606D02*
X11469624Y-9518606D01*
X11469624Y-9518606D02*
X11450577Y-9509082D01*
X11450577Y-9509082D02*
X11441053Y-9499558D01*
X11441053Y-9499558D02*
X11431529Y-9480511D01*
X11431529Y-9480511D02*
X11422005Y-9442416D01*
X11422005Y-9442416D02*
X11422005Y-9394796D01*
X11422005Y-9394796D02*
X11431529Y-9356701D01*
X11431529Y-9356701D02*
X11441053Y-9337654D01*
X11441053Y-9337654D02*
X11450577Y-9328130D01*
X11450577Y-9328130D02*
X11469624Y-9318606D01*
X11612482Y-9337654D02*
X11622005Y-9328130D01*
X11622005Y-9328130D02*
X11641053Y-9318606D01*
X11641053Y-9318606D02*
X11688672Y-9318606D01*
X11688672Y-9318606D02*
X11707720Y-9328130D01*
X11707720Y-9328130D02*
X11717244Y-9337654D01*
X11717244Y-9337654D02*
X11726767Y-9356701D01*
X11726767Y-9356701D02*
X11726767Y-9375749D01*
X11726767Y-9375749D02*
X11717244Y-9404320D01*
X11717244Y-9404320D02*
X11602958Y-9518606D01*
X11602958Y-9518606D02*
X11726767Y-9518606D01*
X11917244Y-9518606D02*
X11802958Y-9518606D01*
X11860101Y-9518606D02*
X11860101Y-9318606D01*
X11860101Y-9318606D02*
X11841053Y-9347177D01*
X11841053Y-9347177D02*
X11822005Y-9366225D01*
X11822005Y-9366225D02*
X11802958Y-9375749D01*
X11983910Y-9318606D02*
X12117244Y-9318606D01*
X12117244Y-9318606D02*
X12031529Y-9518606D01*
X12183910Y-9318606D02*
X12183910Y-9356701D01*
X12260101Y-9318606D02*
X12260101Y-9356701D01*
X12555339Y-9594796D02*
X12545815Y-9585273D01*
X12545815Y-9585273D02*
X12526767Y-9556701D01*
X12526767Y-9556701D02*
X12517244Y-9537654D01*
X12517244Y-9537654D02*
X12507720Y-9509082D01*
X12507720Y-9509082D02*
X12498196Y-9461463D01*
X12498196Y-9461463D02*
X12498196Y-9423368D01*
X12498196Y-9423368D02*
X12507720Y-9375749D01*
X12507720Y-9375749D02*
X12517244Y-9347177D01*
X12517244Y-9347177D02*
X12526767Y-9328130D01*
X12526767Y-9328130D02*
X12545815Y-9299558D01*
X12545815Y-9299558D02*
X12555339Y-9290035D01*
X12669625Y-9318606D02*
X12688672Y-9318606D01*
X12688672Y-9318606D02*
X12707720Y-9328130D01*
X12707720Y-9328130D02*
X12717244Y-9337654D01*
X12717244Y-9337654D02*
X12726767Y-9356701D01*
X12726767Y-9356701D02*
X12736291Y-9394796D01*
X12736291Y-9394796D02*
X12736291Y-9442416D01*
X12736291Y-9442416D02*
X12726767Y-9480511D01*
X12726767Y-9480511D02*
X12717244Y-9499558D01*
X12717244Y-9499558D02*
X12707720Y-9509082D01*
X12707720Y-9509082D02*
X12688672Y-9518606D01*
X12688672Y-9518606D02*
X12669625Y-9518606D01*
X12669625Y-9518606D02*
X12650577Y-9509082D01*
X12650577Y-9509082D02*
X12641053Y-9499558D01*
X12641053Y-9499558D02*
X12631529Y-9480511D01*
X12631529Y-9480511D02*
X12622006Y-9442416D01*
X12622006Y-9442416D02*
X12622006Y-9394796D01*
X12622006Y-9394796D02*
X12631529Y-9356701D01*
X12631529Y-9356701D02*
X12641053Y-9337654D01*
X12641053Y-9337654D02*
X12650577Y-9328130D01*
X12650577Y-9328130D02*
X12669625Y-9318606D01*
X12974387Y-9518606D02*
X12974387Y-9318606D01*
X13060101Y-9518606D02*
X13060101Y-9413844D01*
X13060101Y-9413844D02*
X13050577Y-9394796D01*
X13050577Y-9394796D02*
X13031529Y-9385273D01*
X13031529Y-9385273D02*
X13002958Y-9385273D01*
X13002958Y-9385273D02*
X12983910Y-9394796D01*
X12983910Y-9394796D02*
X12974387Y-9404320D01*
X13183910Y-9518606D02*
X13164863Y-9509082D01*
X13164863Y-9509082D02*
X13155339Y-9499558D01*
X13155339Y-9499558D02*
X13145815Y-9480511D01*
X13145815Y-9480511D02*
X13145815Y-9423368D01*
X13145815Y-9423368D02*
X13155339Y-9404320D01*
X13155339Y-9404320D02*
X13164863Y-9394796D01*
X13164863Y-9394796D02*
X13183910Y-9385273D01*
X13183910Y-9385273D02*
X13212482Y-9385273D01*
X13212482Y-9385273D02*
X13231529Y-9394796D01*
X13231529Y-9394796D02*
X13241053Y-9404320D01*
X13241053Y-9404320D02*
X13250577Y-9423368D01*
X13250577Y-9423368D02*
X13250577Y-9480511D01*
X13250577Y-9480511D02*
X13241053Y-9499558D01*
X13241053Y-9499558D02*
X13231529Y-9509082D01*
X13231529Y-9509082D02*
X13212482Y-9518606D01*
X13212482Y-9518606D02*
X13183910Y-9518606D01*
X13364863Y-9518606D02*
X13345815Y-9509082D01*
X13345815Y-9509082D02*
X13336291Y-9490035D01*
X13336291Y-9490035D02*
X13336291Y-9318606D01*
X13517244Y-9509082D02*
X13498196Y-9518606D01*
X13498196Y-9518606D02*
X13460101Y-9518606D01*
X13460101Y-9518606D02*
X13441053Y-9509082D01*
X13441053Y-9509082D02*
X13431529Y-9490035D01*
X13431529Y-9490035D02*
X13431529Y-9413844D01*
X13431529Y-9413844D02*
X13441053Y-9394796D01*
X13441053Y-9394796D02*
X13460101Y-9385273D01*
X13460101Y-9385273D02*
X13498196Y-9385273D01*
X13498196Y-9385273D02*
X13517244Y-9394796D01*
X13517244Y-9394796D02*
X13526768Y-9413844D01*
X13526768Y-9413844D02*
X13526768Y-9432892D01*
X13526768Y-9432892D02*
X13431529Y-9451939D01*
X13602958Y-9509082D02*
X13622006Y-9518606D01*
X13622006Y-9518606D02*
X13660101Y-9518606D01*
X13660101Y-9518606D02*
X13679149Y-9509082D01*
X13679149Y-9509082D02*
X13688672Y-9490035D01*
X13688672Y-9490035D02*
X13688672Y-9480511D01*
X13688672Y-9480511D02*
X13679149Y-9461463D01*
X13679149Y-9461463D02*
X13660101Y-9451939D01*
X13660101Y-9451939D02*
X13631529Y-9451939D01*
X13631529Y-9451939D02*
X13612482Y-9442416D01*
X13612482Y-9442416D02*
X13602958Y-9423368D01*
X13602958Y-9423368D02*
X13602958Y-9413844D01*
X13602958Y-9413844D02*
X13612482Y-9394796D01*
X13612482Y-9394796D02*
X13631529Y-9385273D01*
X13631529Y-9385273D02*
X13660101Y-9385273D01*
X13660101Y-9385273D02*
X13679149Y-9394796D01*
X13926768Y-9442416D02*
X14079149Y-9442416D01*
X14002958Y-9518606D02*
X14002958Y-9366225D01*
X14317244Y-9337654D02*
X14326768Y-9328130D01*
X14326768Y-9328130D02*
X14345815Y-9318606D01*
X14345815Y-9318606D02*
X14393434Y-9318606D01*
X14393434Y-9318606D02*
X14412482Y-9328130D01*
X14412482Y-9328130D02*
X14422006Y-9337654D01*
X14422006Y-9337654D02*
X14431530Y-9356701D01*
X14431530Y-9356701D02*
X14431530Y-9375749D01*
X14431530Y-9375749D02*
X14422006Y-9404320D01*
X14422006Y-9404320D02*
X14307720Y-9518606D01*
X14307720Y-9518606D02*
X14431530Y-9518606D01*
X14660101Y-9509082D02*
X14679149Y-9518606D01*
X14679149Y-9518606D02*
X14717244Y-9518606D01*
X14717244Y-9518606D02*
X14736292Y-9509082D01*
X14736292Y-9509082D02*
X14745815Y-9490035D01*
X14745815Y-9490035D02*
X14745815Y-9480511D01*
X14745815Y-9480511D02*
X14736292Y-9461463D01*
X14736292Y-9461463D02*
X14717244Y-9451939D01*
X14717244Y-9451939D02*
X14688672Y-9451939D01*
X14688672Y-9451939D02*
X14669625Y-9442416D01*
X14669625Y-9442416D02*
X14660101Y-9423368D01*
X14660101Y-9423368D02*
X14660101Y-9413844D01*
X14660101Y-9413844D02*
X14669625Y-9394796D01*
X14669625Y-9394796D02*
X14688672Y-9385273D01*
X14688672Y-9385273D02*
X14717244Y-9385273D01*
X14717244Y-9385273D02*
X14736292Y-9394796D01*
X14860101Y-9518606D02*
X14841053Y-9509082D01*
X14841053Y-9509082D02*
X14831530Y-9490035D01*
X14831530Y-9490035D02*
X14831530Y-9318606D01*
X14964863Y-9518606D02*
X14945815Y-9509082D01*
X14945815Y-9509082D02*
X14936292Y-9499558D01*
X14936292Y-9499558D02*
X14926768Y-9480511D01*
X14926768Y-9480511D02*
X14926768Y-9423368D01*
X14926768Y-9423368D02*
X14936292Y-9404320D01*
X14936292Y-9404320D02*
X14945815Y-9394796D01*
X14945815Y-9394796D02*
X14964863Y-9385273D01*
X14964863Y-9385273D02*
X14993434Y-9385273D01*
X14993434Y-9385273D02*
X15012482Y-9394796D01*
X15012482Y-9394796D02*
X15022006Y-9404320D01*
X15022006Y-9404320D02*
X15031530Y-9423368D01*
X15031530Y-9423368D02*
X15031530Y-9480511D01*
X15031530Y-9480511D02*
X15022006Y-9499558D01*
X15022006Y-9499558D02*
X15012482Y-9509082D01*
X15012482Y-9509082D02*
X14993434Y-9518606D01*
X14993434Y-9518606D02*
X14964863Y-9518606D01*
X15088673Y-9385273D02*
X15164863Y-9385273D01*
X15117244Y-9318606D02*
X15117244Y-9490035D01*
X15117244Y-9490035D02*
X15126768Y-9509082D01*
X15126768Y-9509082D02*
X15145815Y-9518606D01*
X15145815Y-9518606D02*
X15164863Y-9518606D01*
X15222006Y-9509082D02*
X15241053Y-9518606D01*
X15241053Y-9518606D02*
X15279149Y-9518606D01*
X15279149Y-9518606D02*
X15298196Y-9509082D01*
X15298196Y-9509082D02*
X15307720Y-9490035D01*
X15307720Y-9490035D02*
X15307720Y-9480511D01*
X15307720Y-9480511D02*
X15298196Y-9461463D01*
X15298196Y-9461463D02*
X15279149Y-9451939D01*
X15279149Y-9451939D02*
X15250577Y-9451939D01*
X15250577Y-9451939D02*
X15231530Y-9442416D01*
X15231530Y-9442416D02*
X15222006Y-9423368D01*
X15222006Y-9423368D02*
X15222006Y-9413844D01*
X15222006Y-9413844D02*
X15231530Y-9394796D01*
X15231530Y-9394796D02*
X15250577Y-9385273D01*
X15250577Y-9385273D02*
X15279149Y-9385273D01*
X15279149Y-9385273D02*
X15298196Y-9394796D01*
X15374387Y-9594796D02*
X15383911Y-9585273D01*
X15383911Y-9585273D02*
X15402958Y-9556701D01*
X15402958Y-9556701D02*
X15412482Y-9537654D01*
X15412482Y-9537654D02*
X15422006Y-9509082D01*
X15422006Y-9509082D02*
X15431530Y-9461463D01*
X15431530Y-9461463D02*
X15431530Y-9423368D01*
X15431530Y-9423368D02*
X15422006Y-9375749D01*
X15422006Y-9375749D02*
X15412482Y-9347177D01*
X15412482Y-9347177D02*
X15402958Y-9328130D01*
X15402958Y-9328130D02*
X15383911Y-9299558D01*
X15383911Y-9299558D02*
X15374387Y-9290035D01*
D11*
X8937776Y-9648622D02*
X8937776Y-9733622D01*
X8895276Y-9691122D02*
X8980276Y-9691122D01*
D10*
X9279148Y-9582606D02*
X9298196Y-9582606D01*
X9298196Y-9582606D02*
X9317243Y-9592130D01*
X9317243Y-9592130D02*
X9326767Y-9601654D01*
X9326767Y-9601654D02*
X9336291Y-9620701D01*
X9336291Y-9620701D02*
X9345815Y-9658796D01*
X9345815Y-9658796D02*
X9345815Y-9706416D01*
X9345815Y-9706416D02*
X9336291Y-9744511D01*
X9336291Y-9744511D02*
X9326767Y-9763558D01*
X9326767Y-9763558D02*
X9317243Y-9773082D01*
X9317243Y-9773082D02*
X9298196Y-9782606D01*
X9298196Y-9782606D02*
X9279148Y-9782606D01*
X9279148Y-9782606D02*
X9260101Y-9773082D01*
X9260101Y-9773082D02*
X9250577Y-9763558D01*
X9250577Y-9763558D02*
X9241053Y-9744511D01*
X9241053Y-9744511D02*
X9231529Y-9706416D01*
X9231529Y-9706416D02*
X9231529Y-9658796D01*
X9231529Y-9658796D02*
X9241053Y-9620701D01*
X9241053Y-9620701D02*
X9250577Y-9601654D01*
X9250577Y-9601654D02*
X9260101Y-9592130D01*
X9260101Y-9592130D02*
X9279148Y-9582606D01*
X9431529Y-9763558D02*
X9441053Y-9773082D01*
X9441053Y-9773082D02*
X9431529Y-9782606D01*
X9431529Y-9782606D02*
X9422005Y-9773082D01*
X9422005Y-9773082D02*
X9431529Y-9763558D01*
X9431529Y-9763558D02*
X9431529Y-9782606D01*
X9555339Y-9668320D02*
X9536291Y-9658796D01*
X9536291Y-9658796D02*
X9526767Y-9649273D01*
X9526767Y-9649273D02*
X9517243Y-9630225D01*
X9517243Y-9630225D02*
X9517243Y-9620701D01*
X9517243Y-9620701D02*
X9526767Y-9601654D01*
X9526767Y-9601654D02*
X9536291Y-9592130D01*
X9536291Y-9592130D02*
X9555339Y-9582606D01*
X9555339Y-9582606D02*
X9593434Y-9582606D01*
X9593434Y-9582606D02*
X9612482Y-9592130D01*
X9612482Y-9592130D02*
X9622005Y-9601654D01*
X9622005Y-9601654D02*
X9631529Y-9620701D01*
X9631529Y-9620701D02*
X9631529Y-9630225D01*
X9631529Y-9630225D02*
X9622005Y-9649273D01*
X9622005Y-9649273D02*
X9612482Y-9658796D01*
X9612482Y-9658796D02*
X9593434Y-9668320D01*
X9593434Y-9668320D02*
X9555339Y-9668320D01*
X9555339Y-9668320D02*
X9536291Y-9677844D01*
X9536291Y-9677844D02*
X9526767Y-9687368D01*
X9526767Y-9687368D02*
X9517243Y-9706416D01*
X9517243Y-9706416D02*
X9517243Y-9744511D01*
X9517243Y-9744511D02*
X9526767Y-9763558D01*
X9526767Y-9763558D02*
X9536291Y-9773082D01*
X9536291Y-9773082D02*
X9555339Y-9782606D01*
X9555339Y-9782606D02*
X9593434Y-9782606D01*
X9593434Y-9782606D02*
X9612482Y-9773082D01*
X9612482Y-9773082D02*
X9622005Y-9763558D01*
X9622005Y-9763558D02*
X9631529Y-9744511D01*
X9631529Y-9744511D02*
X9631529Y-9706416D01*
X9631529Y-9706416D02*
X9622005Y-9687368D01*
X9622005Y-9687368D02*
X9612482Y-9677844D01*
X9612482Y-9677844D02*
X9593434Y-9668320D01*
X9812482Y-9582606D02*
X9717243Y-9582606D01*
X9717243Y-9582606D02*
X9707720Y-9677844D01*
X9707720Y-9677844D02*
X9717243Y-9668320D01*
X9717243Y-9668320D02*
X9736291Y-9658796D01*
X9736291Y-9658796D02*
X9783910Y-9658796D01*
X9783910Y-9658796D02*
X9802958Y-9668320D01*
X9802958Y-9668320D02*
X9812482Y-9677844D01*
X9812482Y-9677844D02*
X9822005Y-9696892D01*
X9822005Y-9696892D02*
X9822005Y-9744511D01*
X9822005Y-9744511D02*
X9812482Y-9763558D01*
X9812482Y-9763558D02*
X9802958Y-9773082D01*
X9802958Y-9773082D02*
X9783910Y-9782606D01*
X9783910Y-9782606D02*
X9736291Y-9782606D01*
X9736291Y-9782606D02*
X9717243Y-9773082D01*
X9717243Y-9773082D02*
X9707720Y-9763558D01*
X9945815Y-9582606D02*
X9964863Y-9582606D01*
X9964863Y-9582606D02*
X9983910Y-9592130D01*
X9983910Y-9592130D02*
X9993434Y-9601654D01*
X9993434Y-9601654D02*
X10002958Y-9620701D01*
X10002958Y-9620701D02*
X10012482Y-9658796D01*
X10012482Y-9658796D02*
X10012482Y-9706416D01*
X10012482Y-9706416D02*
X10002958Y-9744511D01*
X10002958Y-9744511D02*
X9993434Y-9763558D01*
X9993434Y-9763558D02*
X9983910Y-9773082D01*
X9983910Y-9773082D02*
X9964863Y-9782606D01*
X9964863Y-9782606D02*
X9945815Y-9782606D01*
X9945815Y-9782606D02*
X9926767Y-9773082D01*
X9926767Y-9773082D02*
X9917243Y-9763558D01*
X9917243Y-9763558D02*
X9907720Y-9744511D01*
X9907720Y-9744511D02*
X9898196Y-9706416D01*
X9898196Y-9706416D02*
X9898196Y-9658796D01*
X9898196Y-9658796D02*
X9907720Y-9620701D01*
X9907720Y-9620701D02*
X9917243Y-9601654D01*
X9917243Y-9601654D02*
X9926767Y-9592130D01*
X9926767Y-9592130D02*
X9945815Y-9582606D01*
X10098196Y-9782606D02*
X10098196Y-9649273D01*
X10098196Y-9668320D02*
X10107720Y-9658796D01*
X10107720Y-9658796D02*
X10126767Y-9649273D01*
X10126767Y-9649273D02*
X10155339Y-9649273D01*
X10155339Y-9649273D02*
X10174386Y-9658796D01*
X10174386Y-9658796D02*
X10183910Y-9677844D01*
X10183910Y-9677844D02*
X10183910Y-9782606D01*
X10183910Y-9677844D02*
X10193434Y-9658796D01*
X10193434Y-9658796D02*
X10212482Y-9649273D01*
X10212482Y-9649273D02*
X10241053Y-9649273D01*
X10241053Y-9649273D02*
X10260101Y-9658796D01*
X10260101Y-9658796D02*
X10269624Y-9677844D01*
X10269624Y-9677844D02*
X10269624Y-9782606D01*
X10364863Y-9782606D02*
X10364863Y-9649273D01*
X10364863Y-9668320D02*
X10374386Y-9658796D01*
X10374386Y-9658796D02*
X10393434Y-9649273D01*
X10393434Y-9649273D02*
X10422005Y-9649273D01*
X10422005Y-9649273D02*
X10441053Y-9658796D01*
X10441053Y-9658796D02*
X10450577Y-9677844D01*
X10450577Y-9677844D02*
X10450577Y-9782606D01*
X10450577Y-9677844D02*
X10460101Y-9658796D01*
X10460101Y-9658796D02*
X10479148Y-9649273D01*
X10479148Y-9649273D02*
X10507720Y-9649273D01*
X10507720Y-9649273D02*
X10526767Y-9658796D01*
X10526767Y-9658796D02*
X10536291Y-9677844D01*
X10536291Y-9677844D02*
X10536291Y-9782606D01*
X10926767Y-9573082D02*
X10755339Y-9830225D01*
X11183910Y-9582606D02*
X11202958Y-9582606D01*
X11202958Y-9582606D02*
X11222005Y-9592130D01*
X11222005Y-9592130D02*
X11231529Y-9601654D01*
X11231529Y-9601654D02*
X11241053Y-9620701D01*
X11241053Y-9620701D02*
X11250577Y-9658796D01*
X11250577Y-9658796D02*
X11250577Y-9706416D01*
X11250577Y-9706416D02*
X11241053Y-9744511D01*
X11241053Y-9744511D02*
X11231529Y-9763558D01*
X11231529Y-9763558D02*
X11222005Y-9773082D01*
X11222005Y-9773082D02*
X11202958Y-9782606D01*
X11202958Y-9782606D02*
X11183910Y-9782606D01*
X11183910Y-9782606D02*
X11164863Y-9773082D01*
X11164863Y-9773082D02*
X11155339Y-9763558D01*
X11155339Y-9763558D02*
X11145815Y-9744511D01*
X11145815Y-9744511D02*
X11136291Y-9706416D01*
X11136291Y-9706416D02*
X11136291Y-9658796D01*
X11136291Y-9658796D02*
X11145815Y-9620701D01*
X11145815Y-9620701D02*
X11155339Y-9601654D01*
X11155339Y-9601654D02*
X11164863Y-9592130D01*
X11164863Y-9592130D02*
X11183910Y-9582606D01*
X11336291Y-9763558D02*
X11345815Y-9773082D01*
X11345815Y-9773082D02*
X11336291Y-9782606D01*
X11336291Y-9782606D02*
X11326767Y-9773082D01*
X11326767Y-9773082D02*
X11336291Y-9763558D01*
X11336291Y-9763558D02*
X11336291Y-9782606D01*
X11469624Y-9582606D02*
X11488672Y-9582606D01*
X11488672Y-9582606D02*
X11507720Y-9592130D01*
X11507720Y-9592130D02*
X11517244Y-9601654D01*
X11517244Y-9601654D02*
X11526767Y-9620701D01*
X11526767Y-9620701D02*
X11536291Y-9658796D01*
X11536291Y-9658796D02*
X11536291Y-9706416D01*
X11536291Y-9706416D02*
X11526767Y-9744511D01*
X11526767Y-9744511D02*
X11517244Y-9763558D01*
X11517244Y-9763558D02*
X11507720Y-9773082D01*
X11507720Y-9773082D02*
X11488672Y-9782606D01*
X11488672Y-9782606D02*
X11469624Y-9782606D01*
X11469624Y-9782606D02*
X11450577Y-9773082D01*
X11450577Y-9773082D02*
X11441053Y-9763558D01*
X11441053Y-9763558D02*
X11431529Y-9744511D01*
X11431529Y-9744511D02*
X11422005Y-9706416D01*
X11422005Y-9706416D02*
X11422005Y-9658796D01*
X11422005Y-9658796D02*
X11431529Y-9620701D01*
X11431529Y-9620701D02*
X11441053Y-9601654D01*
X11441053Y-9601654D02*
X11450577Y-9592130D01*
X11450577Y-9592130D02*
X11469624Y-9582606D01*
X11602958Y-9582606D02*
X11726767Y-9582606D01*
X11726767Y-9582606D02*
X11660101Y-9658796D01*
X11660101Y-9658796D02*
X11688672Y-9658796D01*
X11688672Y-9658796D02*
X11707720Y-9668320D01*
X11707720Y-9668320D02*
X11717244Y-9677844D01*
X11717244Y-9677844D02*
X11726767Y-9696892D01*
X11726767Y-9696892D02*
X11726767Y-9744511D01*
X11726767Y-9744511D02*
X11717244Y-9763558D01*
X11717244Y-9763558D02*
X11707720Y-9773082D01*
X11707720Y-9773082D02*
X11688672Y-9782606D01*
X11688672Y-9782606D02*
X11631529Y-9782606D01*
X11631529Y-9782606D02*
X11612482Y-9773082D01*
X11612482Y-9773082D02*
X11602958Y-9763558D01*
X11793434Y-9582606D02*
X11917244Y-9582606D01*
X11917244Y-9582606D02*
X11850577Y-9658796D01*
X11850577Y-9658796D02*
X11879148Y-9658796D01*
X11879148Y-9658796D02*
X11898196Y-9668320D01*
X11898196Y-9668320D02*
X11907720Y-9677844D01*
X11907720Y-9677844D02*
X11917244Y-9696892D01*
X11917244Y-9696892D02*
X11917244Y-9744511D01*
X11917244Y-9744511D02*
X11907720Y-9763558D01*
X11907720Y-9763558D02*
X11898196Y-9773082D01*
X11898196Y-9773082D02*
X11879148Y-9782606D01*
X11879148Y-9782606D02*
X11822005Y-9782606D01*
X11822005Y-9782606D02*
X11802958Y-9773082D01*
X11802958Y-9773082D02*
X11793434Y-9763558D01*
X12098196Y-9582606D02*
X12002958Y-9582606D01*
X12002958Y-9582606D02*
X11993434Y-9677844D01*
X11993434Y-9677844D02*
X12002958Y-9668320D01*
X12002958Y-9668320D02*
X12022005Y-9658796D01*
X12022005Y-9658796D02*
X12069625Y-9658796D01*
X12069625Y-9658796D02*
X12088672Y-9668320D01*
X12088672Y-9668320D02*
X12098196Y-9677844D01*
X12098196Y-9677844D02*
X12107720Y-9696892D01*
X12107720Y-9696892D02*
X12107720Y-9744511D01*
X12107720Y-9744511D02*
X12098196Y-9763558D01*
X12098196Y-9763558D02*
X12088672Y-9773082D01*
X12088672Y-9773082D02*
X12069625Y-9782606D01*
X12069625Y-9782606D02*
X12022005Y-9782606D01*
X12022005Y-9782606D02*
X12002958Y-9773082D01*
X12002958Y-9773082D02*
X11993434Y-9763558D01*
X12183910Y-9582606D02*
X12183910Y-9620701D01*
X12260101Y-9582606D02*
X12260101Y-9620701D01*
X12555339Y-9858796D02*
X12545815Y-9849273D01*
X12545815Y-9849273D02*
X12526767Y-9820701D01*
X12526767Y-9820701D02*
X12517244Y-9801654D01*
X12517244Y-9801654D02*
X12507720Y-9773082D01*
X12507720Y-9773082D02*
X12498196Y-9725463D01*
X12498196Y-9725463D02*
X12498196Y-9687368D01*
X12498196Y-9687368D02*
X12507720Y-9639749D01*
X12507720Y-9639749D02*
X12517244Y-9611177D01*
X12517244Y-9611177D02*
X12526767Y-9592130D01*
X12526767Y-9592130D02*
X12545815Y-9563558D01*
X12545815Y-9563558D02*
X12555339Y-9554035D01*
X12669625Y-9582606D02*
X12688672Y-9582606D01*
X12688672Y-9582606D02*
X12707720Y-9592130D01*
X12707720Y-9592130D02*
X12717244Y-9601654D01*
X12717244Y-9601654D02*
X12726767Y-9620701D01*
X12726767Y-9620701D02*
X12736291Y-9658796D01*
X12736291Y-9658796D02*
X12736291Y-9706416D01*
X12736291Y-9706416D02*
X12726767Y-9744511D01*
X12726767Y-9744511D02*
X12717244Y-9763558D01*
X12717244Y-9763558D02*
X12707720Y-9773082D01*
X12707720Y-9773082D02*
X12688672Y-9782606D01*
X12688672Y-9782606D02*
X12669625Y-9782606D01*
X12669625Y-9782606D02*
X12650577Y-9773082D01*
X12650577Y-9773082D02*
X12641053Y-9763558D01*
X12641053Y-9763558D02*
X12631529Y-9744511D01*
X12631529Y-9744511D02*
X12622006Y-9706416D01*
X12622006Y-9706416D02*
X12622006Y-9658796D01*
X12622006Y-9658796D02*
X12631529Y-9620701D01*
X12631529Y-9620701D02*
X12641053Y-9601654D01*
X12641053Y-9601654D02*
X12650577Y-9592130D01*
X12650577Y-9592130D02*
X12669625Y-9582606D01*
X12974387Y-9782606D02*
X12974387Y-9582606D01*
X13060101Y-9782606D02*
X13060101Y-9677844D01*
X13060101Y-9677844D02*
X13050577Y-9658796D01*
X13050577Y-9658796D02*
X13031529Y-9649273D01*
X13031529Y-9649273D02*
X13002958Y-9649273D01*
X13002958Y-9649273D02*
X12983910Y-9658796D01*
X12983910Y-9658796D02*
X12974387Y-9668320D01*
X13183910Y-9782606D02*
X13164863Y-9773082D01*
X13164863Y-9773082D02*
X13155339Y-9763558D01*
X13155339Y-9763558D02*
X13145815Y-9744511D01*
X13145815Y-9744511D02*
X13145815Y-9687368D01*
X13145815Y-9687368D02*
X13155339Y-9668320D01*
X13155339Y-9668320D02*
X13164863Y-9658796D01*
X13164863Y-9658796D02*
X13183910Y-9649273D01*
X13183910Y-9649273D02*
X13212482Y-9649273D01*
X13212482Y-9649273D02*
X13231529Y-9658796D01*
X13231529Y-9658796D02*
X13241053Y-9668320D01*
X13241053Y-9668320D02*
X13250577Y-9687368D01*
X13250577Y-9687368D02*
X13250577Y-9744511D01*
X13250577Y-9744511D02*
X13241053Y-9763558D01*
X13241053Y-9763558D02*
X13231529Y-9773082D01*
X13231529Y-9773082D02*
X13212482Y-9782606D01*
X13212482Y-9782606D02*
X13183910Y-9782606D01*
X13364863Y-9782606D02*
X13345815Y-9773082D01*
X13345815Y-9773082D02*
X13336291Y-9754035D01*
X13336291Y-9754035D02*
X13336291Y-9582606D01*
X13517244Y-9773082D02*
X13498196Y-9782606D01*
X13498196Y-9782606D02*
X13460101Y-9782606D01*
X13460101Y-9782606D02*
X13441053Y-9773082D01*
X13441053Y-9773082D02*
X13431529Y-9754035D01*
X13431529Y-9754035D02*
X13431529Y-9677844D01*
X13431529Y-9677844D02*
X13441053Y-9658796D01*
X13441053Y-9658796D02*
X13460101Y-9649273D01*
X13460101Y-9649273D02*
X13498196Y-9649273D01*
X13498196Y-9649273D02*
X13517244Y-9658796D01*
X13517244Y-9658796D02*
X13526768Y-9677844D01*
X13526768Y-9677844D02*
X13526768Y-9696892D01*
X13526768Y-9696892D02*
X13431529Y-9715939D01*
X13602958Y-9773082D02*
X13622006Y-9782606D01*
X13622006Y-9782606D02*
X13660101Y-9782606D01*
X13660101Y-9782606D02*
X13679149Y-9773082D01*
X13679149Y-9773082D02*
X13688672Y-9754035D01*
X13688672Y-9754035D02*
X13688672Y-9744511D01*
X13688672Y-9744511D02*
X13679149Y-9725463D01*
X13679149Y-9725463D02*
X13660101Y-9715939D01*
X13660101Y-9715939D02*
X13631529Y-9715939D01*
X13631529Y-9715939D02*
X13612482Y-9706416D01*
X13612482Y-9706416D02*
X13602958Y-9687368D01*
X13602958Y-9687368D02*
X13602958Y-9677844D01*
X13602958Y-9677844D02*
X13612482Y-9658796D01*
X13612482Y-9658796D02*
X13631529Y-9649273D01*
X13631529Y-9649273D02*
X13660101Y-9649273D01*
X13660101Y-9649273D02*
X13679149Y-9658796D01*
X13926768Y-9706416D02*
X14079149Y-9706416D01*
X14002958Y-9782606D02*
X14002958Y-9630225D01*
X14317244Y-9601654D02*
X14326768Y-9592130D01*
X14326768Y-9592130D02*
X14345815Y-9582606D01*
X14345815Y-9582606D02*
X14393434Y-9582606D01*
X14393434Y-9582606D02*
X14412482Y-9592130D01*
X14412482Y-9592130D02*
X14422006Y-9601654D01*
X14422006Y-9601654D02*
X14431530Y-9620701D01*
X14431530Y-9620701D02*
X14431530Y-9639749D01*
X14431530Y-9639749D02*
X14422006Y-9668320D01*
X14422006Y-9668320D02*
X14307720Y-9782606D01*
X14307720Y-9782606D02*
X14431530Y-9782606D01*
X14660101Y-9773082D02*
X14679149Y-9782606D01*
X14679149Y-9782606D02*
X14717244Y-9782606D01*
X14717244Y-9782606D02*
X14736292Y-9773082D01*
X14736292Y-9773082D02*
X14745815Y-9754035D01*
X14745815Y-9754035D02*
X14745815Y-9744511D01*
X14745815Y-9744511D02*
X14736292Y-9725463D01*
X14736292Y-9725463D02*
X14717244Y-9715939D01*
X14717244Y-9715939D02*
X14688672Y-9715939D01*
X14688672Y-9715939D02*
X14669625Y-9706416D01*
X14669625Y-9706416D02*
X14660101Y-9687368D01*
X14660101Y-9687368D02*
X14660101Y-9677844D01*
X14660101Y-9677844D02*
X14669625Y-9658796D01*
X14669625Y-9658796D02*
X14688672Y-9649273D01*
X14688672Y-9649273D02*
X14717244Y-9649273D01*
X14717244Y-9649273D02*
X14736292Y-9658796D01*
X14860101Y-9782606D02*
X14841053Y-9773082D01*
X14841053Y-9773082D02*
X14831530Y-9754035D01*
X14831530Y-9754035D02*
X14831530Y-9582606D01*
X14964863Y-9782606D02*
X14945815Y-9773082D01*
X14945815Y-9773082D02*
X14936292Y-9763558D01*
X14936292Y-9763558D02*
X14926768Y-9744511D01*
X14926768Y-9744511D02*
X14926768Y-9687368D01*
X14926768Y-9687368D02*
X14936292Y-9668320D01*
X14936292Y-9668320D02*
X14945815Y-9658796D01*
X14945815Y-9658796D02*
X14964863Y-9649273D01*
X14964863Y-9649273D02*
X14993434Y-9649273D01*
X14993434Y-9649273D02*
X15012482Y-9658796D01*
X15012482Y-9658796D02*
X15022006Y-9668320D01*
X15022006Y-9668320D02*
X15031530Y-9687368D01*
X15031530Y-9687368D02*
X15031530Y-9744511D01*
X15031530Y-9744511D02*
X15022006Y-9763558D01*
X15022006Y-9763558D02*
X15012482Y-9773082D01*
X15012482Y-9773082D02*
X14993434Y-9782606D01*
X14993434Y-9782606D02*
X14964863Y-9782606D01*
X15088673Y-9649273D02*
X15164863Y-9649273D01*
X15117244Y-9582606D02*
X15117244Y-9754035D01*
X15117244Y-9754035D02*
X15126768Y-9773082D01*
X15126768Y-9773082D02*
X15145815Y-9782606D01*
X15145815Y-9782606D02*
X15164863Y-9782606D01*
X15222006Y-9773082D02*
X15241053Y-9782606D01*
X15241053Y-9782606D02*
X15279149Y-9782606D01*
X15279149Y-9782606D02*
X15298196Y-9773082D01*
X15298196Y-9773082D02*
X15307720Y-9754035D01*
X15307720Y-9754035D02*
X15307720Y-9744511D01*
X15307720Y-9744511D02*
X15298196Y-9725463D01*
X15298196Y-9725463D02*
X15279149Y-9715939D01*
X15279149Y-9715939D02*
X15250577Y-9715939D01*
X15250577Y-9715939D02*
X15231530Y-9706416D01*
X15231530Y-9706416D02*
X15222006Y-9687368D01*
X15222006Y-9687368D02*
X15222006Y-9677844D01*
X15222006Y-9677844D02*
X15231530Y-9658796D01*
X15231530Y-9658796D02*
X15250577Y-9649273D01*
X15250577Y-9649273D02*
X15279149Y-9649273D01*
X15279149Y-9649273D02*
X15298196Y-9658796D01*
X15374387Y-9858796D02*
X15383911Y-9849273D01*
X15383911Y-9849273D02*
X15402958Y-9820701D01*
X15402958Y-9820701D02*
X15412482Y-9801654D01*
X15412482Y-9801654D02*
X15422006Y-9773082D01*
X15422006Y-9773082D02*
X15431530Y-9725463D01*
X15431530Y-9725463D02*
X15431530Y-9687368D01*
X15431530Y-9687368D02*
X15422006Y-9639749D01*
X15422006Y-9639749D02*
X15412482Y-9611177D01*
X15412482Y-9611177D02*
X15402958Y-9592130D01*
X15402958Y-9592130D02*
X15383911Y-9563558D01*
X15383911Y-9563558D02*
X15374387Y-9554035D01*
D11*
X8965632Y-9990478D02*
X8965632Y-9919767D01*
X8894920Y-9919767D01*
X8894920Y-9990478D01*
X8965632Y-9990478D01*
D10*
X9345815Y-10046606D02*
X9231529Y-10046606D01*
X9288672Y-10046606D02*
X9288672Y-9846606D01*
X9288672Y-9846606D02*
X9269624Y-9875177D01*
X9269624Y-9875177D02*
X9250577Y-9894225D01*
X9250577Y-9894225D02*
X9231529Y-9903749D01*
X9431529Y-10027558D02*
X9441053Y-10037082D01*
X9441053Y-10037082D02*
X9431529Y-10046606D01*
X9431529Y-10046606D02*
X9422005Y-10037082D01*
X9422005Y-10037082D02*
X9431529Y-10027558D01*
X9431529Y-10027558D02*
X9431529Y-10046606D01*
X9564862Y-9846606D02*
X9583910Y-9846606D01*
X9583910Y-9846606D02*
X9602958Y-9856130D01*
X9602958Y-9856130D02*
X9612482Y-9865654D01*
X9612482Y-9865654D02*
X9622005Y-9884701D01*
X9622005Y-9884701D02*
X9631529Y-9922796D01*
X9631529Y-9922796D02*
X9631529Y-9970416D01*
X9631529Y-9970416D02*
X9622005Y-10008511D01*
X9622005Y-10008511D02*
X9612482Y-10027558D01*
X9612482Y-10027558D02*
X9602958Y-10037082D01*
X9602958Y-10037082D02*
X9583910Y-10046606D01*
X9583910Y-10046606D02*
X9564862Y-10046606D01*
X9564862Y-10046606D02*
X9545815Y-10037082D01*
X9545815Y-10037082D02*
X9536291Y-10027558D01*
X9536291Y-10027558D02*
X9526767Y-10008511D01*
X9526767Y-10008511D02*
X9517243Y-9970416D01*
X9517243Y-9970416D02*
X9517243Y-9922796D01*
X9517243Y-9922796D02*
X9526767Y-9884701D01*
X9526767Y-9884701D02*
X9536291Y-9865654D01*
X9536291Y-9865654D02*
X9545815Y-9856130D01*
X9545815Y-9856130D02*
X9564862Y-9846606D01*
X9755339Y-9846606D02*
X9774386Y-9846606D01*
X9774386Y-9846606D02*
X9793434Y-9856130D01*
X9793434Y-9856130D02*
X9802958Y-9865654D01*
X9802958Y-9865654D02*
X9812482Y-9884701D01*
X9812482Y-9884701D02*
X9822005Y-9922796D01*
X9822005Y-9922796D02*
X9822005Y-9970416D01*
X9822005Y-9970416D02*
X9812482Y-10008511D01*
X9812482Y-10008511D02*
X9802958Y-10027558D01*
X9802958Y-10027558D02*
X9793434Y-10037082D01*
X9793434Y-10037082D02*
X9774386Y-10046606D01*
X9774386Y-10046606D02*
X9755339Y-10046606D01*
X9755339Y-10046606D02*
X9736291Y-10037082D01*
X9736291Y-10037082D02*
X9726767Y-10027558D01*
X9726767Y-10027558D02*
X9717243Y-10008511D01*
X9717243Y-10008511D02*
X9707720Y-9970416D01*
X9707720Y-9970416D02*
X9707720Y-9922796D01*
X9707720Y-9922796D02*
X9717243Y-9884701D01*
X9717243Y-9884701D02*
X9726767Y-9865654D01*
X9726767Y-9865654D02*
X9736291Y-9856130D01*
X9736291Y-9856130D02*
X9755339Y-9846606D01*
X9945815Y-9846606D02*
X9964863Y-9846606D01*
X9964863Y-9846606D02*
X9983910Y-9856130D01*
X9983910Y-9856130D02*
X9993434Y-9865654D01*
X9993434Y-9865654D02*
X10002958Y-9884701D01*
X10002958Y-9884701D02*
X10012482Y-9922796D01*
X10012482Y-9922796D02*
X10012482Y-9970416D01*
X10012482Y-9970416D02*
X10002958Y-10008511D01*
X10002958Y-10008511D02*
X9993434Y-10027558D01*
X9993434Y-10027558D02*
X9983910Y-10037082D01*
X9983910Y-10037082D02*
X9964863Y-10046606D01*
X9964863Y-10046606D02*
X9945815Y-10046606D01*
X9945815Y-10046606D02*
X9926767Y-10037082D01*
X9926767Y-10037082D02*
X9917243Y-10027558D01*
X9917243Y-10027558D02*
X9907720Y-10008511D01*
X9907720Y-10008511D02*
X9898196Y-9970416D01*
X9898196Y-9970416D02*
X9898196Y-9922796D01*
X9898196Y-9922796D02*
X9907720Y-9884701D01*
X9907720Y-9884701D02*
X9917243Y-9865654D01*
X9917243Y-9865654D02*
X9926767Y-9856130D01*
X9926767Y-9856130D02*
X9945815Y-9846606D01*
X10098196Y-10046606D02*
X10098196Y-9913273D01*
X10098196Y-9932320D02*
X10107720Y-9922796D01*
X10107720Y-9922796D02*
X10126767Y-9913273D01*
X10126767Y-9913273D02*
X10155339Y-9913273D01*
X10155339Y-9913273D02*
X10174386Y-9922796D01*
X10174386Y-9922796D02*
X10183910Y-9941844D01*
X10183910Y-9941844D02*
X10183910Y-10046606D01*
X10183910Y-9941844D02*
X10193434Y-9922796D01*
X10193434Y-9922796D02*
X10212482Y-9913273D01*
X10212482Y-9913273D02*
X10241053Y-9913273D01*
X10241053Y-9913273D02*
X10260101Y-9922796D01*
X10260101Y-9922796D02*
X10269624Y-9941844D01*
X10269624Y-9941844D02*
X10269624Y-10046606D01*
X10364863Y-10046606D02*
X10364863Y-9913273D01*
X10364863Y-9932320D02*
X10374386Y-9922796D01*
X10374386Y-9922796D02*
X10393434Y-9913273D01*
X10393434Y-9913273D02*
X10422005Y-9913273D01*
X10422005Y-9913273D02*
X10441053Y-9922796D01*
X10441053Y-9922796D02*
X10450577Y-9941844D01*
X10450577Y-9941844D02*
X10450577Y-10046606D01*
X10450577Y-9941844D02*
X10460101Y-9922796D01*
X10460101Y-9922796D02*
X10479148Y-9913273D01*
X10479148Y-9913273D02*
X10507720Y-9913273D01*
X10507720Y-9913273D02*
X10526767Y-9922796D01*
X10526767Y-9922796D02*
X10536291Y-9941844D01*
X10536291Y-9941844D02*
X10536291Y-10046606D01*
X10926767Y-9837082D02*
X10755339Y-10094225D01*
X11183910Y-9846606D02*
X11202958Y-9846606D01*
X11202958Y-9846606D02*
X11222005Y-9856130D01*
X11222005Y-9856130D02*
X11231529Y-9865654D01*
X11231529Y-9865654D02*
X11241053Y-9884701D01*
X11241053Y-9884701D02*
X11250577Y-9922796D01*
X11250577Y-9922796D02*
X11250577Y-9970416D01*
X11250577Y-9970416D02*
X11241053Y-10008511D01*
X11241053Y-10008511D02*
X11231529Y-10027558D01*
X11231529Y-10027558D02*
X11222005Y-10037082D01*
X11222005Y-10037082D02*
X11202958Y-10046606D01*
X11202958Y-10046606D02*
X11183910Y-10046606D01*
X11183910Y-10046606D02*
X11164863Y-10037082D01*
X11164863Y-10037082D02*
X11155339Y-10027558D01*
X11155339Y-10027558D02*
X11145815Y-10008511D01*
X11145815Y-10008511D02*
X11136291Y-9970416D01*
X11136291Y-9970416D02*
X11136291Y-9922796D01*
X11136291Y-9922796D02*
X11145815Y-9884701D01*
X11145815Y-9884701D02*
X11155339Y-9865654D01*
X11155339Y-9865654D02*
X11164863Y-9856130D01*
X11164863Y-9856130D02*
X11183910Y-9846606D01*
X11336291Y-10027558D02*
X11345815Y-10037082D01*
X11345815Y-10037082D02*
X11336291Y-10046606D01*
X11336291Y-10046606D02*
X11326767Y-10037082D01*
X11326767Y-10037082D02*
X11336291Y-10027558D01*
X11336291Y-10027558D02*
X11336291Y-10046606D01*
X11469624Y-9846606D02*
X11488672Y-9846606D01*
X11488672Y-9846606D02*
X11507720Y-9856130D01*
X11507720Y-9856130D02*
X11517244Y-9865654D01*
X11517244Y-9865654D02*
X11526767Y-9884701D01*
X11526767Y-9884701D02*
X11536291Y-9922796D01*
X11536291Y-9922796D02*
X11536291Y-9970416D01*
X11536291Y-9970416D02*
X11526767Y-10008511D01*
X11526767Y-10008511D02*
X11517244Y-10027558D01*
X11517244Y-10027558D02*
X11507720Y-10037082D01*
X11507720Y-10037082D02*
X11488672Y-10046606D01*
X11488672Y-10046606D02*
X11469624Y-10046606D01*
X11469624Y-10046606D02*
X11450577Y-10037082D01*
X11450577Y-10037082D02*
X11441053Y-10027558D01*
X11441053Y-10027558D02*
X11431529Y-10008511D01*
X11431529Y-10008511D02*
X11422005Y-9970416D01*
X11422005Y-9970416D02*
X11422005Y-9922796D01*
X11422005Y-9922796D02*
X11431529Y-9884701D01*
X11431529Y-9884701D02*
X11441053Y-9865654D01*
X11441053Y-9865654D02*
X11450577Y-9856130D01*
X11450577Y-9856130D02*
X11469624Y-9846606D01*
X11602958Y-9846606D02*
X11726767Y-9846606D01*
X11726767Y-9846606D02*
X11660101Y-9922796D01*
X11660101Y-9922796D02*
X11688672Y-9922796D01*
X11688672Y-9922796D02*
X11707720Y-9932320D01*
X11707720Y-9932320D02*
X11717244Y-9941844D01*
X11717244Y-9941844D02*
X11726767Y-9960892D01*
X11726767Y-9960892D02*
X11726767Y-10008511D01*
X11726767Y-10008511D02*
X11717244Y-10027558D01*
X11717244Y-10027558D02*
X11707720Y-10037082D01*
X11707720Y-10037082D02*
X11688672Y-10046606D01*
X11688672Y-10046606D02*
X11631529Y-10046606D01*
X11631529Y-10046606D02*
X11612482Y-10037082D01*
X11612482Y-10037082D02*
X11602958Y-10027558D01*
X11822005Y-10046606D02*
X11860101Y-10046606D01*
X11860101Y-10046606D02*
X11879148Y-10037082D01*
X11879148Y-10037082D02*
X11888672Y-10027558D01*
X11888672Y-10027558D02*
X11907720Y-9998987D01*
X11907720Y-9998987D02*
X11917244Y-9960892D01*
X11917244Y-9960892D02*
X11917244Y-9884701D01*
X11917244Y-9884701D02*
X11907720Y-9865654D01*
X11907720Y-9865654D02*
X11898196Y-9856130D01*
X11898196Y-9856130D02*
X11879148Y-9846606D01*
X11879148Y-9846606D02*
X11841053Y-9846606D01*
X11841053Y-9846606D02*
X11822005Y-9856130D01*
X11822005Y-9856130D02*
X11812482Y-9865654D01*
X11812482Y-9865654D02*
X11802958Y-9884701D01*
X11802958Y-9884701D02*
X11802958Y-9932320D01*
X11802958Y-9932320D02*
X11812482Y-9951368D01*
X11812482Y-9951368D02*
X11822005Y-9960892D01*
X11822005Y-9960892D02*
X11841053Y-9970416D01*
X11841053Y-9970416D02*
X11879148Y-9970416D01*
X11879148Y-9970416D02*
X11898196Y-9960892D01*
X11898196Y-9960892D02*
X11907720Y-9951368D01*
X11907720Y-9951368D02*
X11917244Y-9932320D01*
X12088672Y-9913273D02*
X12088672Y-10046606D01*
X12041053Y-9837082D02*
X11993434Y-9979939D01*
X11993434Y-9979939D02*
X12117244Y-9979939D01*
X12183910Y-9846606D02*
X12183910Y-9884701D01*
X12260101Y-9846606D02*
X12260101Y-9884701D01*
X12555339Y-10122796D02*
X12545815Y-10113273D01*
X12545815Y-10113273D02*
X12526767Y-10084701D01*
X12526767Y-10084701D02*
X12517244Y-10065654D01*
X12517244Y-10065654D02*
X12507720Y-10037082D01*
X12507720Y-10037082D02*
X12498196Y-9989463D01*
X12498196Y-9989463D02*
X12498196Y-9951368D01*
X12498196Y-9951368D02*
X12507720Y-9903749D01*
X12507720Y-9903749D02*
X12517244Y-9875177D01*
X12517244Y-9875177D02*
X12526767Y-9856130D01*
X12526767Y-9856130D02*
X12545815Y-9827558D01*
X12545815Y-9827558D02*
X12555339Y-9818035D01*
X12736291Y-10046606D02*
X12622006Y-10046606D01*
X12679148Y-10046606D02*
X12679148Y-9846606D01*
X12679148Y-9846606D02*
X12660101Y-9875177D01*
X12660101Y-9875177D02*
X12641053Y-9894225D01*
X12641053Y-9894225D02*
X12622006Y-9903749D01*
X12812482Y-9865654D02*
X12822006Y-9856130D01*
X12822006Y-9856130D02*
X12841053Y-9846606D01*
X12841053Y-9846606D02*
X12888672Y-9846606D01*
X12888672Y-9846606D02*
X12907720Y-9856130D01*
X12907720Y-9856130D02*
X12917244Y-9865654D01*
X12917244Y-9865654D02*
X12926767Y-9884701D01*
X12926767Y-9884701D02*
X12926767Y-9903749D01*
X12926767Y-9903749D02*
X12917244Y-9932320D01*
X12917244Y-9932320D02*
X12802958Y-10046606D01*
X12802958Y-10046606D02*
X12926767Y-10046606D01*
X13164863Y-10046606D02*
X13164863Y-9846606D01*
X13250577Y-10046606D02*
X13250577Y-9941844D01*
X13250577Y-9941844D02*
X13241053Y-9922796D01*
X13241053Y-9922796D02*
X13222006Y-9913273D01*
X13222006Y-9913273D02*
X13193434Y-9913273D01*
X13193434Y-9913273D02*
X13174387Y-9922796D01*
X13174387Y-9922796D02*
X13164863Y-9932320D01*
X13374387Y-10046606D02*
X13355339Y-10037082D01*
X13355339Y-10037082D02*
X13345815Y-10027558D01*
X13345815Y-10027558D02*
X13336291Y-10008511D01*
X13336291Y-10008511D02*
X13336291Y-9951368D01*
X13336291Y-9951368D02*
X13345815Y-9932320D01*
X13345815Y-9932320D02*
X13355339Y-9922796D01*
X13355339Y-9922796D02*
X13374387Y-9913273D01*
X13374387Y-9913273D02*
X13402958Y-9913273D01*
X13402958Y-9913273D02*
X13422006Y-9922796D01*
X13422006Y-9922796D02*
X13431529Y-9932320D01*
X13431529Y-9932320D02*
X13441053Y-9951368D01*
X13441053Y-9951368D02*
X13441053Y-10008511D01*
X13441053Y-10008511D02*
X13431529Y-10027558D01*
X13431529Y-10027558D02*
X13422006Y-10037082D01*
X13422006Y-10037082D02*
X13402958Y-10046606D01*
X13402958Y-10046606D02*
X13374387Y-10046606D01*
X13555339Y-10046606D02*
X13536291Y-10037082D01*
X13536291Y-10037082D02*
X13526768Y-10018035D01*
X13526768Y-10018035D02*
X13526768Y-9846606D01*
X13707720Y-10037082D02*
X13688672Y-10046606D01*
X13688672Y-10046606D02*
X13650577Y-10046606D01*
X13650577Y-10046606D02*
X13631529Y-10037082D01*
X13631529Y-10037082D02*
X13622006Y-10018035D01*
X13622006Y-10018035D02*
X13622006Y-9941844D01*
X13622006Y-9941844D02*
X13631529Y-9922796D01*
X13631529Y-9922796D02*
X13650577Y-9913273D01*
X13650577Y-9913273D02*
X13688672Y-9913273D01*
X13688672Y-9913273D02*
X13707720Y-9922796D01*
X13707720Y-9922796D02*
X13717244Y-9941844D01*
X13717244Y-9941844D02*
X13717244Y-9960892D01*
X13717244Y-9960892D02*
X13622006Y-9979939D01*
X13793434Y-10037082D02*
X13812482Y-10046606D01*
X13812482Y-10046606D02*
X13850577Y-10046606D01*
X13850577Y-10046606D02*
X13869625Y-10037082D01*
X13869625Y-10037082D02*
X13879149Y-10018035D01*
X13879149Y-10018035D02*
X13879149Y-10008511D01*
X13879149Y-10008511D02*
X13869625Y-9989463D01*
X13869625Y-9989463D02*
X13850577Y-9979939D01*
X13850577Y-9979939D02*
X13822006Y-9979939D01*
X13822006Y-9979939D02*
X13802958Y-9970416D01*
X13802958Y-9970416D02*
X13793434Y-9951368D01*
X13793434Y-9951368D02*
X13793434Y-9941844D01*
X13793434Y-9941844D02*
X13802958Y-9922796D01*
X13802958Y-9922796D02*
X13822006Y-9913273D01*
X13822006Y-9913273D02*
X13850577Y-9913273D01*
X13850577Y-9913273D02*
X13869625Y-9922796D01*
X13945815Y-10122796D02*
X13955339Y-10113273D01*
X13955339Y-10113273D02*
X13974387Y-10084701D01*
X13974387Y-10084701D02*
X13983910Y-10065654D01*
X13983910Y-10065654D02*
X13993434Y-10037082D01*
X13993434Y-10037082D02*
X14002958Y-9989463D01*
X14002958Y-9989463D02*
X14002958Y-9951368D01*
X14002958Y-9951368D02*
X13993434Y-9903749D01*
X13993434Y-9903749D02*
X13983910Y-9875177D01*
X13983910Y-9875177D02*
X13974387Y-9856130D01*
X13974387Y-9856130D02*
X13955339Y-9827558D01*
X13955339Y-9827558D02*
X13945815Y-9818035D01*
M02*
