M48
; DRILL file {KiCad 8.0.8} date 2025-03-31T20:29:24+0800
; FORMAT={-:-/ absolute / inch / decimal}
; #@! TF.CreationDate,2025-03-31T20:29:24+08:00
; #@! TF.GenerationSoftware,Kicad,Pcbnew,8.0.8
; #@! TF.FileFunction,Plated,1,2,PTH
FMAT,2
INCH
; #@! TA.AperFunction,Plated,PTH,ViaDrill
T1C0.0118
; #@! TA.AperFunction,Plated,PTH,ComponentDrill
T2C0.0217
; #@! TA.AperFunction,Plated,PTH,ComponentDrill
T3C0.0335
; #@! TA.AperFunction,Plated,PTH,ComponentDrill
T4C0.0394
%
G90
G05
T1
X3.7559Y-2.1102
X3.8602Y-2.5571
X3.9134Y-2.3524
X4.0335Y-2.4685
X4.0394Y-2.3976
X4.0768Y-2.3465
X4.0792Y-2.6373
X4.0807Y-2.5177
X4.0807Y-2.7736
X4.1177Y-3.1358
X4.1693Y-3.1358
X4.2421Y-2.9961
X4.2756Y-2.3878
X4.2953Y-2.9961
X4.3268Y-2.7264
X4.4547Y-2.7756
X4.6732Y-2.4134
X4.872Y-2.7854
X4.8898Y-2.6004
X4.8898Y-2.6398
X4.9075Y-2.7854
X5.0236Y-2.3839
X5.0551Y-2.811
X5.189Y-2.689
T4
X4.0106Y-1.8858
X4.0433Y-3.2402
X4.1106Y-1.8858
X4.1433Y-3.2402
X4.2106Y-1.8858
X4.2433Y-3.2402
X4.3106Y-1.8858
X4.3433Y-3.2402
X4.6181Y-1.8937
X4.7181Y-1.8937
X4.8181Y-1.8937
X4.9181Y-1.8937
T2
G00X5.2431Y-2.2844
M15
G01X5.2687Y-2.2844
M16
G05
G00X5.2431Y-2.5896
M15
G01X5.2687Y-2.5896
M16
G05
T3
G00X5.0955Y-2.2904
M15
G01X5.1171Y-2.2904
M16
G05
G00X5.0955Y-2.5837
M15
G01X5.1171Y-2.5837
M16
G05
M30
